M48
; DRILL file {KiCad (6.0.9)} date Thu Dec  1 07:32:18 2022
; FORMAT={-:-/ absolute / inch / decimal}
; #@! TF.CreationDate,2022-12-01T07:32:18+10:00
; #@! TF.GenerationSoftware,Kicad,Pcbnew,(6.0.9)
; #@! TF.FileFunction,Plated,1,4,PTH
FMAT,2
INCH
; #@! TA.AperFunction,Plated,PTH,ViaDrill
T1C0.0079
; #@! TA.AperFunction,Plated,PTH,ViaDrill
T2C0.0098
; #@! TA.AperFunction,Plated,PTH,ViaDrill
T3C0.0118
; #@! TA.AperFunction,Plated,PTH,ViaDrill
T4C0.0157
; #@! TA.AperFunction,Plated,PTH,ComponentDrill
T5C0.0177
; #@! TA.AperFunction,Plated,PTH,ComponentDrill
T6C0.0197
; #@! TA.AperFunction,Plated,PTH,ComponentDrill
T7C0.1260
%
G90
G05
T1
X3.7992Y-4.5433
X3.7992Y-4.563
X3.7992Y-4.5827
X3.8189Y-4.5433
X3.8189Y-4.563
X3.8189Y-4.5827
X3.8425Y-4.6102
X4.313Y-4.0512
X4.315Y-3.815
X4.315Y-3.8937
X4.315Y-3.9724
X4.8844Y-4.3061
X4.8844Y-4.3317
X4.9508Y-4.1811
X4.9508Y-4.2008
X4.9508Y-4.437
X4.9508Y-4.4567
X4.9744Y-4.1811
X4.9744Y-4.4567
X5.0039Y-4.2795
X5.0197Y-4.2362
T2
X2.7874Y-3.9606
X2.7874Y-4.0
X2.7874Y-4.0394
X2.7874Y-4.0787
X2.7874Y-4.1181
X2.7874Y-4.1575
X2.7874Y-4.1969
X2.7874Y-4.2362
X2.7874Y-4.2756
X2.7874Y-4.315
X2.7874Y-4.3543
X2.7874Y-4.3937
X2.7874Y-4.4331
X2.7874Y-4.4724
X2.7874Y-4.5118
X2.7874Y-4.5512
X2.7874Y-4.5906
X2.7874Y-4.6299
X2.8268Y-3.9606
X2.8268Y-4.0
X2.8268Y-4.0394
X2.8268Y-4.0787
X2.8268Y-4.1181
X2.8268Y-4.1575
X2.8268Y-4.1969
X2.8268Y-4.2362
X2.8268Y-4.2756
X2.8268Y-4.315
X2.8268Y-4.3543
X2.8268Y-4.3937
X2.8268Y-4.4331
X2.8268Y-4.4724
X2.8268Y-4.5118
X2.8268Y-4.5512
X2.8268Y-4.5906
X2.8268Y-4.6299
X2.9134Y-3.9764
X2.9134Y-4.0591
X2.9134Y-4.1417
X2.9134Y-4.2244
X2.937Y-4.4055
X2.937Y-4.4449
X2.937Y-4.4843
X2.9449Y-4.5906
X2.9488Y-4.3543
X2.9764Y-4.3268
X2.9843Y-4.5906
X2.9843Y-4.6299
X3.0157Y-4.3268
X3.0236Y-4.5906
X3.0236Y-4.6299
X3.0551Y-4.3268
X3.063Y-4.5906
X3.063Y-4.6299
X3.0945Y-4.3268
X3.1024Y-4.4252
X3.1024Y-4.4646
X3.1024Y-4.5118
X3.1024Y-4.5512
X3.1024Y-4.5906
X3.1024Y-4.6299
X3.1339Y-4.3268
X3.1339Y-4.3533
X3.1417Y-4.5512
X3.1417Y-4.5906
X3.1417Y-4.6299
X3.1476Y-4.8204
X3.1732Y-4.3268
X3.1732Y-4.3533
X3.1732Y-4.3898
X3.1732Y-4.4173
X3.1811Y-4.6299
X3.1909Y-4.9188
X3.1949Y-4.6747
X3.1949Y-4.7141
X3.2205Y-4.6299
X3.2362Y-4.1604
X3.2362Y-4.1841
X3.2362Y-4.2077
X3.2362Y-4.2313
X3.2362Y-4.2549
X3.2362Y-4.2785
X3.2362Y-4.3022
X3.2362Y-4.3258
X3.2362Y-4.3819
X3.2362Y-4.4055
X3.2362Y-4.4291
X3.2362Y-4.4528
X3.2362Y-4.4764
X3.2382Y-4.7298
X3.2598Y-4.1604
X3.2598Y-4.1841
X3.2598Y-4.2077
X3.2598Y-4.2313
X3.2598Y-4.2549
X3.2598Y-4.2785
X3.2598Y-4.3022
X3.2598Y-4.3258
X3.2598Y-4.3819
X3.2598Y-4.4055
X3.2598Y-4.4291
X3.2598Y-4.4528
X3.2598Y-4.4764
X3.2598Y-4.6299
X3.2913Y-3.9724
X3.2992Y-4.5512
X3.2992Y-4.6299
X3.2992Y-4.6693
X3.3346Y-4.315
X3.3386Y-4.5512
X3.3386Y-4.5906
X3.3386Y-4.6299
X3.3386Y-4.6693
X3.3386Y-4.7087
X3.3386Y-4.748
X3.3622Y-4.2874
X3.374Y-4.0984
X3.378Y-4.0
X3.378Y-4.0394
X3.378Y-4.5512
X3.378Y-4.5906
X3.378Y-4.8661
X3.378Y-4.9055
X3.378Y-4.9449
X3.3898Y-4.2598
X3.4016Y-4.0984
X3.4173Y-4.0
X3.4173Y-4.2323
X3.4173Y-4.5118
X3.4173Y-4.5512
X3.4173Y-4.8661
X3.4173Y-4.9055
X3.4173Y-4.9449
X3.4291Y-4.0984
X3.4449Y-4.2047
X3.4567Y-4.0984
X3.4567Y-4.4724
X3.4567Y-4.5118
X3.4567Y-4.5512
X3.4567Y-4.8661
X3.4567Y-4.9055
X3.4567Y-4.9449
X3.4724Y-4.1772
X3.4843Y-4.0984
X3.4961Y-4.3937
X3.4961Y-4.4331
X3.4961Y-4.4724
X3.4961Y-4.5118
X3.4961Y-4.5512
X3.5Y-4.1496
X3.5118Y-4.0984
X3.5276Y-4.122
X3.5354Y-4.3543
X3.5354Y-4.3937
X3.5354Y-4.4331
X3.5354Y-4.4724
X3.5354Y-4.5118
X3.5551Y-4.0945
X3.5748Y-4.315
X3.5748Y-4.3543
X3.5748Y-4.3937
X3.5748Y-4.4331
X3.5748Y-4.4724
X3.5748Y-4.5118
X3.5827Y-4.0669
X3.5906Y-4.0984
X3.5965Y-4.2874
X3.5965Y-4.2874
X3.6102Y-4.0394
X3.622Y-4.0984
X3.624Y-4.2598
X3.6398Y-4.0138
X3.6516Y-4.2323
X3.6535Y-4.0984
X3.6732Y-4.2953
X3.6732Y-4.3228
X3.6732Y-4.3504
X3.6732Y-4.378
X3.6732Y-4.4055
X3.6732Y-4.4331
X3.6791Y-4.0079
X3.6791Y-4.2047
X3.689Y-4.4528
X3.6969Y-4.2795
X3.6969Y-4.5512
X3.7047Y-3.7913
X3.7047Y-3.8229
X3.7067Y-4.1772
X3.7087Y-4.2126
X3.7165Y-4.4528
X3.7185Y-4.0079
X3.7205Y-4.2677
X3.7249Y-4.8858
X3.7279Y-4.9213
X3.7283Y-3.7913
X3.7283Y-3.8229
X3.7441Y-4.4528
X3.7461Y-4.311
X3.748Y-4.1654
X3.748Y-4.189
X3.748Y-4.2638
X3.7539Y-3.8091
X3.7736Y-4.311
X3.7756Y-4.4528
X3.7795Y-3.7913
X3.7795Y-3.8229
X3.7913Y-4.1654
X3.8031Y-3.7913
X3.8031Y-3.8229
X3.8031Y-4.4528
X3.8189Y-4.0039
X3.8189Y-4.0354
X3.8189Y-4.0669
X3.8189Y-4.1417
X3.8189Y-4.748
X3.8307Y-4.4528
X3.8346Y-4.1811
X3.8425Y-4.1417
X3.8425Y-4.4843
X3.8425Y-4.748
X3.8465Y-4.2953
X3.8465Y-4.3228
X3.8465Y-4.3504
X3.8465Y-4.378
X3.8465Y-4.4055
X3.8465Y-4.4331
X3.8583Y-3.9843
X3.8583Y-4.935
X3.8588Y-4.9114
X3.878Y-4.0827
X3.8898Y-3.9843
X3.9055Y-4.252
X3.9173Y-4.6386
X3.9213Y-3.9843
X3.9213Y-4.1535
X3.9252Y-4.5039
X3.9291Y-4.0394
X3.937Y-4.252
X3.9528Y-3.9291
X3.9528Y-4.1535
X3.9685Y-4.0
X3.9685Y-4.0394
X3.9685Y-4.252
X3.9823Y-4.9606
X3.9843Y-3.9291
X3.9843Y-4.1535
X3.9843Y-4.3504
X3.9961Y-4.122
X4.0157Y-3.9291
X4.0157Y-4.1535
X4.0157Y-4.3504
X4.0197Y-4.0984
X4.0512Y-3.815
X4.0512Y-3.8465
X4.0512Y-3.878
X4.0512Y-3.9094
X4.0512Y-3.9409
X4.0512Y-3.9724
X4.0512Y-4.0039
X4.0512Y-4.0354
X4.0512Y-4.0669
X4.0512Y-4.1378
X4.0709Y-3.7913
X4.0846Y-4.5984
X4.0906Y-4.4488
X4.0945Y-3.7913
X4.126Y-4.2402
X4.126Y-4.6299
X4.126Y-4.6693
X4.1457Y-3.7913
X4.1496Y-3.9252
X4.1496Y-3.9567
X4.1496Y-3.9882
X4.1496Y-4.0827
X4.1496Y-4.1142
X4.1496Y-4.2165
X4.1496Y-4.2402
X4.1496Y-4.2638
X4.1654Y-4.6299
X4.1654Y-4.6693
X4.1693Y-3.7913
X4.1732Y-4.2165
X4.1732Y-4.2402
X4.1732Y-4.2638
X4.1752Y-4.0531
X4.2441Y-4.9055
X4.2441Y-4.9449
X4.2441Y-4.9843
X4.2523Y-3.8643
X4.315Y-4.6024
X4.315Y-4.7474
X4.3228Y-4.6299
X4.3228Y-4.7087
X4.3425Y-4.6024
X4.3425Y-4.7474
X4.3701Y-4.6024
X4.3701Y-4.7474
X4.4409Y-4.7087
X4.4409Y-4.748
X4.4409Y-4.7874
X4.4409Y-4.8268
X4.4409Y-4.9055
X4.4409Y-4.9449
X4.4409Y-4.9843
X4.4528Y-4.6142
X4.4764Y-4.6142
X4.4882Y-4.4291
X4.5Y-4.6142
X4.5118Y-4.1102
X4.5305Y-4.6073
X4.5984Y-4.9055
X4.5984Y-4.9449
X4.5984Y-4.9843
X4.6142Y-4.1604
X4.6142Y-4.1841
X4.6142Y-4.2077
X4.6142Y-4.2313
X4.6142Y-4.2549
X4.6142Y-4.2785
X4.6142Y-4.3593
X4.6142Y-4.3829
X4.6142Y-4.4065
X4.6142Y-4.4301
X4.6142Y-4.4537
X4.6142Y-4.4774
X4.6181Y-4.6772
X4.6378Y-4.1604
X4.6378Y-4.1841
X4.6378Y-4.2077
X4.6378Y-4.2313
X4.6378Y-4.2549
X4.6378Y-4.2785
X4.6378Y-4.3593
X4.6378Y-4.3829
X4.6378Y-4.4065
X4.6378Y-4.4301
X4.6378Y-4.4537
X4.6378Y-4.4774
X4.6772Y-3.9016
X4.6772Y-3.9331
X4.6772Y-3.9606
X4.7008Y-4.4154
X4.7087Y-4.6772
X4.7283Y-4.7008
X4.7323Y-4.4004
X4.7559Y-4.7008
X4.7795Y-4.7008
X4.7953Y-4.8071
X4.8071Y-4.7008
X4.8346Y-3.9213
X4.8386Y-4.4055
X4.8386Y-4.563
X4.8543Y-4.2047
X4.8543Y-4.5276
X4.874Y-3.9213
X4.9921Y-4.6693
X5.0174Y-4.3031
X5.0174Y-4.3346
X5.0315Y-3.9213
X5.0551Y-3.9961
T3
X4.0551Y-4.878
X4.187Y-4.4016
X4.7087Y-4.3189
T4
X3.0906Y-4.937
X3.2402Y-4.1181
X3.9882Y-4.6969
X4.3583Y-4.6693
X4.6582Y-4.1073
X4.9685Y-4.0669
T6
X2.8189Y-4.8504
X2.8466Y-4.7836
X2.8466Y-4.9172
X2.9134Y-4.7559
X2.9134Y-4.9449
X2.9802Y-4.7836
X2.9802Y-4.9172
X3.0079Y-4.8504
X4.8661Y-4.8504
X4.8938Y-4.7836
X4.8938Y-4.9172
X4.9606Y-4.7559
X4.9606Y-4.9449
X5.0274Y-4.7836
X5.0274Y-4.9172
X5.0551Y-4.8504
T7
X2.9134Y-4.8504
X4.9606Y-4.8504
T5
G00X4.9134Y-4.1437
M15
G01X4.9528Y-4.1437
M16
G05
G00X4.9134Y-4.4941
M15
G01X4.9528Y-4.4941
M16
G05
G00X5.0354Y-4.1437
M15
G01X5.0827Y-4.1437
M16
G05
G00X5.0354Y-4.4941
M15
G01X5.0827Y-4.4941
M16
G05
T0
M30
