%TF.GenerationSoftware,KiCad,Pcbnew,(6.0.9)*%
%TF.CreationDate,2022-12-01T07:32:15+10:00*%
%TF.ProjectId,NRF52Motherboard,4e524635-324d-46f7-9468-6572626f6172,rev?*%
%TF.SameCoordinates,Original*%
%TF.FileFunction,Copper,L1,Top*%
%TF.FilePolarity,Positive*%
%FSLAX46Y46*%
G04 Gerber Fmt 4.6, Leading zero omitted, Abs format (unit mm)*
G04 Created by KiCad (PCBNEW (6.0.9)) date 2022-12-01 07:32:15*
%MOMM*%
%LPD*%
G01*
G04 APERTURE LIST*
G04 Aperture macros list*
%AMRoundRect*
0 Rectangle with rounded corners*
0 $1 Rounding radius*
0 $2 $3 $4 $5 $6 $7 $8 $9 X,Y pos of 4 corners*
0 Add a 4 corners polygon primitive as box body*
4,1,4,$2,$3,$4,$5,$6,$7,$8,$9,$2,$3,0*
0 Add four circle primitives for the rounded corners*
1,1,$1+$1,$2,$3*
1,1,$1+$1,$4,$5*
1,1,$1+$1,$6,$7*
1,1,$1+$1,$8,$9*
0 Add four rect primitives between the rounded corners*
20,1,$1+$1,$2,$3,$4,$5,0*
20,1,$1+$1,$4,$5,$6,$7,0*
20,1,$1+$1,$6,$7,$8,$9,0*
20,1,$1+$1,$8,$9,$2,$3,0*%
G04 Aperture macros list end*
%TA.AperFunction,SMDPad,CuDef*%
%ADD10RoundRect,0.140000X0.170000X-0.140000X0.170000X0.140000X-0.170000X0.140000X-0.170000X-0.140000X0*%
%TD*%
%TA.AperFunction,SMDPad,CuDef*%
%ADD11RoundRect,0.135000X0.185000X-0.135000X0.185000X0.135000X-0.185000X0.135000X-0.185000X-0.135000X0*%
%TD*%
%TA.AperFunction,SMDPad,CuDef*%
%ADD12R,0.600000X0.450000*%
%TD*%
%TA.AperFunction,SMDPad,CuDef*%
%ADD13RoundRect,0.250000X0.262500X0.450000X-0.262500X0.450000X-0.262500X-0.450000X0.262500X-0.450000X0*%
%TD*%
%TA.AperFunction,SMDPad,CuDef*%
%ADD14RoundRect,0.135000X-0.185000X0.135000X-0.185000X-0.135000X0.185000X-0.135000X0.185000X0.135000X0*%
%TD*%
%TA.AperFunction,SMDPad,CuDef*%
%ADD15RoundRect,0.140000X0.140000X0.170000X-0.140000X0.170000X-0.140000X-0.170000X0.140000X-0.170000X0*%
%TD*%
%TA.AperFunction,ComponentPad*%
%ADD16C,6.400000*%
%TD*%
%TA.AperFunction,ComponentPad*%
%ADD17C,0.800000*%
%TD*%
%TA.AperFunction,SMDPad,CuDef*%
%ADD18RoundRect,0.050000X-0.337500X-0.050000X0.337500X-0.050000X0.337500X0.050000X-0.337500X0.050000X0*%
%TD*%
%TA.AperFunction,SMDPad,CuDef*%
%ADD19R,1.780000X2.350000*%
%TD*%
%TA.AperFunction,SMDPad,CuDef*%
%ADD20R,1.100000X1.100000*%
%TD*%
%TA.AperFunction,SMDPad,CuDef*%
%ADD21RoundRect,0.140000X-0.140000X-0.170000X0.140000X-0.170000X0.140000X0.170000X-0.140000X0.170000X0*%
%TD*%
%TA.AperFunction,SMDPad,CuDef*%
%ADD22RoundRect,0.243750X-0.243750X-0.456250X0.243750X-0.456250X0.243750X0.456250X-0.243750X0.456250X0*%
%TD*%
%TA.AperFunction,SMDPad,CuDef*%
%ADD23R,1.560000X0.650000*%
%TD*%
%TA.AperFunction,SMDPad,CuDef*%
%ADD24R,0.150000X0.150000*%
%TD*%
%TA.AperFunction,SMDPad,CuDef*%
%ADD25RoundRect,0.218750X-0.256250X0.218750X-0.256250X-0.218750X0.256250X-0.218750X0.256250X0.218750X0*%
%TD*%
%TA.AperFunction,SMDPad,CuDef*%
%ADD26RoundRect,0.150000X0.150000X-0.512500X0.150000X0.512500X-0.150000X0.512500X-0.150000X-0.512500X0*%
%TD*%
%TA.AperFunction,SMDPad,CuDef*%
%ADD27R,0.650000X1.200000*%
%TD*%
%TA.AperFunction,SMDPad,CuDef*%
%ADD28RoundRect,0.150000X-0.512500X-0.150000X0.512500X-0.150000X0.512500X0.150000X-0.512500X0.150000X0*%
%TD*%
%TA.AperFunction,SMDPad,CuDef*%
%ADD29R,0.600000X0.400000*%
%TD*%
%TA.AperFunction,SMDPad,CuDef*%
%ADD30R,0.400000X0.600000*%
%TD*%
%TA.AperFunction,SMDPad,CuDef*%
%ADD31RoundRect,0.135000X0.135000X0.185000X-0.135000X0.185000X-0.135000X-0.185000X0.135000X-0.185000X0*%
%TD*%
%TA.AperFunction,SMDPad,CuDef*%
%ADD32RoundRect,0.150000X0.587500X0.150000X-0.587500X0.150000X-0.587500X-0.150000X0.587500X-0.150000X0*%
%TD*%
%TA.AperFunction,SMDPad,CuDef*%
%ADD33R,1.400000X4.200000*%
%TD*%
%TA.AperFunction,SMDPad,CuDef*%
%ADD34R,1.000000X3.500000*%
%TD*%
%TA.AperFunction,SMDPad,CuDef*%
%ADD35R,1.500000X3.400000*%
%TD*%
%TA.AperFunction,SMDPad,CuDef*%
%ADD36R,0.500000X0.750000*%
%TD*%
%TA.AperFunction,SMDPad,CuDef*%
%ADD37R,0.500000X0.400000*%
%TD*%
%TA.AperFunction,SMDPad,CuDef*%
%ADD38R,1.800000X1.800000*%
%TD*%
%TA.AperFunction,SMDPad,CuDef*%
%ADD39R,2.000000X6.000000*%
%TD*%
%TA.AperFunction,SMDPad,CuDef*%
%ADD40R,2.000000X3.500000*%
%TD*%
%TA.AperFunction,SMDPad,CuDef*%
%ADD41R,0.750000X0.250000*%
%TD*%
%TA.AperFunction,SMDPad,CuDef*%
%ADD42R,0.750000X0.300000*%
%TD*%
%TA.AperFunction,ComponentPad*%
%ADD43O,2.050000X1.025000*%
%TD*%
%TA.AperFunction,ComponentPad*%
%ADD44O,1.850000X0.925000*%
%TD*%
%TA.AperFunction,SMDPad,CuDef*%
%ADD45RoundRect,0.243750X0.243750X0.456250X-0.243750X0.456250X-0.243750X-0.456250X0.243750X-0.456250X0*%
%TD*%
%TA.AperFunction,SMDPad,CuDef*%
%ADD46R,2.400000X0.740000*%
%TD*%
%TA.AperFunction,SMDPad,CuDef*%
%ADD47RoundRect,0.135000X-0.135000X-0.185000X0.135000X-0.185000X0.135000X0.185000X-0.135000X0.185000X0*%
%TD*%
%TA.AperFunction,SMDPad,CuDef*%
%ADD48R,1.000000X1.800000*%
%TD*%
%TA.AperFunction,SMDPad,CuDef*%
%ADD49RoundRect,0.150000X-0.587500X-0.150000X0.587500X-0.150000X0.587500X0.150000X-0.587500X0.150000X0*%
%TD*%
%TA.AperFunction,SMDPad,CuDef*%
%ADD50RoundRect,0.140000X-0.170000X0.140000X-0.170000X-0.140000X0.170000X-0.140000X0.170000X0.140000X0*%
%TD*%
%TA.AperFunction,ViaPad*%
%ADD51C,0.550000*%
%TD*%
%TA.AperFunction,ViaPad*%
%ADD52C,0.400000*%
%TD*%
%TA.AperFunction,ViaPad*%
%ADD53C,0.700000*%
%TD*%
%TA.AperFunction,ViaPad*%
%ADD54C,0.800000*%
%TD*%
%TA.AperFunction,Conductor*%
%ADD55C,0.250000*%
%TD*%
%TA.AperFunction,Conductor*%
%ADD56C,0.180000*%
%TD*%
%TA.AperFunction,Conductor*%
%ADD57C,0.550000*%
%TD*%
%TA.AperFunction,Conductor*%
%ADD58C,0.300000*%
%TD*%
%TA.AperFunction,Conductor*%
%ADD59C,0.200000*%
%TD*%
%TA.AperFunction,Conductor*%
%ADD60C,0.400000*%
%TD*%
%TA.AperFunction,Conductor*%
%ADD61C,0.500000*%
%TD*%
%TA.AperFunction,Conductor*%
%ADD62C,0.150000*%
%TD*%
%TA.AperFunction,Conductor*%
%ADD63C,0.100000*%
%TD*%
G04 APERTURE END LIST*
%TO.C,NT6*%
G36*
X77287500Y-104765000D02*
G01*
X76837500Y-104765000D01*
X76837500Y-104615000D01*
X77287500Y-104615000D01*
X77287500Y-104765000D01*
G37*
%TO.C,NT1*%
G36*
X77287500Y-106865000D02*
G01*
X76837500Y-106865000D01*
X76837500Y-106715000D01*
X77287500Y-106715000D01*
X77287500Y-106865000D01*
G37*
%TO.C,NT7*%
G36*
X103825000Y-116225000D02*
G01*
X103675000Y-116225000D01*
X103675000Y-115775000D01*
X103825000Y-115775000D01*
X103825000Y-116225000D01*
G37*
%TO.C,NT2*%
G36*
X77387500Y-102665000D02*
G01*
X76937500Y-102665000D01*
X76937500Y-102515000D01*
X77387500Y-102515000D01*
X77387500Y-102665000D01*
G37*
%TO.C,NT5*%
G36*
X77387500Y-100565000D02*
G01*
X76937500Y-100565000D01*
X76937500Y-100415000D01*
X77387500Y-100415000D01*
X77387500Y-100565000D01*
G37*
%TO.C,NT3*%
G36*
X99775000Y-115175000D02*
G01*
X99625000Y-115175000D01*
X99625000Y-114725000D01*
X99775000Y-114725000D01*
X99775000Y-115175000D01*
G37*
%TO.C,NT4*%
G36*
X119575000Y-113175000D02*
G01*
X119425000Y-113175000D01*
X119425000Y-112725000D01*
X119575000Y-112725000D01*
X119575000Y-113175000D01*
G37*
%TD*%
D10*
%TO.P,C26,1*%
%TO.N,+5V*%
X97312500Y-126480000D03*
%TO.P,C26,2*%
%TO.N,GND*%
X97312500Y-125520000D03*
%TD*%
D11*
%TO.P,R32,1*%
%TO.N,Net-(D16-Pad2)*%
X103450000Y-126610000D03*
%TO.P,R32,2*%
%TO.N,+5V*%
X103450000Y-125590000D03*
%TD*%
%TO.P,R24,1*%
%TO.N,GND*%
X115100000Y-116410000D03*
%TO.P,R24,2*%
%TO.N,/12V EN*%
X115100000Y-115390000D03*
%TD*%
D12*
%TO.P,D5,1,A1*%
%TO.N,/SWDCLK_CONN*%
X110650000Y-100900000D03*
%TO.P,D5,2,A2*%
%TO.N,GND*%
X108550000Y-100900000D03*
%TD*%
D13*
%TO.P,R7,1*%
%TO.N,3V3A*%
X76612500Y-115350000D03*
%TO.P,R7,2*%
%TO.N,+3V3*%
X74787500Y-115350000D03*
%TD*%
D14*
%TO.P,R12,1*%
%TO.N,BT_STATUS_LED*%
X76400000Y-106790000D03*
%TO.P,R12,2*%
%TO.N,Net-(D8-Pad2)*%
X76400000Y-107810000D03*
%TD*%
D15*
%TO.P,C15,1*%
%TO.N,3V3A*%
X76250000Y-113900000D03*
%TO.P,C15,2*%
%TO.N,GND*%
X75290000Y-113900000D03*
%TD*%
D16*
%TO.P,H2,1,1*%
%TO.N,GND*%
X74000000Y-123200000D03*
D17*
X74000000Y-125600000D03*
X76400000Y-123200000D03*
X72302944Y-124897056D03*
X71600000Y-123200000D03*
X75697056Y-124897056D03*
X74000000Y-120800000D03*
X72302944Y-121502944D03*
X75697056Y-121502944D03*
%TD*%
D18*
%TO.P,U2,1,TH*%
%TO.N,unconnected-(U2-Pad1)*%
X95212500Y-114700000D03*
%TO.P,U2,2,NC*%
%TO.N,unconnected-(U2-Pad2)*%
X95212500Y-115100000D03*
%TO.P,U2,3,SW*%
%TO.N,unconnected-(U2-Pad3)*%
X95212500Y-115500000D03*
%TO.P,U2,4,NC*%
%TO.N,unconnected-(U2-Pad4)*%
X95212500Y-115900000D03*
%TO.P,U2,5,NC*%
%TO.N,unconnected-(U2-Pad5)*%
X95212500Y-116300000D03*
%TO.P,U2,6,BATT*%
%TO.N,BATT+*%
X95212500Y-116700000D03*
%TO.P,U2,7,CSN*%
X95212500Y-117100000D03*
%TO.P,U2,8,GND*%
%TO.N,GND*%
X98187500Y-117100000D03*
%TO.P,U2,9,CSPL*%
%TO.N,unconnected-(U2-Pad9)*%
X98187500Y-116700000D03*
%TO.P,U2,10,CELLX*%
%TO.N,BATT_POWER*%
X98187500Y-116300000D03*
%TO.P,U2,11,REG*%
%TO.N,/FUEL_REG*%
X98187500Y-115900000D03*
%TO.P,U2,12,ALRT*%
%TO.N,FUEL_ALRT*%
X98187500Y-115500000D03*
%TO.P,U2,13,SDA*%
%TO.N,SDA*%
X98187500Y-115100000D03*
%TO.P,U2,14,SCL*%
%TO.N,SCL*%
X98187500Y-114700000D03*
D19*
%TO.P,U2,15,GND*%
%TO.N,GND*%
X96700000Y-115900000D03*
%TD*%
D20*
%TO.P,D11,1,K*%
%TO.N,VCC*%
X102900000Y-120000000D03*
%TO.P,D11,2,A*%
%TO.N,+5V*%
X102900000Y-122800000D03*
%TD*%
D21*
%TO.P,C23,1*%
%TO.N,GND*%
X75290000Y-112900000D03*
%TO.P,C23,2*%
%TO.N,3V3A*%
X76250000Y-112900000D03*
%TD*%
D22*
%TO.P,D9,1,K*%
%TO.N,GND*%
X73162500Y-103100000D03*
%TO.P,D9,2,A*%
%TO.N,Net-(D9-Pad2)*%
X75037500Y-103100000D03*
%TD*%
D21*
%TO.P,C14,1*%
%TO.N,VCC*%
X79470000Y-124937500D03*
%TO.P,C14,2*%
%TO.N,GND*%
X80430000Y-124937500D03*
%TD*%
D23*
%TO.P,U4,1,BST*%
%TO.N,/BST*%
X118430000Y-119750000D03*
%TO.P,U4,2,GND*%
%TO.N,GND*%
X118430000Y-118800000D03*
%TO.P,U4,3,FB*%
%TO.N,/FB*%
X118430000Y-117850000D03*
%TO.P,U4,4,EN*%
%TO.N,/12V EN*%
X115730000Y-117850000D03*
%TO.P,U4,5,VIN*%
%TO.N,+12V*%
X115730000Y-118800000D03*
%TO.P,U4,6,SW*%
%TO.N,/SW*%
X115730000Y-119750000D03*
%TD*%
D10*
%TO.P,C3,1*%
%TO.N,BATT+*%
X93900000Y-117180000D03*
%TO.P,C3,2*%
%TO.N,GND*%
X93900000Y-116220000D03*
%TD*%
D15*
%TO.P,C25,1*%
%TO.N,3V3A*%
X76240000Y-111900000D03*
%TO.P,C25,2*%
%TO.N,GND*%
X75280000Y-111900000D03*
%TD*%
D22*
%TO.P,D13,1,K*%
%TO.N,GND*%
X113162500Y-112500000D03*
%TO.P,D13,2,A*%
%TO.N,Net-(D13-Pad2)*%
X115037500Y-112500000D03*
%TD*%
%TO.P,D8,1,K*%
%TO.N,GND*%
X73162500Y-107300000D03*
%TO.P,D8,2,A*%
%TO.N,Net-(D8-Pad2)*%
X75037500Y-107300000D03*
%TD*%
D21*
%TO.P,C12,1*%
%TO.N,+3V3*%
X79570000Y-118737500D03*
%TO.P,C12,2*%
%TO.N,GND*%
X80530000Y-118737500D03*
%TD*%
D24*
%TO.P,NT6,1,1*%
%TO.N,P1.12*%
X77212500Y-104690000D03*
%TO.P,NT6,2,2*%
%TO.N,STATUS_LED3*%
X76912500Y-104690000D03*
%TD*%
D25*
%TO.P,L1,1,1*%
%TO.N,V_USB*%
X121500000Y-113112500D03*
%TO.P,L1,2,2*%
%TO.N,V_USB_FILT*%
X121500000Y-114687500D03*
%TD*%
D24*
%TO.P,NT1,1,1*%
%TO.N,P0.13*%
X77212500Y-106790000D03*
%TO.P,NT1,2,2*%
%TO.N,BT_STATUS_LED*%
X76912500Y-106790000D03*
%TD*%
D17*
%TO.P,H4,1,1*%
%TO.N,GND*%
X128400000Y-123200000D03*
X126000000Y-125600000D03*
X124302944Y-124897056D03*
X127697056Y-124897056D03*
X126000000Y-120800000D03*
X123600000Y-123200000D03*
X127697056Y-121502944D03*
X124302944Y-121502944D03*
D16*
X126000000Y-123200000D03*
%TD*%
D26*
%TO.P,U5,1,IN*%
%TO.N,VCC*%
X79000000Y-123475000D03*
%TO.P,U5,2,GND*%
%TO.N,GND*%
X79950000Y-123475000D03*
%TO.P,U5,3,EN*%
%TO.N,3V3_EN*%
X80900000Y-123475000D03*
%TO.P,U5,4,BP*%
%TO.N,/BP*%
X80900000Y-121200000D03*
%TO.P,U5,5,OUT*%
%TO.N,+3V3*%
X79000000Y-121200000D03*
%TD*%
D27*
%TO.P,SW1,1,A*%
%TO.N,~{NRF_RESET}*%
X121375000Y-102050000D03*
X121375000Y-97750000D03*
%TO.P,SW1,2,B*%
%TO.N,GND*%
X119225000Y-97750000D03*
X119225000Y-102050000D03*
%TD*%
D14*
%TO.P,R6,1*%
%TO.N,/FB*%
X121700000Y-117490000D03*
%TO.P,R6,2*%
%TO.N,+5V*%
X121700000Y-118510000D03*
%TD*%
D28*
%TO.P,U7,1,I/O1*%
%TO.N,USB_D+*%
X120562500Y-108750000D03*
%TO.P,U7,2,GND*%
%TO.N,GND*%
X120562500Y-109700000D03*
%TO.P,U7,3,I/O2*%
%TO.N,USB_D-*%
X120562500Y-110650000D03*
%TO.P,U7,4,I/O2*%
%TO.N,USB_CONN_D-*%
X122837500Y-110650000D03*
%TO.P,U7,5,VBUS*%
%TO.N,V_USB*%
X122837500Y-109700000D03*
%TO.P,U7,6,I/O1*%
%TO.N,USB_CONN_D+*%
X122837500Y-108750000D03*
%TD*%
D24*
%TO.P,NT7,1,1*%
%TO.N,~{CHARGE}*%
X103750000Y-116150000D03*
%TO.P,NT7,2,2*%
%TO.N,P1.09*%
X103750000Y-115850000D03*
%TD*%
D14*
%TO.P,R11,1*%
%TO.N,STATUS_LED1*%
X76400000Y-100490000D03*
%TO.P,R11,2*%
%TO.N,Net-(D7-Pad2)*%
X76400000Y-101510000D03*
%TD*%
D10*
%TO.P,C10,1*%
%TO.N,+5V*%
X120100000Y-120980000D03*
%TO.P,C10,2*%
%TO.N,GND*%
X120100000Y-120020000D03*
%TD*%
D25*
%TO.P,L3,1,1*%
%TO.N,/DCCH*%
X103400000Y-109112500D03*
%TO.P,L3,2,2*%
%TO.N,VCC*%
X103400000Y-110687500D03*
%TD*%
D21*
%TO.P,C16,1*%
%TO.N,3V3A*%
X77220000Y-113400000D03*
%TO.P,C16,2*%
%TO.N,GND*%
X78180000Y-113400000D03*
%TD*%
D29*
%TO.P,U6,1,GND*%
%TO.N,GND*%
X95350000Y-96200000D03*
%TO.P,U6,2,GND*%
X95350000Y-97300000D03*
%TO.P,U6,3,P1.10*%
%TO.N,P1.10*%
X95350000Y-98100000D03*
%TO.P,U6,4,P1.11*%
%TO.N,P1.11*%
X95350000Y-99700000D03*
%TO.P,U6,5,P1.12*%
%TO.N,P1.12*%
X96250000Y-100100000D03*
%TO.P,U6,6,P1.13*%
%TO.N,P1.13*%
X95350000Y-100500000D03*
%TO.P,U6,7,P1.14*%
%TO.N,P1.14*%
X96250000Y-100900000D03*
%TO.P,U6,8,P1.15*%
%TO.N,P1.15*%
X95350000Y-101300000D03*
%TO.P,U6,9,P0.03/AIN1*%
%TO.N,AIN1*%
X96250000Y-101700000D03*
%TO.P,U6,10,P0.29/AIN5*%
%TO.N,AIN5*%
X95350000Y-102100000D03*
%TO.P,U6,11,P0.02/AIN0*%
%TO.N,AIN0*%
X96250000Y-102500000D03*
%TO.P,U6,12,P0.31/AIN7*%
%TO.N,AIN7*%
X95350000Y-102900000D03*
%TO.P,U6,13,P0.28/AIN4*%
%TO.N,AIN4*%
X96250000Y-103300000D03*
%TO.P,U6,14,P0.30/AIN6*%
%TO.N,AIN6*%
X95350000Y-103700000D03*
D30*
%TO.P,U6,15,GND*%
%TO.N,GND*%
X95200000Y-107100000D03*
%TO.P,U6,16,P0.27*%
%TO.N,/P0.27*%
X96000000Y-107100000D03*
%TO.P,U6,17,XL1/P0.00*%
%TO.N,/XL1*%
X96800000Y-107100000D03*
%TO.P,U6,18,XL2/P0.01*%
%TO.N,/XL2*%
X97600000Y-107100000D03*
%TO.P,U6,19,P0.26*%
%TO.N,P0.26*%
X98000000Y-106200000D03*
%TO.P,U6,20,P0.04/AIN2*%
%TO.N,AIN2*%
X98400000Y-107100000D03*
%TO.P,U6,21,P0.05/AIN3*%
%TO.N,AIN3*%
X98800000Y-106200000D03*
%TO.P,U6,22,P0.06*%
%TO.N,SCL*%
X99200000Y-107100000D03*
%TO.P,U6,23,TRACECLK/P0.07*%
%TO.N,P0.07*%
X99600000Y-106200000D03*
%TO.P,U6,24,P0.08*%
%TO.N,SDA*%
X100000000Y-107100000D03*
%TO.P,U6,25,P1.08*%
%TO.N,P1.08*%
X100400000Y-106200000D03*
%TO.P,U6,26,TRACEDATA3/P1.09*%
%TO.N,P1.09*%
X100800000Y-107100000D03*
%TO.P,U6,27,TRACEDATA2/P0.11*%
%TO.N,P0.11*%
X101200000Y-106200000D03*
%TO.P,U6,28,VDD*%
%TO.N,VCC*%
X101600000Y-107100000D03*
%TO.P,U6,29,TRACEDATA1/P0.12*%
%TO.N,P0.12*%
X102000000Y-106200000D03*
%TO.P,U6,30,VDDH*%
%TO.N,VCC*%
X102400000Y-107100000D03*
%TO.P,U6,31,DCCH*%
%TO.N,/DCCH*%
X103200000Y-107100000D03*
%TO.P,U6,32,VBUS*%
%TO.N,V_USB_FILT*%
X104000000Y-107100000D03*
%TO.P,U6,33,GND*%
%TO.N,GND*%
X104800000Y-107100000D03*
D29*
%TO.P,U6,34,D-*%
%TO.N,/D-*%
X104650000Y-106100000D03*
%TO.P,U6,35,D+*%
%TO.N,/D+*%
X104650000Y-105300000D03*
%TO.P,U6,36,P0.14*%
%TO.N,P0.14*%
X103750000Y-104900000D03*
%TO.P,U6,37,P0.13*%
%TO.N,P0.13*%
X104650000Y-104500000D03*
%TO.P,U6,38,P0.16*%
%TO.N,P0.16*%
X103750000Y-104100000D03*
%TO.P,U6,39,P0.15*%
%TO.N,P0.15*%
X104650000Y-103700000D03*
%TO.P,U6,40,~{RESET}/P0.18*%
%TO.N,~{NRF_RESET}*%
X103750000Y-103300000D03*
%TO.P,U6,41,P0.17*%
%TO.N,P0.17*%
X104650000Y-102900000D03*
%TO.P,U6,42,P0.19*%
%TO.N,P0.19*%
X103750000Y-102500000D03*
%TO.P,U6,43,P0.21*%
%TO.N,P0.21*%
X103750000Y-101700000D03*
%TO.P,U6,44,P0.20*%
%TO.N,P0.20*%
X104650000Y-101300000D03*
%TO.P,U6,45,P0.23*%
%TO.N,P0.23*%
X103750000Y-100900000D03*
%TO.P,U6,46,P0.22*%
%TO.N,P0.22*%
X104650000Y-100500000D03*
%TO.P,U6,47,TRACEDATA0/P1.00*%
%TO.N,NRF_SWO*%
X103750000Y-100100000D03*
%TO.P,U6,48,P0.24*%
%TO.N,P0.24*%
X104650000Y-99700000D03*
%TO.P,U6,49,P0.25*%
%TO.N,P0.25*%
X103750000Y-99300000D03*
%TO.P,U6,50,P1.02*%
%TO.N,P1.02*%
X103750000Y-98500000D03*
%TO.P,U6,51,SWDIO*%
%TO.N,SWDIO*%
X104650000Y-98100000D03*
%TO.P,U6,52,P0.09/NFC1*%
%TO.N,NFC1*%
X103750000Y-97700000D03*
%TO.P,U6,53,SWDCLK*%
%TO.N,SWDCLK*%
X104650000Y-97300000D03*
%TO.P,U6,54,P0.10/NFC2*%
%TO.N,NFC2*%
X103750000Y-96900000D03*
%TO.P,U6,55,GND*%
%TO.N,GND*%
X104650000Y-96200000D03*
D30*
%TO.P,U6,56,P1.04*%
%TO.N,P1.04*%
X98000000Y-100500000D03*
%TO.P,U6,57,P1.06*%
%TO.N,P1.06*%
X98800000Y-100500000D03*
%TO.P,U6,58,P1.07*%
%TO.N,P1.07*%
X99600000Y-100500000D03*
%TO.P,U6,59,P1.05*%
%TO.N,P1.05*%
X100400000Y-100500000D03*
%TO.P,U6,60,P1.03*%
%TO.N,P1.03*%
X101200000Y-100500000D03*
%TO.P,U6,61,P1.01*%
%TO.N,P1.01*%
X102000000Y-100500000D03*
%TD*%
D12*
%TO.P,D2,1,A1*%
%TO.N,VCC*%
X115950000Y-104400000D03*
%TO.P,D2,2,A2*%
%TO.N,GND*%
X113850000Y-104400000D03*
%TD*%
%TO.P,D6,1,A1*%
%TO.N,/~{NRF_RESET_CONN}*%
X110650000Y-96900000D03*
%TO.P,D6,2,A2*%
%TO.N,GND*%
X108550000Y-96900000D03*
%TD*%
D11*
%TO.P,R1,1*%
%TO.N,/AP9211_VM*%
X97400000Y-122210000D03*
%TO.P,R1,2*%
%TO.N,GND*%
X97400000Y-121190000D03*
%TD*%
D14*
%TO.P,R25,1*%
%TO.N,3V3_EN*%
X82250000Y-122827500D03*
%TO.P,R25,2*%
%TO.N,VCC*%
X82250000Y-123847500D03*
%TD*%
D21*
%TO.P,C11,1*%
%TO.N,+3V3*%
X79570000Y-119737500D03*
%TO.P,C11,2*%
%TO.N,GND*%
X80530000Y-119737500D03*
%TD*%
D22*
%TO.P,D10,1,K*%
%TO.N,GND*%
X73162500Y-105200000D03*
%TO.P,D10,2,A*%
%TO.N,Net-(D10-Pad2)*%
X75037500Y-105200000D03*
%TD*%
D10*
%TO.P,C19,1*%
%TO.N,GND*%
X101100000Y-109880000D03*
%TO.P,C19,2*%
%TO.N,VCC*%
X101100000Y-108920000D03*
%TD*%
D12*
%TO.P,D4,1,A1*%
%TO.N,/SWO_CONN*%
X110650000Y-98900000D03*
%TO.P,D4,2,A2*%
%TO.N,GND*%
X108550000Y-98900000D03*
%TD*%
D14*
%TO.P,R13,1*%
%TO.N,V_USB_CONNECTED*%
X120200000Y-114390000D03*
%TO.P,R13,2*%
%TO.N,V_USB_FILT*%
X120200000Y-115410000D03*
%TD*%
D21*
%TO.P,C18,1*%
%TO.N,V_USB_FILT*%
X104620000Y-108912500D03*
%TO.P,C18,2*%
%TO.N,GND*%
X105580000Y-108912500D03*
%TD*%
D31*
%TO.P,R16,1*%
%TO.N,USB_D+*%
X107210000Y-105200000D03*
%TO.P,R16,2*%
%TO.N,/D+*%
X106190000Y-105200000D03*
%TD*%
D14*
%TO.P,R10,1*%
%TO.N,/CC2*%
X123300000Y-105090000D03*
%TO.P,R10,2*%
%TO.N,GND*%
X123300000Y-106110000D03*
%TD*%
%TO.P,R17,1*%
%TO.N,GND*%
X120200000Y-112390000D03*
%TO.P,R17,2*%
%TO.N,V_USB_CONNECTED*%
X120200000Y-113410000D03*
%TD*%
D10*
%TO.P,C13,1*%
%TO.N,/BP*%
X82250000Y-121717500D03*
%TO.P,C13,2*%
%TO.N,GND*%
X82250000Y-120757500D03*
%TD*%
%TO.P,C6,1*%
%TO.N,+12V*%
X114200000Y-118780000D03*
%TO.P,C6,2*%
%TO.N,GND*%
X114200000Y-117820000D03*
%TD*%
D32*
%TO.P,Q1,1,G*%
%TO.N,GND*%
X110637500Y-111950000D03*
%TO.P,Q1,2,S*%
%TO.N,+12V*%
X110637500Y-110050000D03*
%TO.P,Q1,3,D*%
%TO.N,12V_CONN*%
X108762500Y-111000000D03*
%TD*%
%TO.P,Q4,1,G*%
%TO.N,BATT-*%
X92437500Y-117950000D03*
%TO.P,Q4,2,S*%
%TO.N,BATT+*%
X92437500Y-116050000D03*
%TO.P,Q4,3,D*%
%TO.N,BAT+_CONN*%
X90562500Y-117000000D03*
%TD*%
D24*
%TO.P,NT2,1,1*%
%TO.N,STATUS_LED2*%
X77012500Y-102590000D03*
%TO.P,NT2,2,2*%
%TO.N,P1.11*%
X77312500Y-102590000D03*
%TD*%
D11*
%TO.P,R8,1*%
%TO.N,GND*%
X120700000Y-118510000D03*
%TO.P,R8,2*%
%TO.N,/FB*%
X120700000Y-117490000D03*
%TD*%
D33*
%TO.P,L2,1,1*%
%TO.N,/SW*%
X115230000Y-124300000D03*
%TO.P,L2,2,2*%
%TO.N,+5V*%
X118930000Y-124300000D03*
%TD*%
D12*
%TO.P,D1,1,A1*%
%TO.N,GND*%
X107100000Y-111800000D03*
%TO.P,D1,2,A2*%
%TO.N,12V_CONN*%
X105000000Y-111800000D03*
%TD*%
D11*
%TO.P,R4,1*%
%TO.N,GND*%
X97312500Y-124610000D03*
%TO.P,R4,2*%
%TO.N,/PROG*%
X97312500Y-123590000D03*
%TD*%
D13*
%TO.P,R2,1*%
%TO.N,BATT_POWER*%
X97612500Y-118690000D03*
%TO.P,R2,2*%
%TO.N,BATT+*%
X95787500Y-118690000D03*
%TD*%
D28*
%TO.P,U3,1,~{CHARGE}*%
%TO.N,~{CHARGE}*%
X93612500Y-124050000D03*
%TO.P,U3,2,GND*%
%TO.N,GND*%
X93612500Y-125000000D03*
%TO.P,U3,3,BATT*%
%TO.N,BAT+_CONN*%
X93612500Y-125950000D03*
%TO.P,U3,4,VCC*%
%TO.N,+5V*%
X95887500Y-125950000D03*
%TO.P,U3,5,PROG*%
%TO.N,/PROG*%
X95887500Y-124050000D03*
%TD*%
D31*
%TO.P,R5,1*%
%TO.N,GND*%
X114210000Y-116400000D03*
%TO.P,R5,2*%
%TO.N,/12V__GATE_EN*%
X113190000Y-116400000D03*
%TD*%
D21*
%TO.P,C24,1*%
%TO.N,3V3A*%
X77220000Y-112400000D03*
%TO.P,C24,2*%
%TO.N,GND*%
X78180000Y-112400000D03*
%TD*%
D14*
%TO.P,R29,1*%
%TO.N,~{NRF_RESET}*%
X107400000Y-96390000D03*
%TO.P,R29,2*%
%TO.N,/~{NRF_RESET_CONN}*%
X107400000Y-97410000D03*
%TD*%
D21*
%TO.P,C2,1*%
%TO.N,V_USB_FILT*%
X121220000Y-115900000D03*
%TO.P,C2,2*%
%TO.N,GND*%
X122180000Y-115900000D03*
%TD*%
D14*
%TO.P,R20,1*%
%TO.N,SCL*%
X99100000Y-108890000D03*
%TO.P,R20,2*%
%TO.N,VCC*%
X99100000Y-109910000D03*
%TD*%
%TO.P,R9,1*%
%TO.N,/CC1*%
X123300000Y-113290000D03*
%TO.P,R9,2*%
%TO.N,GND*%
X123300000Y-114310000D03*
%TD*%
D22*
%TO.P,D16,1,K*%
%TO.N,~{CHARGE}*%
X100312500Y-126100000D03*
%TO.P,D16,2,A*%
%TO.N,Net-(D16-Pad2)*%
X102187500Y-126100000D03*
%TD*%
D14*
%TO.P,R26,1*%
%TO.N,SWDIO*%
X107400000Y-102390000D03*
%TO.P,R26,2*%
%TO.N,/SWDIO_CONN*%
X107400000Y-103410000D03*
%TD*%
D10*
%TO.P,C7,1*%
%TO.N,+12V*%
X113200000Y-118780000D03*
%TO.P,C7,2*%
%TO.N,GND*%
X113200000Y-117820000D03*
%TD*%
D34*
%TO.P,J6,1,1*%
%TO.N,BAT+_CONN*%
X86700000Y-119450000D03*
%TO.P,J6,2,2*%
%TO.N,BATT-*%
X88700000Y-119450000D03*
D35*
%TO.P,J6,S1,SHIELD*%
X84350000Y-125200000D03*
%TO.P,J6,S2,SHIELD*%
X91050000Y-125200000D03*
%TD*%
D21*
%TO.P,C21,1*%
%TO.N,/XL1*%
X94070000Y-110100000D03*
%TO.P,C21,2*%
%TO.N,GND*%
X95030000Y-110100000D03*
%TD*%
D36*
%TO.P,U1,1,S1*%
%TO.N,BATT-*%
X93650000Y-120900000D03*
D37*
%TO.P,U1,2,VSS*%
X93650000Y-121675000D03*
%TO.P,U1,3,VDD*%
%TO.N,VCC*%
X93650000Y-122275000D03*
%TO.P,U1,4,NC*%
%TO.N,unconnected-(U1-Pad4)*%
X96350000Y-122275000D03*
%TO.P,U1,5,VM*%
%TO.N,/AP9211_VM*%
X96350000Y-121675000D03*
D36*
%TO.P,U1,6,S2*%
%TO.N,GND*%
X96350000Y-120900000D03*
D38*
%TO.P,U1,7,NC*%
%TO.N,unconnected-(U1-Pad7)*%
X95000000Y-121500000D03*
%TD*%
D24*
%TO.P,NT5,1,1*%
%TO.N,P1.10*%
X77312500Y-100490000D03*
%TO.P,NT5,2,2*%
%TO.N,STATUS_LED1*%
X77012500Y-100490000D03*
%TD*%
D14*
%TO.P,R27,1*%
%TO.N,SWDCLK*%
X107400000Y-100390000D03*
%TO.P,R27,2*%
%TO.N,/SWDCLK_CONN*%
X107400000Y-101410000D03*
%TD*%
D12*
%TO.P,D3,1,A1*%
%TO.N,/SWDIO_CONN*%
X110650000Y-102900000D03*
%TO.P,D3,2,A2*%
%TO.N,GND*%
X108550000Y-102900000D03*
%TD*%
D11*
%TO.P,R30,1*%
%TO.N,~{CHARGE}*%
X99050000Y-126610000D03*
%TO.P,R30,2*%
%TO.N,+5V*%
X99050000Y-125590000D03*
%TD*%
D14*
%TO.P,R28,1*%
%TO.N,NRF_SWO*%
X107400000Y-98390000D03*
%TO.P,R28,2*%
%TO.N,/SWO_CONN*%
X107400000Y-99410000D03*
%TD*%
D15*
%TO.P,C8,1*%
%TO.N,/BST*%
X117580000Y-121000000D03*
%TO.P,C8,2*%
%TO.N,/SW*%
X116620000Y-121000000D03*
%TD*%
D24*
%TO.P,NT3,1,1*%
%TO.N,/P0.27*%
X99700000Y-114800000D03*
%TO.P,NT3,2,2*%
%TO.N,FUEL_ALRT*%
X99700000Y-115100000D03*
%TD*%
D39*
%TO.P,J1,1_1,1*%
%TO.N,12V_CONN*%
X106300000Y-124000000D03*
D40*
%TO.P,J1,1_2,1*%
X106300000Y-114750000D03*
D39*
%TO.P,J1,2_1,2*%
%TO.N,GND*%
X110300000Y-124000000D03*
D40*
%TO.P,J1,2_2,2*%
X110300000Y-114750000D03*
%TD*%
D10*
%TO.P,C4,1*%
%TO.N,VCC*%
X92600000Y-122180000D03*
%TO.P,C4,2*%
%TO.N,BATT-*%
X92600000Y-121220000D03*
%TD*%
D11*
%TO.P,R21,1*%
%TO.N,V_USB_FILT*%
X124100000Y-102010000D03*
%TO.P,R21,2*%
%TO.N,Net-(D12-Pad2)*%
X124100000Y-100990000D03*
%TD*%
D31*
%TO.P,R3,1*%
%TO.N,/12V__GATE_EN*%
X114210000Y-115400000D03*
%TO.P,R3,2*%
%TO.N,+12V*%
X113190000Y-115400000D03*
%TD*%
D41*
%TO.P,J3,A1,GNDA*%
%TO.N,GND*%
X125125000Y-112750000D03*
%TO.P,J3,A2,TX1_P*%
%TO.N,unconnected-(J3-PadA2)*%
X125125000Y-111950000D03*
%TO.P,J3,A3,TX1_N*%
%TO.N,unconnected-(J3-PadA3)*%
X125125000Y-111450000D03*
%TO.P,J3,A4,VBUS_A*%
%TO.N,V_USB*%
X125125000Y-110950000D03*
%TO.P,J3,A5,CC1*%
%TO.N,/CC1*%
X125125000Y-110450000D03*
%TO.P,J3,A6,DA_P*%
%TO.N,USB_CONN_D+*%
X125125000Y-109950000D03*
%TO.P,J3,A7,DA_N*%
%TO.N,USB_CONN_D-*%
X125125000Y-109450000D03*
%TO.P,J3,A8,SBU1*%
%TO.N,unconnected-(J3-PadA8)*%
X125125000Y-108950000D03*
%TO.P,J3,A9,VBUS_A*%
%TO.N,V_USB*%
X125125000Y-108450000D03*
%TO.P,J3,A10,RX2_N*%
%TO.N,unconnected-(J3-PadA10)*%
X125125000Y-107950000D03*
%TO.P,J3,A11,RX2_P*%
%TO.N,unconnected-(J3-PadA11)*%
X125125000Y-107450000D03*
%TO.P,J3,A12,GNDA*%
%TO.N,GND*%
X125125000Y-106650000D03*
%TO.P,J3,B1,GNDB*%
X126375000Y-106700000D03*
%TO.P,J3,B2,TX2_P*%
%TO.N,unconnected-(J3-PadB2)*%
X126375000Y-107200000D03*
%TO.P,J3,B3,TX2_N*%
%TO.N,unconnected-(J3-PadB3)*%
X126375000Y-107700000D03*
%TO.P,J3,B4,VBUS_B*%
%TO.N,V_USB*%
X126375000Y-108200000D03*
%TO.P,J3,B5,CC2*%
%TO.N,/CC2*%
X126375000Y-108700000D03*
%TO.P,J3,B6,DB_P*%
%TO.N,USB_CONN_D+*%
X126375000Y-109200000D03*
%TO.P,J3,B7,DB_N*%
%TO.N,USB_CONN_D-*%
X126375000Y-110200000D03*
%TO.P,J3,B8,SBU2*%
%TO.N,unconnected-(J3-PadB8)*%
X126375000Y-110700000D03*
%TO.P,J3,B9,VBUS_B*%
%TO.N,V_USB*%
X126375000Y-111200000D03*
%TO.P,J3,B10,RX1_N*%
%TO.N,unconnected-(J3-PadB10)*%
X126375000Y-111700000D03*
%TO.P,J3,B11,RX1_P*%
%TO.N,unconnected-(J3-PadB11)*%
X126375000Y-112200000D03*
%TO.P,J3,B12,GNDB*%
%TO.N,GND*%
X126375000Y-112700000D03*
D42*
%TO.P,J3,G1,GND*%
X125125000Y-113250000D03*
%TO.P,J3,G2,GND*%
X125125000Y-106150000D03*
D43*
%TO.P,J3,S1,SHIELD*%
%TO.N,unconnected-(J3-PadS1)*%
X128500000Y-114150000D03*
%TO.P,J3,S2,SHIELD*%
X128500000Y-105250000D03*
D44*
%TO.P,J3,S3,SHIELD*%
X125300000Y-114150000D03*
%TO.P,J3,S4,SHIELD*%
X125300000Y-105250000D03*
%TD*%
D10*
%TO.P,C9,1*%
%TO.N,+5V*%
X121100000Y-120980000D03*
%TO.P,C9,2*%
%TO.N,GND*%
X121100000Y-120020000D03*
%TD*%
D14*
%TO.P,R14,1*%
%TO.N,STATUS_LED2*%
X76400000Y-102590000D03*
%TO.P,R14,2*%
%TO.N,Net-(D9-Pad2)*%
X76400000Y-103610000D03*
%TD*%
D45*
%TO.P,D12,1,K*%
%TO.N,GND*%
X127237500Y-101500000D03*
%TO.P,D12,2,A*%
%TO.N,Net-(D12-Pad2)*%
X125362500Y-101500000D03*
%TD*%
D46*
%TO.P,J2,1,Pin_1*%
%TO.N,VCC*%
X116750000Y-102440000D03*
%TO.P,J2,2,Pin_2*%
%TO.N,/SWDIO_CONN*%
X112850000Y-102440000D03*
%TO.P,J2,3,Pin_3*%
%TO.N,GND*%
X116750000Y-101170000D03*
%TO.P,J2,4,Pin_4*%
%TO.N,/SWDCLK_CONN*%
X112850000Y-101170000D03*
%TO.P,J2,5,Pin_5*%
%TO.N,GND*%
X116750000Y-99900000D03*
%TO.P,J2,6,Pin_6*%
%TO.N,/SWO_CONN*%
X112850000Y-99900000D03*
%TO.P,J2,7,Pin_7*%
%TO.N,unconnected-(J2-Pad7)*%
X116750000Y-98630000D03*
%TO.P,J2,8,Pin_8*%
%TO.N,unconnected-(J2-Pad8)*%
X112850000Y-98630000D03*
%TO.P,J2,9,Pin_9*%
%TO.N,GND*%
X116750000Y-97360000D03*
%TO.P,J2,10,Pin_10*%
%TO.N,/~{NRF_RESET_CONN}*%
X112850000Y-97360000D03*
%TD*%
D24*
%TO.P,NT4,1,1*%
%TO.N,V_USB_CONNECTED*%
X119500000Y-113100000D03*
%TO.P,NT4,2,2*%
%TO.N,P0.26*%
X119500000Y-112800000D03*
%TD*%
D15*
%TO.P,C22,1*%
%TO.N,/XL2*%
X96930000Y-110100000D03*
%TO.P,C22,2*%
%TO.N,GND*%
X95970000Y-110100000D03*
%TD*%
D21*
%TO.P,C1,1*%
%TO.N,V_USB*%
X121220000Y-111900000D03*
%TO.P,C1,2*%
%TO.N,GND*%
X122180000Y-111900000D03*
%TD*%
D47*
%TO.P,R22,1*%
%TO.N,+12V*%
X113590000Y-114100000D03*
%TO.P,R22,2*%
%TO.N,Net-(D13-Pad2)*%
X114610000Y-114100000D03*
%TD*%
D10*
%TO.P,C27,1*%
%TO.N,+5V*%
X122100000Y-120980000D03*
%TO.P,C27,2*%
%TO.N,GND*%
X122100000Y-120020000D03*
%TD*%
D47*
%TO.P,R23,1*%
%TO.N,/12V EN*%
X116590000Y-116400000D03*
%TO.P,R23,2*%
%TO.N,+12V*%
X117610000Y-116400000D03*
%TD*%
D48*
%TO.P,Y1,1,1*%
%TO.N,/XL1*%
X94250000Y-111775000D03*
%TO.P,Y1,2,2*%
%TO.N,/XL2*%
X96750000Y-111775000D03*
%TD*%
D31*
%TO.P,R15,1*%
%TO.N,USB_D-*%
X107210000Y-106300000D03*
%TO.P,R15,2*%
%TO.N,/D-*%
X106190000Y-106300000D03*
%TD*%
D49*
%TO.P,Q2,1,G*%
%TO.N,/12V__GATE_EN*%
X124762500Y-116750000D03*
%TO.P,Q2,2,S*%
%TO.N,+5V*%
X124762500Y-118650000D03*
%TO.P,Q2,3,D*%
%TO.N,V_USB_FILT*%
X126637500Y-117700000D03*
%TD*%
D50*
%TO.P,C5,1*%
%TO.N,/FUEL_REG*%
X99500000Y-116240000D03*
%TO.P,C5,2*%
%TO.N,GND*%
X99500000Y-117200000D03*
%TD*%
D14*
%TO.P,R18,1*%
%TO.N,STATUS_LED3*%
X76400000Y-104690000D03*
%TO.P,R18,2*%
%TO.N,Net-(D10-Pad2)*%
X76400000Y-105710000D03*
%TD*%
D10*
%TO.P,C20,1*%
%TO.N,GND*%
X102100000Y-109880000D03*
%TO.P,C20,2*%
%TO.N,VCC*%
X102100000Y-108920000D03*
%TD*%
D22*
%TO.P,D7,1,K*%
%TO.N,GND*%
X73162500Y-101000000D03*
%TO.P,D7,2,A*%
%TO.N,Net-(D7-Pad2)*%
X75037500Y-101000000D03*
%TD*%
D32*
%TO.P,Q3,1,G*%
%TO.N,+5V*%
X100737500Y-122350000D03*
%TO.P,Q3,2,S*%
%TO.N,VCC*%
X100737500Y-120450000D03*
%TO.P,Q3,3,D*%
%TO.N,BATT_POWER*%
X98862500Y-121400000D03*
%TD*%
D14*
%TO.P,R19,1*%
%TO.N,SDA*%
X100100000Y-108890000D03*
%TO.P,R19,2*%
%TO.N,VCC*%
X100100000Y-109910000D03*
%TD*%
D51*
%TO.N,GND*%
X96000000Y-97100500D03*
X83800000Y-117600000D03*
X77800000Y-116600000D03*
X90300000Y-104000000D03*
X78800000Y-116600000D03*
X75800000Y-116600000D03*
X117200000Y-113125000D03*
X112800000Y-122600000D03*
X71800000Y-116600000D03*
X74600000Y-113900000D03*
X99500000Y-117820000D03*
X93700000Y-113100000D03*
X95200000Y-106400000D03*
X74600000Y-111900000D03*
X88200000Y-106100000D03*
X127800000Y-99600000D03*
X117800000Y-106275000D03*
X93450000Y-101800000D03*
X85800000Y-115600000D03*
X93900000Y-115600000D03*
X90800000Y-112600000D03*
X90800000Y-110600000D03*
D52*
X96500000Y-115400000D03*
D51*
X71800000Y-106600000D03*
X117200000Y-106275000D03*
X116800000Y-125600000D03*
X80600000Y-109900000D03*
X84800000Y-116600000D03*
X74900000Y-110600000D03*
X70800000Y-103600000D03*
X70800000Y-114600000D03*
X70800000Y-106600000D03*
X86800000Y-123600000D03*
X90800000Y-114600000D03*
X102000000Y-110500000D03*
X84800000Y-119600000D03*
X89800000Y-110600000D03*
X88900000Y-105400000D03*
X79800000Y-115600000D03*
X109600000Y-120584000D03*
X82800000Y-109875000D03*
X70800000Y-104600000D03*
X117800000Y-111925000D03*
X117800000Y-108675000D03*
X74000000Y-101000000D03*
X118800000Y-99900000D03*
X99800000Y-102600000D03*
X117200000Y-113725000D03*
X82800000Y-108675000D03*
X85800000Y-124600000D03*
X114600000Y-104400000D03*
X71800000Y-115600000D03*
X97000000Y-105200000D03*
X82800000Y-117600000D03*
X82800000Y-105675000D03*
X97700000Y-111200000D03*
X87800000Y-125600000D03*
X94100000Y-97100500D03*
X97600000Y-105200000D03*
X70800000Y-110600000D03*
X93450000Y-106800000D03*
X82200000Y-111900000D03*
X104800000Y-107700000D03*
X90800000Y-111600000D03*
X82200000Y-106275000D03*
X121400000Y-119400000D03*
X71800000Y-110600000D03*
X82200000Y-112500000D03*
X81150000Y-118737500D03*
X82200000Y-108675000D03*
X71800000Y-100600000D03*
X118800000Y-99100000D03*
X122900000Y-115900000D03*
X109600000Y-116900000D03*
X86800000Y-125600000D03*
X117200000Y-111325000D03*
X107800000Y-124600000D03*
X96000000Y-96300000D03*
X83800000Y-118600000D03*
X97700000Y-110500000D03*
X106000000Y-107700000D03*
X85800000Y-102600000D03*
X87500000Y-106800000D03*
D52*
X97000000Y-116400000D03*
D53*
X119600000Y-109700000D03*
D51*
X74000000Y-103100000D03*
X71800000Y-103600000D03*
D52*
X126350000Y-106200000D03*
D51*
X117800000Y-106875000D03*
X86800000Y-115600000D03*
X114300000Y-117200000D03*
X86800000Y-114600000D03*
X98000000Y-125350000D03*
X87800000Y-123600000D03*
X78800000Y-113400000D03*
D52*
X109600000Y-100900000D03*
D51*
X82200000Y-113700000D03*
X117200000Y-106875000D03*
X89800000Y-113600000D03*
X82800000Y-109275000D03*
X112800000Y-125600000D03*
X105300000Y-96300000D03*
X79950000Y-122437500D03*
X107800000Y-126600000D03*
X82800000Y-108075000D03*
X87800000Y-115600000D03*
X92450000Y-101950000D03*
X109800000Y-119600000D03*
D52*
X125750000Y-113200000D03*
D51*
X87800000Y-114600000D03*
X95350000Y-96750000D03*
X110300000Y-116900000D03*
D52*
X125750000Y-106200000D03*
D51*
X122900000Y-111900000D03*
X87800000Y-113600000D03*
X104800000Y-118600000D03*
X117200000Y-108075000D03*
X70800000Y-111600000D03*
X84700000Y-109600000D03*
X96600000Y-96300000D03*
X82200000Y-107475000D03*
X82800000Y-113100000D03*
X111000000Y-116900000D03*
X116800000Y-126600000D03*
X71800000Y-112600000D03*
X117800000Y-113125000D03*
X82800000Y-113700000D03*
X117800000Y-105675000D03*
X98500000Y-103700000D03*
X122100000Y-119400000D03*
X94400000Y-113100000D03*
X96300000Y-105800000D03*
X106000000Y-107100000D03*
X71800000Y-114600000D03*
X112800000Y-120600000D03*
X95100000Y-113100000D03*
D52*
X125750000Y-106700000D03*
D51*
X123300000Y-106800000D03*
X95200000Y-108300000D03*
X105400000Y-107100000D03*
X117200000Y-105675000D03*
D52*
X109600000Y-96900000D03*
D51*
X75600000Y-109900000D03*
X97300000Y-113100000D03*
X97700000Y-109800000D03*
X78800000Y-114600000D03*
X77800000Y-117600000D03*
X70800000Y-105600000D03*
D52*
X109550000Y-102900000D03*
D51*
X70800000Y-102600000D03*
X78600000Y-109900000D03*
X92750000Y-107500000D03*
X128400000Y-101500000D03*
X91700000Y-102600000D03*
D52*
X96500000Y-116400000D03*
D51*
X96600000Y-113100000D03*
X79600000Y-109900000D03*
X109800000Y-117600000D03*
X90800000Y-113600000D03*
X104800000Y-117600000D03*
X111000000Y-120584000D03*
X97700000Y-109100000D03*
X117200000Y-112525000D03*
X116800000Y-124600000D03*
X94100000Y-96300000D03*
X82800000Y-111900000D03*
X88800000Y-111600000D03*
X74000000Y-107300000D03*
X82800000Y-106875000D03*
X117800000Y-113725000D03*
X70800000Y-117600000D03*
X70800000Y-101600000D03*
X117800000Y-110725000D03*
X70800000Y-100600000D03*
X79800000Y-117600000D03*
D52*
X97000000Y-115900000D03*
D51*
X112800000Y-121600000D03*
X76800000Y-116600000D03*
X94500000Y-108400000D03*
X92050000Y-108200000D03*
X117200000Y-107475000D03*
X86800000Y-124600000D03*
D52*
X97000000Y-115400000D03*
D51*
X113100000Y-117200000D03*
X94700000Y-97100500D03*
X122800000Y-99600000D03*
X105800000Y-118600000D03*
X75800000Y-117600000D03*
X80800000Y-117600000D03*
X71800000Y-101600000D03*
X85800000Y-101600000D03*
X78800000Y-115600000D03*
D52*
X125750000Y-112700000D03*
D51*
X71800000Y-102600000D03*
X107800000Y-125600000D03*
X119600000Y-118800000D03*
D52*
X126350000Y-113200000D03*
D51*
X83800000Y-115600000D03*
X123300000Y-115000000D03*
X70800000Y-115600000D03*
X89800000Y-111600000D03*
X88800000Y-114600000D03*
X81150000Y-119737500D03*
X104000000Y-96300000D03*
X71800000Y-105600000D03*
X117800000Y-107475000D03*
X82200000Y-113100000D03*
X117800000Y-108075000D03*
X88800000Y-115600000D03*
X96600000Y-97100500D03*
X85400000Y-108900000D03*
D52*
X96500000Y-115900000D03*
D51*
X70800000Y-113600000D03*
X71800000Y-104600000D03*
X71800000Y-111600000D03*
X123800000Y-99600000D03*
X117800000Y-111325000D03*
X94200000Y-107000000D03*
X126800000Y-118600000D03*
X74000000Y-105200000D03*
X103400000Y-96300000D03*
X112800000Y-124600000D03*
X78800000Y-117600000D03*
X97700000Y-111900000D03*
X84800000Y-120600000D03*
X112800000Y-119600000D03*
X100800000Y-101600000D03*
X82800000Y-112500000D03*
X84800000Y-118600000D03*
X81800000Y-117600000D03*
X85800000Y-125600000D03*
X118800000Y-100600000D03*
X95150000Y-109500000D03*
X93300000Y-111900000D03*
X78800000Y-112400000D03*
X81050000Y-124937500D03*
X82200000Y-111300000D03*
X71800000Y-113600000D03*
X91350000Y-108900000D03*
X95200000Y-105800000D03*
D52*
X109600000Y-98900000D03*
D51*
X70800000Y-107600000D03*
X101200000Y-110500000D03*
X91000000Y-103300000D03*
X97600000Y-120600000D03*
X76800000Y-117600000D03*
X115075000Y-117025000D03*
X95850000Y-109500000D03*
X95900000Y-113100000D03*
X82250000Y-120137500D03*
X71800000Y-107600000D03*
X89800000Y-114600000D03*
X100800000Y-102600000D03*
X70800000Y-116600000D03*
X82200000Y-109875000D03*
X93300000Y-109800000D03*
X82200000Y-108075000D03*
X86100000Y-108200000D03*
X93300000Y-111200000D03*
X94150000Y-106100000D03*
X93300000Y-112600000D03*
X86800000Y-107500000D03*
X105400000Y-108300000D03*
X94687500Y-125000000D03*
X112800000Y-126600000D03*
X120200000Y-111769500D03*
X120800000Y-119400000D03*
X71800000Y-117600000D03*
X77600000Y-109900000D03*
D53*
X106350000Y-111800000D03*
D51*
X88800000Y-112600000D03*
X117800000Y-112525000D03*
X97700000Y-112600000D03*
X87800000Y-124600000D03*
X84800000Y-117600000D03*
X82200000Y-105675000D03*
X91350000Y-108900000D03*
X117200000Y-111925000D03*
X117200000Y-110725000D03*
X113700000Y-117200000D03*
X70800000Y-112600000D03*
X70800000Y-109600000D03*
X85800000Y-116600000D03*
X114000000Y-112500000D03*
X70800000Y-108600000D03*
X79800000Y-116600000D03*
X82200000Y-106875000D03*
X93300000Y-109100000D03*
X82800000Y-106275000D03*
X71800000Y-108600000D03*
X88800000Y-113600000D03*
X74800000Y-116600000D03*
X98012500Y-124750000D03*
X117300000Y-118800000D03*
X85800000Y-123600000D03*
X89600000Y-104700000D03*
X90800000Y-109600000D03*
X110300000Y-120584000D03*
X93900000Y-108700000D03*
D52*
X97600000Y-117100000D03*
D51*
X82200000Y-109275000D03*
X106000000Y-108300000D03*
X74600000Y-112900000D03*
X94700000Y-96300000D03*
X76600000Y-109900000D03*
X120100000Y-119400000D03*
X105900000Y-96300000D03*
X117200000Y-108675000D03*
X82800000Y-107475000D03*
X82800000Y-111300000D03*
X84800000Y-115600000D03*
X86800000Y-101600000D03*
X97000000Y-120600000D03*
X105800000Y-117600000D03*
X94450000Y-101800000D03*
X89800000Y-112600000D03*
X93300000Y-110500000D03*
X105400000Y-107700000D03*
X71800000Y-109600000D03*
D54*
%TO.N,VCC*%
X118318432Y-104325500D03*
X101300000Y-119300000D03*
X110700000Y-118600000D03*
X78500000Y-125400000D03*
X126200000Y-103300000D03*
D53*
%TO.N,+5V*%
X103000000Y-123900000D03*
D51*
X121800000Y-122100000D03*
D54*
%TO.N,+3V3*%
X82300000Y-104600000D03*
D51*
%TO.N,3V3A*%
X80600000Y-110575000D03*
X79600000Y-110575000D03*
%TO.N,NRF_SWO*%
X108009250Y-98153376D03*
X102900000Y-100100000D03*
%TO.N,~{NRF_RESET}*%
X102900000Y-103300000D03*
%TO.N,USB_CONN_D+*%
X127442735Y-109300000D03*
D52*
X124063613Y-109375000D03*
%TO.N,USB_CONN_D-*%
X124063613Y-110025000D03*
D51*
X127442735Y-110100000D03*
D52*
%TO.N,/CC2*%
X127500000Y-107600000D03*
X127100000Y-108700000D03*
D51*
%TO.N,SCL*%
X99200000Y-108000000D03*
%TO.N,SDA*%
X100000000Y-108000000D03*
%TO.N,AIN2*%
X80600000Y-111500000D03*
%TO.N,P1.09*%
X103900000Y-113000000D03*
X100800000Y-108000000D03*
%TO.N,P0.26*%
X97400000Y-106200000D03*
X119400000Y-112150000D03*
%TO.N,AIN3*%
X80600000Y-112200000D03*
%TO.N,P1.08*%
X100400000Y-105500000D03*
%TO.N,P0.11*%
X101200000Y-105500000D03*
%TO.N,P0.12*%
X102000000Y-105500000D03*
%TO.N,AIN6*%
X92800000Y-104100000D03*
%TO.N,AIN7*%
X92000000Y-104100000D03*
%TO.N,AIN5*%
X91200000Y-104100000D03*
%TO.N,P1.15*%
X89200000Y-104100000D03*
%TO.N,P1.13*%
X87800000Y-104100000D03*
%TO.N,P1.11*%
X86400000Y-104100000D03*
%TO.N,AIN4*%
X97000000Y-103300000D03*
%TO.N,AIN0*%
X97000000Y-102500000D03*
%TO.N,AIN1*%
X97000000Y-101700000D03*
%TO.N,P1.14*%
X88500000Y-104100000D03*
%TO.N,P1.12*%
X87100000Y-104100000D03*
%TO.N,P0.14*%
X102900000Y-105100000D03*
%TO.N,P0.19*%
X102900000Y-102500000D03*
%TO.N,P0.21*%
X102900000Y-101700000D03*
%TO.N,P0.23*%
X102900000Y-100900000D03*
%TO.N,P0.25*%
X102900000Y-99300000D03*
%TO.N,P1.02*%
X102900000Y-98500000D03*
%TO.N,NFC1*%
X102900000Y-97700000D03*
%TO.N,NFC2*%
X102900000Y-96900000D03*
%TO.N,P0.17*%
X106050000Y-102950000D03*
%TO.N,P0.20*%
X105400000Y-101300000D03*
%TO.N,P0.22*%
X105400000Y-100500000D03*
%TO.N,P0.24*%
X105400000Y-99700000D03*
%TO.N,P1.10*%
X85700000Y-104100000D03*
%TO.N,P1.04*%
X98000000Y-101200000D03*
%TO.N,P1.06*%
X98800000Y-101200000D03*
%TO.N,P1.07*%
X99600000Y-101200000D03*
%TO.N,P1.05*%
X100400000Y-99800000D03*
%TO.N,P1.03*%
X101200000Y-99800000D03*
%TO.N,P1.01*%
X102000000Y-99800000D03*
%TO.N,P0.16*%
X102100000Y-104100000D03*
%TO.N,P0.13*%
X105400000Y-104500000D03*
X101500000Y-104700000D03*
X83600000Y-100900000D03*
%TO.N,P0.15*%
X105400000Y-103700000D03*
%TO.N,P0.07*%
X99600000Y-105500000D03*
%TO.N,/P0.27*%
X99700000Y-114400000D03*
X97600000Y-113900000D03*
%TO.N,~{CHARGE}*%
X101150000Y-126000000D03*
X94612500Y-124100000D03*
X103750000Y-116800000D03*
%TD*%
D55*
%TO.N,V_USB_FILT*%
X125900000Y-116000000D02*
X126437500Y-116537500D01*
X123700000Y-116000000D02*
X125900000Y-116000000D01*
X123200000Y-116500000D02*
X123700000Y-116000000D01*
X121220000Y-116320000D02*
X121400000Y-116500000D01*
X126437500Y-116537500D02*
X126637500Y-116537500D01*
X121220000Y-115900000D02*
X121220000Y-116320000D01*
X121400000Y-116500000D02*
X123200000Y-116500000D01*
X124100000Y-102500000D02*
X124100000Y-102010000D01*
X124200000Y-102600000D02*
X124100000Y-102500000D01*
X127200000Y-102600000D02*
X124200000Y-102600000D01*
X127500000Y-102900000D02*
X127200000Y-102600000D01*
X127100000Y-104600000D02*
X127500000Y-104200000D01*
X129500000Y-111300000D02*
X129500000Y-108000000D01*
X129500000Y-108000000D02*
X127100000Y-105600000D01*
X126800000Y-114000000D02*
X129500000Y-111300000D01*
X126800000Y-116375000D02*
X126800000Y-114000000D01*
X127100000Y-105600000D02*
X127100000Y-104600000D01*
X126637500Y-116537500D02*
X126800000Y-116375000D01*
X127500000Y-104200000D02*
X127500000Y-102900000D01*
D56*
%TO.N,/CC2*%
X123300000Y-104600000D02*
X123300000Y-105090000D01*
X123500000Y-104400000D02*
X123300000Y-104600000D01*
X126200000Y-104400000D02*
X123500000Y-104400000D01*
X126500000Y-105700000D02*
X126500000Y-104700000D01*
X127500000Y-106700000D02*
X126500000Y-105700000D01*
X126500000Y-104700000D02*
X126200000Y-104400000D01*
X127500000Y-107600000D02*
X127500000Y-106700000D01*
D55*
%TO.N,GND*%
X123300000Y-114310000D02*
X123300000Y-115000000D01*
X93900000Y-116210000D02*
X93900000Y-115600000D01*
D57*
X84350000Y-109875000D02*
X82800000Y-109875000D01*
D55*
X122180000Y-115900000D02*
X122900000Y-115900000D01*
D57*
X95050000Y-105800000D02*
X95750000Y-105800000D01*
X91400000Y-102900000D02*
X92075735Y-102224265D01*
D58*
X113162500Y-112500000D02*
X114000000Y-112500000D01*
D55*
X127237500Y-101500000D02*
X128400000Y-101500000D01*
D57*
X94450000Y-101800000D02*
X93800000Y-101800000D01*
X82800000Y-109875000D02*
X84425000Y-109875000D01*
D59*
X73162500Y-101000000D02*
X74000000Y-101000000D01*
D58*
X99500000Y-117820000D02*
X99500000Y-117200000D01*
D59*
X108550000Y-102900000D02*
X109550000Y-102900000D01*
D55*
X122800000Y-111800000D02*
X122900000Y-111900000D01*
X122180000Y-111900000D02*
X122700000Y-111900000D01*
X123300000Y-106110000D02*
X123300000Y-106800000D01*
D60*
X107100000Y-111800000D02*
X106350000Y-111800000D01*
D57*
X90800000Y-109600000D02*
X90800000Y-109452361D01*
D55*
X120200000Y-112390000D02*
X120200000Y-111769500D01*
D61*
X94687500Y-125000000D02*
X93612500Y-125000000D01*
D59*
X108550000Y-98900000D02*
X109600000Y-98900000D01*
X73162500Y-105200000D02*
X74000000Y-105200000D01*
D57*
X90800000Y-109452361D02*
X94107434Y-106144927D01*
X94450000Y-101800000D02*
X93100000Y-101800000D01*
D59*
X73162500Y-103100000D02*
X74000000Y-103100000D01*
D55*
X122700000Y-111900000D02*
X122800000Y-111800000D01*
D61*
X120662500Y-109700000D02*
X119600000Y-109700000D01*
D59*
X73162500Y-107300000D02*
X74000000Y-107300000D01*
X108550000Y-100900000D02*
X109600000Y-100900000D01*
X108550000Y-96900000D02*
X109600000Y-96900000D01*
X113850000Y-104400000D02*
X114600000Y-104400000D01*
D57*
X91400000Y-102900000D02*
X84900000Y-109400000D01*
X84478033Y-109821967D02*
X84900000Y-109400000D01*
X95050000Y-105799973D02*
G75*
G03*
X94107435Y-106144928I4100J-1471427D01*
G01*
X84478036Y-109821970D02*
G75*
G02*
X84420042Y-109863028I-173136J183070D01*
G01*
X93100000Y-101799992D02*
G75*
G03*
X92075735Y-102224265I0J-1448508D01*
G01*
D55*
%TO.N,V_USB*%
X128200000Y-110500000D02*
X128200000Y-108900000D01*
X126375000Y-108200000D02*
X125925000Y-108200000D01*
X125125000Y-108450000D02*
X125675000Y-108450000D01*
D60*
X123900000Y-108000000D02*
X121900000Y-108000000D01*
X122000000Y-109700000D02*
X122837500Y-109700000D01*
D55*
X125675000Y-110950000D02*
X125925000Y-111200000D01*
X127500000Y-111200000D02*
X128200000Y-110500000D01*
X127500000Y-111200000D02*
X126375000Y-111200000D01*
D60*
X121700000Y-108200000D02*
X121700000Y-109400000D01*
X121700000Y-109400000D02*
X122000000Y-109700000D01*
D55*
X125125000Y-108450000D02*
X124350000Y-108450000D01*
X125925000Y-111200000D02*
X126375000Y-111200000D01*
D60*
X121700000Y-110900000D02*
X121220000Y-111380000D01*
X121700000Y-109400000D02*
X121700000Y-110000000D01*
D55*
X125125000Y-110950000D02*
X125675000Y-110950000D01*
X128200000Y-108900000D02*
X127500000Y-108200000D01*
D60*
X123900000Y-108000000D02*
X124350000Y-108450000D01*
X124350000Y-108450000D02*
X124650000Y-108450000D01*
D55*
X127500000Y-108200000D02*
X126375000Y-108200000D01*
D60*
X121700000Y-110000000D02*
X122000000Y-109700000D01*
X122100000Y-109700000D02*
X122837500Y-109700000D01*
X121700000Y-110000000D02*
X121700000Y-110900000D01*
X121220000Y-111380000D02*
X121220000Y-111900000D01*
D55*
X125675000Y-108450000D02*
X125925000Y-108200000D01*
D60*
X121900000Y-108000000D02*
X121700000Y-108200000D01*
D59*
%TO.N,V_USB_FILT*%
X115900000Y-114000000D02*
X116254000Y-114354000D01*
X104620000Y-108912500D02*
X104620000Y-109420000D01*
X118554000Y-114354000D02*
X119610000Y-115410000D01*
X115900000Y-110500000D02*
X115900000Y-114000000D01*
X104900000Y-109700000D02*
X107400000Y-109700000D01*
D55*
X126637500Y-116537500D02*
X126637500Y-117700000D01*
D59*
X114700000Y-109300000D02*
X115900000Y-110500000D01*
X119610000Y-115410000D02*
X120200000Y-115410000D01*
X116254000Y-114354000D02*
X118554000Y-114354000D01*
X104620000Y-109420000D02*
X104900000Y-109700000D01*
X107800000Y-109300000D02*
X114700000Y-109300000D01*
D60*
X104000000Y-108292500D02*
X104000000Y-107100000D01*
X104000000Y-108292500D02*
X104620000Y-108912500D01*
D59*
X107400000Y-109700000D02*
X107800000Y-109300000D01*
%TO.N,VCC*%
X92600000Y-122600000D02*
X93000000Y-123000000D01*
D58*
X102600000Y-112900000D02*
X102600000Y-112800000D01*
X102000000Y-112900000D02*
X102350000Y-112900000D01*
D61*
X103400000Y-110687500D02*
X103400000Y-112000000D01*
D58*
X102350000Y-112900000D02*
X102350000Y-113250000D01*
D56*
X82250000Y-124237500D02*
X81750000Y-124737500D01*
D58*
X115360000Y-102440000D02*
X115200000Y-102600000D01*
D59*
X92600000Y-122180000D02*
X92600000Y-122600000D01*
D58*
X118243932Y-104400000D02*
X118318432Y-104325500D01*
X102350000Y-112900000D02*
X102600000Y-112900000D01*
D56*
X81750000Y-124737500D02*
X81650000Y-124837500D01*
D58*
X115200000Y-102600000D02*
X115200000Y-104300000D01*
D61*
X102000000Y-120000000D02*
X101300000Y-119300000D01*
D58*
X115200000Y-104300000D02*
X115300000Y-104400000D01*
D61*
X102900000Y-120000000D02*
X107500000Y-120000000D01*
D58*
X100100000Y-111000000D02*
X102000000Y-112900000D01*
D61*
X102450000Y-119550000D02*
X102450000Y-113700000D01*
D58*
X102350000Y-113250000D02*
X102450000Y-113350000D01*
D56*
X79150000Y-125337500D02*
X79150000Y-124937500D01*
D58*
X115950000Y-104400000D02*
X118243932Y-104400000D01*
D61*
X102450000Y-112950000D02*
X102900000Y-112500000D01*
D58*
X102600000Y-112800000D02*
X102900000Y-112500000D01*
D61*
X108600000Y-118900000D02*
X108900000Y-118600000D01*
D56*
X81650000Y-125437500D02*
X81450000Y-125637500D01*
D61*
X102900000Y-120000000D02*
X102450000Y-119550000D01*
D58*
X101100000Y-108920000D02*
X101090000Y-108920000D01*
D59*
X98700000Y-123000000D02*
X100737500Y-120962500D01*
D61*
X79007500Y-125400000D02*
X79470000Y-124937500D01*
X78500000Y-125400000D02*
X79007500Y-125400000D01*
X107500000Y-120000000D02*
X108600000Y-118900000D01*
D58*
X115300000Y-104400000D02*
X115950000Y-104400000D01*
D56*
X79450000Y-125637500D02*
X79250000Y-125437500D01*
D61*
X102450000Y-113700000D02*
X102450000Y-113350000D01*
D59*
X93000000Y-123000000D02*
X98700000Y-123000000D01*
D56*
X79250000Y-125437500D02*
X79150000Y-125337500D01*
X81650000Y-125137500D02*
X81650000Y-125437500D01*
D61*
X108900000Y-118600000D02*
X110700000Y-118600000D01*
D58*
X102000000Y-112900000D02*
X102450000Y-113350000D01*
X116750000Y-102440000D02*
X115360000Y-102440000D01*
X102450000Y-113350000D02*
X102450000Y-112950000D01*
X101090000Y-108920000D02*
X100100000Y-109910000D01*
D61*
X122774500Y-104325500D02*
X118318432Y-104325500D01*
D56*
X82250000Y-123847500D02*
X82250000Y-124237500D01*
X81650000Y-124837500D02*
X81650000Y-125137500D01*
D61*
X123800000Y-103300000D02*
X122774500Y-104325500D01*
X126200000Y-103300000D02*
X123800000Y-103300000D01*
X103400000Y-112000000D02*
X102900000Y-112500000D01*
D58*
X102120000Y-108920000D02*
X102100000Y-108920000D01*
D59*
X100737500Y-120962500D02*
X100737500Y-120450000D01*
D56*
X81450000Y-125637500D02*
X79450000Y-125637500D01*
D61*
X102450000Y-113700000D02*
X102450000Y-112950000D01*
X102900000Y-120000000D02*
X102000000Y-120000000D01*
D58*
X100100000Y-109910000D02*
X100100000Y-111000000D01*
D62*
%TO.N,/FUEL_REG*%
X98800000Y-115900000D02*
X99140000Y-116240000D01*
X98187500Y-115900000D02*
X98800000Y-115900000D01*
X99140000Y-116240000D02*
X99500000Y-116240000D01*
D63*
%TO.N,+12V*%
X116800000Y-117200000D02*
X117100000Y-116900000D01*
X117610000Y-116790000D02*
X117610000Y-116400000D01*
X117100000Y-116900000D02*
X117500000Y-116900000D01*
D61*
X112000000Y-114000000D02*
X112000000Y-115400000D01*
D58*
X113590000Y-114100000D02*
X112100000Y-114100000D01*
D63*
X115730000Y-118800000D02*
X116700000Y-118800000D01*
D61*
X112000000Y-115400000D02*
X112000000Y-118100000D01*
D58*
X113190000Y-115400000D02*
X112000000Y-115400000D01*
D63*
X116800000Y-118700000D02*
X116800000Y-117200000D01*
D61*
X112000000Y-110100000D02*
X112000000Y-114000000D01*
X112680000Y-118780000D02*
X112100000Y-118200000D01*
D63*
X117500000Y-116900000D02*
X117610000Y-116790000D01*
D61*
X111950000Y-110050000D02*
X112000000Y-110100000D01*
D58*
X112100000Y-114100000D02*
X112000000Y-114000000D01*
D61*
X112000000Y-118100000D02*
X112680000Y-118780000D01*
X113200000Y-118780000D02*
X112680000Y-118780000D01*
D63*
X116700000Y-118800000D02*
X116800000Y-118700000D01*
D61*
X110637500Y-110050000D02*
X111950000Y-110050000D01*
%TO.N,+5V*%
X100400000Y-123900000D02*
X99050000Y-125250000D01*
D57*
X98020000Y-126480000D02*
X98910000Y-125590000D01*
X97312500Y-126480000D02*
X98020000Y-126480000D01*
D61*
X103000000Y-123900000D02*
X100400000Y-123900000D01*
X99050000Y-125250000D02*
X99050000Y-125590000D01*
X96850000Y-126100000D02*
X96850000Y-126300000D01*
D56*
X122520000Y-120980000D02*
X122100000Y-120980000D01*
X122800000Y-120700000D02*
X122520000Y-120980000D01*
D55*
X103000000Y-123900000D02*
X103300000Y-124200000D01*
D61*
X122100000Y-120980000D02*
X122100000Y-121800000D01*
D56*
X122510000Y-118510000D02*
X122800000Y-118800000D01*
D61*
X122100000Y-121800000D02*
X121800000Y-122100000D01*
D56*
X122800000Y-118800000D02*
X122800000Y-120700000D01*
D55*
X103300000Y-124200000D02*
X103300000Y-125590000D01*
D57*
X98910000Y-125590000D02*
X99050000Y-125590000D01*
D61*
X95887500Y-125950000D02*
X96700000Y-125950000D01*
X96850000Y-126300000D02*
X97030000Y-126480000D01*
X97030000Y-126480000D02*
X97350000Y-126480000D01*
X96700000Y-125950000D02*
X96850000Y-126100000D01*
D56*
X121700000Y-118510000D02*
X122510000Y-118510000D01*
D61*
%TO.N,+3V3*%
X76100000Y-108900000D02*
X76800000Y-108900000D01*
X73400000Y-115000000D02*
X73400000Y-110000000D01*
X76800000Y-108900000D02*
X81100000Y-104600000D01*
X73400000Y-110000000D02*
X74500000Y-108900000D01*
X81100000Y-104600000D02*
X82300000Y-104600000D01*
D57*
X73400000Y-117100000D02*
X73400000Y-115700000D01*
X79570000Y-118737500D02*
X75037500Y-118737500D01*
D61*
X74500000Y-108900000D02*
X76100000Y-108900000D01*
D57*
X73400000Y-115700000D02*
X73750000Y-115350000D01*
D61*
X74787500Y-115350000D02*
X73750000Y-115350000D01*
X73750000Y-115350000D02*
X73400000Y-115000000D01*
D57*
X75037500Y-118737500D02*
X73400000Y-117100000D01*
D55*
%TO.N,/XL1*%
X94800000Y-108900000D02*
X96200000Y-108900000D01*
X96200000Y-108900000D02*
X96800000Y-108300000D01*
X94070000Y-110100000D02*
X94070000Y-110620000D01*
X94070000Y-110100000D02*
X94070000Y-109630000D01*
X94250000Y-111775000D02*
X94250000Y-110800000D01*
X94070000Y-109630000D02*
X94800000Y-108900000D01*
X96800000Y-108300000D02*
X96800000Y-107100000D01*
X94070000Y-110620000D02*
X94250000Y-110800000D01*
%TO.N,/XL2*%
X97600000Y-108400000D02*
X97600000Y-107100000D01*
X96930000Y-109070000D02*
X96930000Y-110100000D01*
X96750000Y-110800000D02*
X96750000Y-111775000D01*
X96930000Y-110100000D02*
X96930000Y-110620000D01*
X96930000Y-110620000D02*
X96750000Y-110800000D01*
X97600000Y-108400000D02*
X96930000Y-109070000D01*
D61*
%TO.N,12V_CONN*%
X105200000Y-112500000D02*
X106060050Y-112500000D01*
X105000000Y-111800000D02*
X105000000Y-112300000D01*
X105000000Y-111200000D02*
X105200000Y-111000000D01*
X106300000Y-112739950D02*
X106300000Y-114750000D01*
X106060050Y-112500000D02*
X106300000Y-112739950D01*
X105000000Y-112300000D02*
X105200000Y-112500000D01*
X105200000Y-111000000D02*
X108762500Y-111000000D01*
X105000000Y-111800000D02*
X105000000Y-111200000D01*
D62*
%TO.N,SWDIO*%
X106100000Y-101900000D02*
X106100000Y-98300000D01*
X107400000Y-102390000D02*
X106590000Y-102390000D01*
X106100000Y-98300000D02*
X105900000Y-98100000D01*
X105900000Y-98100000D02*
X104650000Y-98100000D01*
X106590000Y-102390000D02*
X106100000Y-101900000D01*
%TO.N,NRF_SWO*%
X103750000Y-100100000D02*
X102900000Y-100100000D01*
X107636624Y-98153376D02*
X107400000Y-98390000D01*
X108009250Y-98153376D02*
X107636624Y-98153376D01*
%TO.N,SWDCLK*%
X105800000Y-97300000D02*
X106600000Y-98100000D01*
X106600000Y-98100000D02*
X106600000Y-100100000D01*
X106600000Y-100100000D02*
X106900000Y-100400000D01*
X104650000Y-97300000D02*
X105800000Y-97300000D01*
X106900000Y-100400000D02*
X107390000Y-100400000D01*
X107390000Y-100400000D02*
X107400000Y-100390000D01*
D56*
%TO.N,~{NRF_RESET}*%
X121000000Y-96400000D02*
X121300000Y-96700000D01*
D61*
X121375000Y-97750000D02*
X121375000Y-102050000D01*
D62*
X105650000Y-103200000D02*
X106450000Y-104000000D01*
X103750000Y-103300000D02*
X102900000Y-103300000D01*
X114800000Y-96880000D02*
X114310000Y-96390000D01*
X114800000Y-102400000D02*
X114800000Y-96880000D01*
X121375000Y-96775000D02*
X121000000Y-96400000D01*
X106450000Y-104000000D02*
X113200000Y-104000000D01*
X105100000Y-103200000D02*
X105650000Y-103200000D01*
X120990000Y-96390000D02*
X121375000Y-96775000D01*
X107400000Y-96390000D02*
X114310000Y-96390000D01*
X121375000Y-96775000D02*
X121375000Y-97750000D01*
X113200000Y-104000000D02*
X114800000Y-102400000D01*
X114310000Y-96390000D02*
X120990000Y-96390000D01*
X105000000Y-103300000D02*
X105100000Y-103200000D01*
X103750000Y-103300000D02*
X105000000Y-103300000D01*
D59*
%TO.N,Net-(D7-Pad2)*%
X76010000Y-101510000D02*
X75850000Y-101350000D01*
X75850000Y-101350000D02*
X75850000Y-101200000D01*
X75037500Y-101000000D02*
X75650000Y-101000000D01*
X75850000Y-101200000D02*
X75650000Y-101000000D01*
X76010000Y-101510000D02*
X76400000Y-101510000D01*
%TO.N,Net-(D8-Pad2)*%
X76010000Y-107810000D02*
X75900000Y-107700000D01*
X75900000Y-107700000D02*
X75900000Y-107500000D01*
X75037500Y-107300000D02*
X75700000Y-107300000D01*
X75700000Y-107300000D02*
X75900000Y-107500000D01*
X76010000Y-107810000D02*
X76400000Y-107810000D01*
%TO.N,Net-(D9-Pad2)*%
X75700000Y-103100000D02*
X75900000Y-103300000D01*
X75900000Y-103300000D02*
X75900000Y-103500000D01*
X76010000Y-103610000D02*
X75900000Y-103500000D01*
X75037500Y-103100000D02*
X75700000Y-103100000D01*
X76010000Y-103610000D02*
X76400000Y-103610000D01*
%TO.N,Net-(D10-Pad2)*%
X76010000Y-105710000D02*
X75900000Y-105600000D01*
X75700000Y-105200000D02*
X75900000Y-105400000D01*
X76010000Y-105710000D02*
X76400000Y-105710000D01*
X75037500Y-105200000D02*
X75700000Y-105200000D01*
X75900000Y-105600000D02*
X75900000Y-105400000D01*
D55*
%TO.N,/CC1*%
X123800000Y-111400000D02*
X123800000Y-112300000D01*
X124750000Y-110450000D02*
X123800000Y-111400000D01*
X123300000Y-112800000D02*
X123800000Y-112300000D01*
X123300000Y-113290000D02*
X123300000Y-112800000D01*
X125125000Y-110450000D02*
X124750000Y-110450000D01*
D59*
%TO.N,USB_CONN_D+*%
X126937501Y-109200000D02*
X127212501Y-109475000D01*
X126375000Y-109200000D02*
X126937501Y-109200000D01*
X124063613Y-109263613D02*
X123550000Y-108750000D01*
D56*
X124063613Y-109375000D02*
X124075000Y-109375000D01*
X124075000Y-109375000D02*
X124650000Y-109950000D01*
D59*
X127267736Y-109474999D02*
X127442735Y-109300000D01*
D56*
X124650000Y-109950000D02*
X125125000Y-109950000D01*
D59*
X123550000Y-108750000D02*
X122837500Y-108750000D01*
X124063613Y-109375000D02*
X124063613Y-109263613D01*
X127212501Y-109475000D02*
X127267736Y-109474999D01*
D56*
%TO.N,USB_CONN_D-*%
X125800000Y-109600000D02*
X125650000Y-109450000D01*
D59*
X123650000Y-110650000D02*
X122837500Y-110650000D01*
X124063613Y-110236387D02*
X123650000Y-110650000D01*
D56*
X125650000Y-109450000D02*
X125125000Y-109450000D01*
X126000000Y-110200000D02*
X125800000Y-110000000D01*
D59*
X126375000Y-110200000D02*
X126937501Y-110200000D01*
D56*
X126375000Y-110200000D02*
X126000000Y-110200000D01*
D59*
X124063613Y-110025000D02*
X124063613Y-110236387D01*
X126937501Y-110200000D02*
X127212501Y-109925000D01*
X127267736Y-109925001D02*
X127442735Y-110100000D01*
D56*
X125800000Y-110000000D02*
X125800000Y-109600000D01*
D59*
X127212501Y-109925000D02*
X127267736Y-109925001D01*
D56*
%TO.N,/CC2*%
X126375000Y-108700000D02*
X127100000Y-108700000D01*
D60*
%TO.N,/DCCH*%
X103200000Y-108200000D02*
X103400000Y-108400000D01*
X103200000Y-108200000D02*
X103200000Y-107100000D01*
X103400000Y-108400000D02*
X103400000Y-109112500D01*
D58*
%TO.N,/AP9211_VM*%
X96350000Y-121675000D02*
X96865000Y-121675000D01*
X96865000Y-121675000D02*
X97400000Y-122210000D01*
D55*
%TO.N,/PROG*%
X96850000Y-123700000D02*
X96850000Y-123900000D01*
X96700000Y-124050000D02*
X95887500Y-124050000D01*
X97350000Y-123590000D02*
X96960000Y-123590000D01*
X96850000Y-123900000D02*
X96700000Y-124050000D01*
X96960000Y-123590000D02*
X96850000Y-123700000D01*
D62*
%TO.N,STATUS_LED1*%
X76400000Y-100490000D02*
X77012500Y-100490000D01*
%TO.N,BT_STATUS_LED*%
X76400000Y-106790000D02*
X76912500Y-106790000D01*
%TO.N,V_USB_CONNECTED*%
X119610000Y-113410000D02*
X120200000Y-113410000D01*
X119500000Y-113300000D02*
X119610000Y-113410000D01*
D56*
X120200000Y-114390000D02*
X120200000Y-113410000D01*
D62*
X119500000Y-113300000D02*
X119500000Y-113100000D01*
D59*
%TO.N,USB_D-*%
X119630761Y-110650000D02*
X120562500Y-110650000D01*
X118905762Y-109925001D02*
X116406801Y-109925001D01*
X118905762Y-109925001D02*
X119630761Y-110650000D01*
X116406801Y-109925001D02*
X112456800Y-105975000D01*
X107534999Y-105975001D02*
X107210000Y-106300000D01*
X112456800Y-105975000D02*
X107534999Y-105975001D01*
%TO.N,/D-*%
X105175001Y-105975000D02*
X105865001Y-105975001D01*
X105000001Y-106150000D02*
X105175001Y-105975000D01*
X105865001Y-105975001D02*
X106190000Y-106300000D01*
X104550000Y-106150000D02*
X105000001Y-106150000D01*
%TO.N,USB_D+*%
X107534999Y-105524999D02*
X107210000Y-105200000D01*
X118905762Y-109474999D02*
X116593199Y-109474999D01*
X112643200Y-105525000D02*
X107534999Y-105524999D01*
X118905762Y-109474999D02*
X119630761Y-108750000D01*
X116593199Y-109474999D02*
X112643200Y-105525000D01*
X119630761Y-108750000D02*
X120562500Y-108750000D01*
%TO.N,/D+*%
X105175001Y-105525000D02*
X105865001Y-105524999D01*
X104550000Y-105350000D02*
X105000001Y-105350000D01*
X105865001Y-105524999D02*
X106190000Y-105200000D01*
X105000001Y-105350000D02*
X105175001Y-105525000D01*
D62*
%TO.N,SCL*%
X98200000Y-109200000D02*
X98510000Y-108890000D01*
X98200000Y-113400000D02*
X98200000Y-109200000D01*
X98900000Y-114100000D02*
X98200000Y-113400000D01*
D56*
X99200000Y-108000000D02*
X99100000Y-108100000D01*
X99100000Y-108100000D02*
X99100000Y-108890000D01*
X99200000Y-107100000D02*
X99200000Y-108000000D01*
D62*
X98187500Y-114700000D02*
X98800000Y-114700000D01*
X98510000Y-108890000D02*
X99100000Y-108890000D01*
X98800000Y-114700000D02*
X98900000Y-114600000D01*
X98900000Y-114600000D02*
X98900000Y-114100000D01*
%TO.N,SDA*%
X99000000Y-115100000D02*
X99200000Y-114900000D01*
X100100000Y-109200000D02*
X100100000Y-108890000D01*
D56*
X100000000Y-108000000D02*
X100000000Y-108100000D01*
D62*
X99900000Y-109400000D02*
X100100000Y-109200000D01*
X98500000Y-109600000D02*
X98700000Y-109400000D01*
X98700000Y-109400000D02*
X99900000Y-109400000D01*
X99200000Y-114900000D02*
X99200000Y-113900000D01*
X99200000Y-113900000D02*
X98500000Y-113200000D01*
D56*
X100000000Y-107100000D02*
X100000000Y-108000000D01*
X100000000Y-108100000D02*
X100100000Y-108200000D01*
D62*
X98500000Y-113200000D02*
X98500000Y-109600000D01*
X98187500Y-115100000D02*
X99000000Y-115100000D01*
D56*
X100100000Y-108200000D02*
X100100000Y-108890000D01*
D62*
%TO.N,FUEL_ALRT*%
X99700000Y-115200000D02*
X99700000Y-115100000D01*
X98187500Y-115500000D02*
X99400000Y-115500000D01*
X99400000Y-115500000D02*
X99700000Y-115200000D01*
D56*
%TO.N,3V3_EN*%
X81400000Y-122467500D02*
X81770000Y-122837500D01*
X81770000Y-122837500D02*
X82250000Y-122837500D01*
X80900000Y-123355000D02*
X80900000Y-122567500D01*
X80900000Y-122567500D02*
X81000000Y-122467500D01*
X81000000Y-122467500D02*
X81400000Y-122467500D01*
D62*
%TO.N,AIN2*%
X98400000Y-104900000D02*
X98200000Y-104700000D01*
X98400000Y-107100000D02*
X98400000Y-104900000D01*
X94600000Y-104700000D02*
X87200000Y-112100000D01*
X79900000Y-112200000D02*
X80600000Y-111500000D01*
X87200000Y-113100000D02*
X85300000Y-115000000D01*
X79900000Y-114400000D02*
X79900000Y-112200000D01*
X80500000Y-115000000D02*
X79900000Y-114400000D01*
X85300000Y-115000000D02*
X80500000Y-115000000D01*
X98200000Y-104700000D02*
X94600000Y-104700000D01*
X87200000Y-112100000D02*
X87200000Y-113100000D01*
%TO.N,P1.09*%
X103750000Y-113150000D02*
X103900000Y-113000000D01*
X100800000Y-107100000D02*
X100800000Y-108000000D01*
X103750000Y-115850000D02*
X103750000Y-113150000D01*
%TO.N,P0.26*%
X119500000Y-112400000D02*
X119500000Y-112800000D01*
X119400000Y-112150000D02*
X119400000Y-112300000D01*
X119400000Y-112300000D02*
X119500000Y-112400000D01*
X98000000Y-106200000D02*
X97400000Y-106200000D01*
%TO.N,AIN3*%
X80600000Y-112200000D02*
X80400000Y-112400000D01*
X98550000Y-104250000D02*
X98800000Y-104500000D01*
X80800000Y-114500000D02*
X85000000Y-114500000D01*
X80400000Y-114100000D02*
X80800000Y-114500000D01*
X80400000Y-112400000D02*
X80400000Y-114100000D01*
X86600000Y-111900000D02*
X94250000Y-104250000D01*
X86600000Y-112900000D02*
X86600000Y-111900000D01*
X94250000Y-104250000D02*
X98550000Y-104250000D01*
X85000000Y-114500000D02*
X86600000Y-112900000D01*
X98800000Y-104500000D02*
X98800000Y-106200000D01*
%TO.N,P1.08*%
X100400000Y-106200000D02*
X100400000Y-105500000D01*
%TO.N,P0.11*%
X101200000Y-106200000D02*
X101200000Y-105500000D01*
%TO.N,P0.12*%
X102000000Y-106200000D02*
X102000000Y-105500000D01*
%TO.N,AIN6*%
X95350000Y-103700000D02*
X93300000Y-103700000D01*
X93200000Y-103700000D02*
X93300000Y-103700000D01*
X92800000Y-104100000D02*
X93200000Y-103700000D01*
%TO.N,AIN7*%
X93200000Y-102900000D02*
X95350000Y-102900000D01*
X92000000Y-104100000D02*
X93200000Y-102900000D01*
%TO.N,AIN5*%
X93500000Y-102400000D02*
X93200000Y-102400000D01*
X94600000Y-102400000D02*
X93500000Y-102400000D01*
X94800000Y-102200000D02*
X94600000Y-102400000D01*
X95350000Y-102100000D02*
X94900000Y-102100000D01*
X92900000Y-102400000D02*
X93200000Y-102400000D01*
X91200000Y-104100000D02*
X92900000Y-102400000D01*
X94900000Y-102100000D02*
X94800000Y-102200000D01*
%TO.N,P1.15*%
X92000000Y-101300000D02*
X95350000Y-101300000D01*
X89200000Y-104100000D02*
X92000000Y-101300000D01*
%TO.N,P1.13*%
X95350000Y-100500000D02*
X91400000Y-100500000D01*
X91400000Y-100500000D02*
X87800000Y-104100000D01*
%TO.N,P1.11*%
X81000000Y-99800000D02*
X78210000Y-102590000D01*
X86100000Y-104700000D02*
X84700000Y-104700000D01*
X90800000Y-99700000D02*
X86400000Y-104100000D01*
X83900000Y-99800000D02*
X81000000Y-99800000D01*
X84700000Y-104700000D02*
X84600000Y-104600000D01*
X78210000Y-102590000D02*
X77312500Y-102590000D01*
X84600000Y-100500000D02*
X83900000Y-99800000D01*
X84600000Y-104600000D02*
X84600000Y-100500000D01*
X95350000Y-99700000D02*
X90800000Y-99700000D01*
X86400000Y-104400000D02*
X86100000Y-104700000D01*
X86400000Y-104100000D02*
X86400000Y-104400000D01*
%TO.N,AIN4*%
X96250000Y-103300000D02*
X97000000Y-103300000D01*
%TO.N,AIN0*%
X97000000Y-102500000D02*
X96250000Y-102500000D01*
%TO.N,AIN1*%
X96250000Y-101700000D02*
X97000000Y-101700000D01*
%TO.N,P1.14*%
X91700000Y-100900000D02*
X88500000Y-104100000D01*
X96250000Y-100900000D02*
X91700000Y-100900000D01*
%TO.N,P1.12*%
X86350000Y-105150000D02*
X87100000Y-104400000D01*
X87100000Y-104400000D02*
X87100000Y-104100000D01*
X96250000Y-100100000D02*
X91100000Y-100100000D01*
X77212500Y-104690000D02*
X77472500Y-104690000D01*
X84200000Y-104800000D02*
X84550000Y-105150000D01*
X83700000Y-100200000D02*
X84200000Y-100700000D01*
X77472500Y-104690000D02*
X81962500Y-100200000D01*
X84200000Y-100700000D02*
X84200000Y-104800000D01*
X84550000Y-105150000D02*
X86350000Y-105150000D01*
X91100000Y-100100000D02*
X87100000Y-104100000D01*
X81962500Y-100200000D02*
X83700000Y-100200000D01*
%TO.N,P0.14*%
X103750000Y-104900000D02*
X103100000Y-104900000D01*
X103100000Y-104900000D02*
X102900000Y-105100000D01*
%TO.N,P0.19*%
X103750000Y-102500000D02*
X102900000Y-102500000D01*
%TO.N,P0.21*%
X103750000Y-101700000D02*
X102900000Y-101700000D01*
%TO.N,P0.23*%
X103750000Y-100900000D02*
X102900000Y-100900000D01*
%TO.N,P0.25*%
X102900000Y-99300000D02*
X103750000Y-99300000D01*
%TO.N,P1.02*%
X103750000Y-98500000D02*
X102900000Y-98500000D01*
%TO.N,NFC1*%
X103750000Y-97700000D02*
X102900000Y-97700000D01*
%TO.N,NFC2*%
X103750000Y-96900000D02*
X102900000Y-96900000D01*
%TO.N,P0.17*%
X106000000Y-102900000D02*
X106050000Y-102950000D01*
X104650000Y-102900000D02*
X106000000Y-102900000D01*
%TO.N,P0.20*%
X104650000Y-101300000D02*
X105400000Y-101300000D01*
%TO.N,P0.22*%
X104650000Y-100500000D02*
X105400000Y-100500000D01*
%TO.N,P0.24*%
X104650000Y-99700000D02*
X105400000Y-99700000D01*
%TO.N,P1.10*%
X85000000Y-104100000D02*
X85000000Y-100300000D01*
X84100000Y-99400000D02*
X79500000Y-99400000D01*
X79500000Y-99400000D02*
X78410000Y-100490000D01*
X85700000Y-104100000D02*
X85600000Y-104200000D01*
X91700000Y-98100000D02*
X85700000Y-104100000D01*
X85000000Y-100300000D02*
X84100000Y-99400000D01*
X95350000Y-98100000D02*
X91700000Y-98100000D01*
X85600000Y-104200000D02*
X85100000Y-104200000D01*
X78410000Y-100490000D02*
X77312500Y-100490000D01*
X85100000Y-104200000D02*
X85000000Y-104100000D01*
%TO.N,P1.04*%
X98000000Y-100500000D02*
X98000000Y-101200000D01*
%TO.N,P1.06*%
X98800000Y-100500000D02*
X98800000Y-101200000D01*
%TO.N,P1.07*%
X99600000Y-100500000D02*
X99600000Y-101200000D01*
%TO.N,P1.05*%
X100400000Y-100500000D02*
X100400000Y-99800000D01*
%TO.N,P1.03*%
X101200000Y-100500000D02*
X101200000Y-99800000D01*
%TO.N,P1.01*%
X102000000Y-100500000D02*
X102000000Y-99800000D01*
%TO.N,/12V__GATE_EN*%
X123750000Y-116750000D02*
X124762500Y-116750000D01*
X113700000Y-116300000D02*
X113600000Y-116400000D01*
X114210000Y-114990000D02*
X114300000Y-114900000D01*
X116300000Y-114900000D02*
X117100000Y-115700000D01*
X114210000Y-115400000D02*
X113800000Y-115400000D01*
X117100000Y-115700000D02*
X119000000Y-115700000D01*
X113600000Y-116400000D02*
X113190000Y-116400000D01*
X119000000Y-115700000D02*
X120300000Y-117000000D01*
X113700000Y-115500000D02*
X113700000Y-116300000D01*
X114300000Y-114900000D02*
X116300000Y-114900000D01*
X113800000Y-115400000D02*
X113700000Y-115500000D01*
X123500000Y-117000000D02*
X123750000Y-116750000D01*
X120300000Y-117000000D02*
X123500000Y-117000000D01*
X114210000Y-115400000D02*
X114210000Y-114990000D01*
%TO.N,P0.16*%
X103750000Y-104100000D02*
X102100000Y-104100000D01*
D55*
%TO.N,Net-(D12-Pad2)*%
X125362500Y-101500000D02*
X124200000Y-101500000D01*
X124100000Y-101400000D02*
X124100000Y-100990000D01*
X124200000Y-101500000D02*
X124100000Y-101400000D01*
D62*
%TO.N,P0.13*%
X77610000Y-106790000D02*
X77800000Y-106600000D01*
X102450000Y-104700000D02*
X101500000Y-104700000D01*
X77212500Y-106790000D02*
X77610000Y-106790000D01*
X104650000Y-104500000D02*
X105400000Y-104500000D01*
X105400000Y-104500000D02*
X102650000Y-104500000D01*
X102650000Y-104500000D02*
X102450000Y-104700000D01*
X83500000Y-100900000D02*
X77800000Y-106600000D01*
X83600000Y-100900000D02*
X83500000Y-100900000D01*
%TO.N,P0.15*%
X104650000Y-103700000D02*
X105400000Y-103700000D01*
D58*
%TO.N,Net-(D13-Pad2)*%
X115037500Y-112500000D02*
X115037500Y-113362500D01*
X114610000Y-114100000D02*
X114610000Y-113590000D01*
X114610000Y-113590000D02*
X114700000Y-113500000D01*
X114900000Y-113500000D02*
X114700000Y-113500000D01*
X115037500Y-113362500D02*
X114900000Y-113500000D01*
D56*
%TO.N,BATT_POWER*%
X98800000Y-117400000D02*
X98600000Y-117600000D01*
X97800000Y-117600000D02*
X97700000Y-117600000D01*
X97612500Y-117687500D02*
X97700000Y-117600000D01*
X98600000Y-117600000D02*
X97800000Y-117600000D01*
X98187500Y-116300000D02*
X98700000Y-116300000D01*
X98700000Y-116300000D02*
X98800000Y-116400000D01*
X97612500Y-118690000D02*
X97612500Y-117687500D01*
X98800000Y-116400000D02*
X98800000Y-117400000D01*
D62*
%TO.N,STATUS_LED2*%
X76400000Y-102590000D02*
X77012500Y-102590000D01*
%TO.N,STATUS_LED3*%
X76912500Y-104690000D02*
X76400000Y-104690000D01*
%TO.N,P0.07*%
X99600000Y-106200000D02*
X99600000Y-105500000D01*
D60*
%TO.N,/BST*%
X118430000Y-120770000D02*
X118200000Y-121000000D01*
X118430000Y-119750000D02*
X118430000Y-120770000D01*
X118200000Y-121000000D02*
X117580000Y-121000000D01*
D55*
%TO.N,/FB*%
X120110000Y-117490000D02*
X120700000Y-117490000D01*
X121700000Y-117490000D02*
X120700000Y-117490000D01*
X119750000Y-117850000D02*
X120110000Y-117490000D01*
X118430000Y-117850000D02*
X119750000Y-117850000D01*
D59*
%TO.N,/12V EN*%
X115730000Y-117850000D02*
X115730000Y-116570000D01*
D56*
X116190000Y-115390000D02*
X116590000Y-115790000D01*
X115100000Y-115390000D02*
X116190000Y-115390000D01*
D59*
X115900000Y-116400000D02*
X116590000Y-116400000D01*
X115730000Y-116570000D02*
X115900000Y-116400000D01*
D56*
X116590000Y-115790000D02*
X116590000Y-116400000D01*
%TO.N,/SWDIO_CONN*%
X107400000Y-103410000D02*
X110490000Y-103410000D01*
X112850000Y-102440000D02*
X111660000Y-102440000D01*
X111200000Y-102900000D02*
X110650000Y-102900000D01*
X110490000Y-103410000D02*
X110650000Y-103250000D01*
X111660000Y-102440000D02*
X111200000Y-102900000D01*
X110650000Y-103250000D02*
X110650000Y-102900000D01*
%TO.N,/SWO_CONN*%
X111100000Y-98900000D02*
X111300000Y-99100000D01*
X111400000Y-99900000D02*
X112850000Y-99900000D01*
X107454000Y-99464000D02*
X110086000Y-99464000D01*
X110086000Y-99464000D02*
X110650000Y-98900000D01*
X107400000Y-99410000D02*
X107454000Y-99464000D01*
X111300000Y-99800000D02*
X111400000Y-99900000D01*
X110650000Y-98900000D02*
X111100000Y-98900000D01*
X111300000Y-99100000D02*
X111300000Y-99800000D01*
%TO.N,/~{NRF_RESET_CONN}*%
X111360000Y-97360000D02*
X111200000Y-97200000D01*
X110650000Y-96900000D02*
X111100000Y-96900000D01*
X110490000Y-97410000D02*
X110650000Y-97250000D01*
X107400000Y-97410000D02*
X110490000Y-97410000D01*
X112850000Y-97360000D02*
X111360000Y-97360000D01*
X110650000Y-97250000D02*
X110650000Y-96900000D01*
X111200000Y-97200000D02*
X111200000Y-97000000D01*
X111200000Y-97000000D02*
X111300000Y-97100000D01*
X111300000Y-97100000D02*
X111300000Y-97300000D01*
X111100000Y-96900000D02*
X111200000Y-97000000D01*
%TO.N,/SWDCLK_CONN*%
X110650000Y-101250000D02*
X110650000Y-100900000D01*
X112850000Y-101170000D02*
X111470000Y-101170000D01*
X107400000Y-101410000D02*
X110490000Y-101410000D01*
X111470000Y-101170000D02*
X111200000Y-100900000D01*
X111200000Y-100900000D02*
X110650000Y-100900000D01*
X110490000Y-101410000D02*
X110650000Y-101250000D01*
D62*
%TO.N,/P0.27*%
X92300000Y-109000000D02*
X93600000Y-107700000D01*
X99700000Y-114800000D02*
X99700000Y-114400000D01*
X93600000Y-107700000D02*
X95800000Y-107700000D01*
X92800000Y-113900000D02*
X92300000Y-113400000D01*
X97600000Y-113900000D02*
X92800000Y-113900000D01*
X95800000Y-107700000D02*
X96000000Y-107500000D01*
X96000000Y-107500000D02*
X96000000Y-107100000D01*
X92300000Y-113400000D02*
X92300000Y-109000000D01*
D61*
%TO.N,BAT+_CONN*%
X86700000Y-119450000D02*
X86700000Y-117500000D01*
X88200000Y-122900000D02*
X91900000Y-122900000D01*
X86700000Y-117500000D02*
X87200000Y-117000000D01*
X92400000Y-125487500D02*
X92862500Y-125950000D01*
X86700000Y-119450000D02*
X86700000Y-121400000D01*
X92400000Y-123400000D02*
X92400000Y-125487500D01*
X91900000Y-122900000D02*
X92400000Y-123400000D01*
X86700000Y-121400000D02*
X88200000Y-122900000D01*
X92862500Y-125950000D02*
X93612500Y-125950000D01*
X87200000Y-117000000D02*
X90562500Y-117000000D01*
D56*
%TO.N,BATT+*%
X95787500Y-117887500D02*
X95212500Y-117312500D01*
X95787500Y-118690000D02*
X95787500Y-117887500D01*
X95212500Y-117100000D02*
X95212500Y-117312500D01*
%TO.N,/BP*%
X81400000Y-122087500D02*
X81770000Y-121717500D01*
X81000000Y-122087500D02*
X81400000Y-122087500D01*
X80900000Y-121987500D02*
X81000000Y-122087500D01*
X81770000Y-121717500D02*
X82250000Y-121717500D01*
X80900000Y-121200000D02*
X80900000Y-121987500D01*
D55*
%TO.N,Net-(D16-Pad2)*%
X102650000Y-126100000D02*
X103160000Y-126610000D01*
X102187500Y-126100000D02*
X102650000Y-126100000D01*
X103110000Y-126610000D02*
X103500000Y-126610000D01*
%TO.N,~{CHARGE}*%
X101050000Y-126100000D02*
X100312500Y-126100000D01*
D62*
X103750000Y-116150000D02*
X103750000Y-116800000D01*
D55*
X99802500Y-126610000D02*
X100312500Y-126100000D01*
X101150000Y-126000000D02*
X101050000Y-126100000D01*
X99050000Y-126610000D02*
X99802500Y-126610000D01*
D59*
X94562500Y-124050000D02*
X94612500Y-124100000D01*
X93612500Y-124050000D02*
X94562500Y-124050000D01*
%TD*%
%TA.AperFunction,Conductor*%
%TO.N,3V3A*%
G36*
X80825651Y-110302341D02*
G01*
X80878944Y-110324415D01*
X80895585Y-110341056D01*
X80917659Y-110394349D01*
X80920000Y-110406115D01*
X80920000Y-110743885D01*
X80917659Y-110755651D01*
X80895585Y-110808944D01*
X80878944Y-110825585D01*
X80825651Y-110847659D01*
X80813885Y-110850000D01*
X77870000Y-110850000D01*
X77840312Y-110882096D01*
X77840311Y-110882096D01*
X77839236Y-110883258D01*
X77839235Y-110883259D01*
X77690135Y-111044449D01*
X77526590Y-111221254D01*
X77500000Y-111250000D01*
X77500000Y-115593885D01*
X77497659Y-115605651D01*
X77475585Y-115658944D01*
X77458944Y-115675585D01*
X77405651Y-115697659D01*
X77393885Y-115700000D01*
X76076115Y-115700000D01*
X76064349Y-115697659D01*
X76011056Y-115675585D01*
X75994415Y-115658944D01*
X75972341Y-115605651D01*
X75970000Y-115593885D01*
X75970000Y-111044449D01*
X75970591Y-111038451D01*
X75976418Y-111009154D01*
X75981010Y-110998068D01*
X75997607Y-110973230D01*
X76001430Y-110968570D01*
X76638570Y-110331430D01*
X76643230Y-110327607D01*
X76668068Y-110311010D01*
X76679152Y-110306419D01*
X76699652Y-110302341D01*
X76708451Y-110300591D01*
X76714449Y-110300000D01*
X80813885Y-110300000D01*
X80825651Y-110302341D01*
G37*
%TD.AperFunction*%
%TD*%
%TA.AperFunction,Conductor*%
%TO.N,VCC*%
G36*
X79255651Y-122739841D02*
G01*
X79308944Y-122761915D01*
X79325585Y-122778556D01*
X79347659Y-122831849D01*
X79350000Y-122843615D01*
X79350000Y-124237500D01*
X79718570Y-124606070D01*
X79722393Y-124610730D01*
X79738990Y-124635568D01*
X79743582Y-124646654D01*
X79749409Y-124675951D01*
X79750000Y-124681949D01*
X79750000Y-125231385D01*
X79747659Y-125243151D01*
X79725585Y-125296444D01*
X79708944Y-125313085D01*
X79655651Y-125335159D01*
X79643885Y-125337500D01*
X78756115Y-125337500D01*
X78744349Y-125335159D01*
X78691056Y-125313085D01*
X78674415Y-125296444D01*
X78652341Y-125243151D01*
X78650000Y-125231385D01*
X78650000Y-122843615D01*
X78652341Y-122831849D01*
X78674415Y-122778556D01*
X78691056Y-122761915D01*
X78744349Y-122739841D01*
X78756115Y-122737500D01*
X79243885Y-122737500D01*
X79255651Y-122739841D01*
G37*
%TD.AperFunction*%
%TD*%
%TA.AperFunction,Conductor*%
%TO.N,+12V*%
G36*
X116442121Y-118520002D02*
G01*
X116488614Y-118573658D01*
X116500000Y-118626000D01*
X116500000Y-118974000D01*
X116479998Y-119042121D01*
X116426342Y-119088614D01*
X116374000Y-119100000D01*
X112952190Y-119100000D01*
X112884069Y-119079998D01*
X112863095Y-119063095D01*
X112836905Y-119036905D01*
X112802879Y-118974593D01*
X112800000Y-118947810D01*
X112800000Y-118652190D01*
X112820002Y-118584069D01*
X112836905Y-118563095D01*
X112863095Y-118536905D01*
X112925407Y-118502879D01*
X112952190Y-118500000D01*
X116374000Y-118500000D01*
X116442121Y-118520002D01*
G37*
%TD.AperFunction*%
%TD*%
%TA.AperFunction,Conductor*%
%TO.N,GND*%
G36*
X106006038Y-96001201D02*
G01*
X106064343Y-96012799D01*
X106086871Y-96022129D01*
X106131087Y-96051674D01*
X106148326Y-96068913D01*
X106177870Y-96113127D01*
X106187202Y-96135658D01*
X106198799Y-96193962D01*
X106200000Y-96206155D01*
X106200000Y-96393845D01*
X106198799Y-96406038D01*
X106187202Y-96464342D01*
X106177871Y-96486871D01*
X106148326Y-96531087D01*
X106131087Y-96548326D01*
X106086871Y-96577871D01*
X106064343Y-96587201D01*
X106006038Y-96598799D01*
X105993845Y-96600000D01*
X104064975Y-96600000D01*
X104061572Y-96599833D01*
X104059899Y-96599500D01*
X103750101Y-96599500D01*
X103440102Y-96599501D01*
X103438431Y-96599833D01*
X103435037Y-96600000D01*
X103306155Y-96600000D01*
X103293962Y-96598799D01*
X103235657Y-96587201D01*
X103213129Y-96577871D01*
X103168913Y-96548326D01*
X103151674Y-96531087D01*
X103122129Y-96486871D01*
X103112798Y-96464342D01*
X103101201Y-96406038D01*
X103100000Y-96393845D01*
X103100000Y-96206155D01*
X103101201Y-96193962D01*
X103112798Y-96135658D01*
X103122130Y-96113127D01*
X103151674Y-96068913D01*
X103168913Y-96051674D01*
X103213129Y-96022129D01*
X103235657Y-96012799D01*
X103293962Y-96001201D01*
X103306155Y-96000000D01*
X105993845Y-96000000D01*
X106006038Y-96001201D01*
G37*
%TD.AperFunction*%
%TD*%
%TA.AperFunction,Conductor*%
%TO.N,GND*%
G36*
X81405307Y-118338268D02*
G01*
X81438427Y-118345814D01*
X81450739Y-118351733D01*
X81477317Y-118372878D01*
X81482185Y-118377732D01*
X82626462Y-119808078D01*
X82629346Y-119812381D01*
X82641824Y-119834896D01*
X82645242Y-119844639D01*
X82649564Y-119870017D01*
X82650000Y-119875180D01*
X82650000Y-120931385D01*
X82647659Y-120943151D01*
X82625585Y-120996444D01*
X82608944Y-121013085D01*
X82555651Y-121035159D01*
X82543885Y-121037500D01*
X81856115Y-121037500D01*
X81844349Y-121035159D01*
X81791056Y-121013085D01*
X81774415Y-120996444D01*
X81752341Y-120943151D01*
X81750000Y-120931385D01*
X81750000Y-120237500D01*
X81650000Y-120137500D01*
X80356115Y-120137500D01*
X80344349Y-120135159D01*
X80291056Y-120113085D01*
X80274415Y-120096444D01*
X80252341Y-120043151D01*
X80250000Y-120031385D01*
X80250000Y-118443615D01*
X80252341Y-118431849D01*
X80274415Y-118378556D01*
X80291056Y-118361915D01*
X80344349Y-118339841D01*
X80356115Y-118337500D01*
X81398478Y-118337500D01*
X81405307Y-118338268D01*
G37*
%TD.AperFunction*%
%TD*%
%TA.AperFunction,Conductor*%
%TO.N,GND*%
G36*
X83055651Y-111002341D02*
G01*
X83073588Y-111009771D01*
X83090229Y-111026412D01*
X83097659Y-111044349D01*
X83100000Y-111056117D01*
X83100000Y-113943883D01*
X83097659Y-113955651D01*
X83090229Y-113973588D01*
X83073588Y-113990229D01*
X83055651Y-113997659D01*
X83043883Y-114000000D01*
X81956117Y-114000000D01*
X81944349Y-113997659D01*
X81926412Y-113990229D01*
X81909771Y-113973588D01*
X81902341Y-113955651D01*
X81900000Y-113943883D01*
X81900000Y-111056117D01*
X81902341Y-111044349D01*
X81909771Y-111026412D01*
X81926412Y-111009771D01*
X81944349Y-111002341D01*
X81956117Y-111000000D01*
X83043883Y-111000000D01*
X83055651Y-111002341D01*
G37*
%TD.AperFunction*%
%TD*%
%TA.AperFunction,Conductor*%
%TO.N,GND*%
G36*
X115367121Y-116095002D02*
G01*
X115413614Y-116148658D01*
X115425000Y-116201000D01*
X115425000Y-117174000D01*
X115404998Y-117242121D01*
X115351342Y-117288614D01*
X115299000Y-117300000D01*
X114600000Y-117300000D01*
X114565617Y-117345844D01*
X114565616Y-117345845D01*
X114548046Y-117369272D01*
X114525000Y-117400000D01*
X114525000Y-117974000D01*
X114504998Y-118042121D01*
X114451342Y-118088614D01*
X114399000Y-118100000D01*
X113001000Y-118100000D01*
X112932879Y-118079998D01*
X112886386Y-118026342D01*
X112875000Y-117974000D01*
X112875000Y-117400000D01*
X112841734Y-117355645D01*
X112826094Y-117334792D01*
X112815310Y-117317716D01*
X112814645Y-117316446D01*
X112801853Y-117278086D01*
X112801623Y-117276667D01*
X112800000Y-117256507D01*
X112800000Y-117026000D01*
X112820002Y-116957879D01*
X112873658Y-116911386D01*
X112926000Y-116900000D01*
X113900000Y-116900000D01*
X113900000Y-116201000D01*
X113920002Y-116132879D01*
X113973658Y-116086386D01*
X114026000Y-116075000D01*
X115299000Y-116075000D01*
X115367121Y-116095002D01*
G37*
%TD.AperFunction*%
%TD*%
%TA.AperFunction,Conductor*%
%TO.N,GND*%
G36*
X106106038Y-106801201D02*
G01*
X106164343Y-106812799D01*
X106186871Y-106822129D01*
X106231087Y-106851674D01*
X106248326Y-106868913D01*
X106277870Y-106913127D01*
X106287202Y-106935658D01*
X106298799Y-106993962D01*
X106300000Y-107006155D01*
X106300000Y-108993845D01*
X106298799Y-109006038D01*
X106287202Y-109064342D01*
X106277871Y-109086871D01*
X106248326Y-109131087D01*
X106231087Y-109148326D01*
X106186871Y-109177871D01*
X106164343Y-109187201D01*
X106106038Y-109198799D01*
X106093845Y-109200000D01*
X105406155Y-109200000D01*
X105393962Y-109198799D01*
X105335657Y-109187201D01*
X105313129Y-109177871D01*
X105268913Y-109148326D01*
X105251674Y-109131087D01*
X105222129Y-109086871D01*
X105212798Y-109064342D01*
X105201201Y-109006038D01*
X105200000Y-108993845D01*
X105200000Y-108600000D01*
X105150000Y-108550000D01*
X105119902Y-108504954D01*
X105110570Y-108482425D01*
X105101201Y-108435327D01*
X105100000Y-108423133D01*
X105100000Y-108100000D01*
X105000000Y-108000000D01*
X104706155Y-108000000D01*
X104693962Y-107998799D01*
X104635657Y-107987201D01*
X104613129Y-107977871D01*
X104568913Y-107948326D01*
X104551674Y-107931087D01*
X104522129Y-107886871D01*
X104512798Y-107864342D01*
X104501201Y-107806038D01*
X104500000Y-107793845D01*
X104500000Y-107006155D01*
X104501201Y-106993962D01*
X104512798Y-106935658D01*
X104522130Y-106913127D01*
X104551674Y-106868913D01*
X104568913Y-106851674D01*
X104613129Y-106822129D01*
X104635657Y-106812799D01*
X104693962Y-106801201D01*
X104706155Y-106800000D01*
X106093845Y-106800000D01*
X106106038Y-106801201D01*
G37*
%TD.AperFunction*%
%TD*%
%TA.AperFunction,Conductor*%
%TO.N,GND*%
G36*
X118055651Y-110452341D02*
G01*
X118073588Y-110459771D01*
X118090229Y-110476412D01*
X118097659Y-110494349D01*
X118100000Y-110506117D01*
X118100000Y-113943883D01*
X118097659Y-113955651D01*
X118090229Y-113973588D01*
X118073588Y-113990229D01*
X118055651Y-113997659D01*
X118043883Y-114000000D01*
X116956117Y-114000000D01*
X116944349Y-113997659D01*
X116926412Y-113990229D01*
X116909771Y-113973588D01*
X116902341Y-113955651D01*
X116900000Y-113943883D01*
X116900000Y-110506117D01*
X116902341Y-110494349D01*
X116909771Y-110476412D01*
X116926412Y-110459771D01*
X116944349Y-110452341D01*
X116956117Y-110450000D01*
X118043883Y-110450000D01*
X118055651Y-110452341D01*
G37*
%TD.AperFunction*%
%TD*%
%TA.AperFunction,Conductor*%
%TO.N,GND*%
G36*
X126734006Y-112509006D02*
G01*
X126815994Y-112590994D01*
X126825000Y-112612738D01*
X126825000Y-112800000D01*
X127015994Y-112990994D01*
X127025000Y-113012738D01*
X127025000Y-113287262D01*
X127015994Y-113309006D01*
X126934006Y-113390994D01*
X126912262Y-113400000D01*
X124755750Y-113400000D01*
X124734006Y-113390994D01*
X124725000Y-113369250D01*
X124725000Y-112630750D01*
X124734006Y-112609006D01*
X124755750Y-112600000D01*
X125925000Y-112600000D01*
X125928201Y-112598399D01*
X125928203Y-112598399D01*
X126118508Y-112503246D01*
X126132260Y-112500000D01*
X126712262Y-112500000D01*
X126734006Y-112509006D01*
G37*
%TD.AperFunction*%
%TD*%
%TA.AperFunction,Conductor*%
%TO.N,GND*%
G36*
X118055651Y-105402341D02*
G01*
X118073588Y-105409771D01*
X118090229Y-105426412D01*
X118097659Y-105444349D01*
X118100000Y-105456117D01*
X118100000Y-108893883D01*
X118097659Y-108905651D01*
X118090229Y-108923588D01*
X118073588Y-108940229D01*
X118055651Y-108947659D01*
X118043883Y-108950000D01*
X116956117Y-108950000D01*
X116944349Y-108947659D01*
X116926412Y-108940229D01*
X116909771Y-108923588D01*
X116902341Y-108905651D01*
X116900000Y-108893883D01*
X116900000Y-105456117D01*
X116902341Y-105444349D01*
X116909771Y-105426412D01*
X116926412Y-105409771D01*
X116944349Y-105402341D01*
X116956117Y-105400000D01*
X118043883Y-105400000D01*
X118055651Y-105402341D01*
G37*
%TD.AperFunction*%
%TD*%
%TA.AperFunction,Conductor*%
%TO.N,GND*%
G36*
X102311486Y-109604758D02*
G01*
X102346793Y-109619383D01*
X102380617Y-109653207D01*
X102395242Y-109688514D01*
X102400000Y-109712432D01*
X102400000Y-110181257D01*
X102399798Y-110186278D01*
X102399114Y-110194764D01*
X102397504Y-110204682D01*
X102395467Y-110212957D01*
X102394072Y-110217782D01*
X102225903Y-110722289D01*
X102216963Y-110739550D01*
X102198346Y-110764869D01*
X102167195Y-110787321D01*
X102137286Y-110796977D01*
X102118084Y-110800000D01*
X101081916Y-110800000D01*
X101062714Y-110796977D01*
X101032805Y-110787321D01*
X101001654Y-110764869D01*
X100983037Y-110739550D01*
X100974097Y-110722289D01*
X100805928Y-110217782D01*
X100804533Y-110212957D01*
X100802496Y-110204682D01*
X100800886Y-110194764D01*
X100800202Y-110186278D01*
X100800000Y-110181257D01*
X100800000Y-109712432D01*
X100804758Y-109688514D01*
X100819383Y-109653207D01*
X100853207Y-109619383D01*
X100888514Y-109604758D01*
X100912432Y-109600000D01*
X102287568Y-109600000D01*
X102311486Y-109604758D01*
G37*
%TD.AperFunction*%
%TD*%
%TA.AperFunction,Conductor*%
%TO.N,+5V*%
G36*
X122500000Y-120800000D02*
G01*
X122500000Y-121200000D01*
X122400000Y-121300000D01*
X121100000Y-121300000D01*
X119700000Y-122700000D01*
X119700000Y-126347810D01*
X119679998Y-126415931D01*
X119663095Y-126436905D01*
X119636905Y-126463095D01*
X119574593Y-126497121D01*
X119547810Y-126500000D01*
X118252190Y-126500000D01*
X118184069Y-126479998D01*
X118163095Y-126463095D01*
X118136905Y-126436905D01*
X118102879Y-126374593D01*
X118100000Y-126347810D01*
X118100000Y-122352190D01*
X118120002Y-122284069D01*
X118136905Y-122263095D01*
X118163095Y-122236905D01*
X118225407Y-122202879D01*
X118252190Y-122200000D01*
X118700000Y-122200000D01*
X119700000Y-121200000D01*
X119700000Y-120905329D01*
X119717194Y-120841790D01*
X119763526Y-120762455D01*
X119815149Y-120713721D01*
X119872328Y-120700000D01*
X122400000Y-120700000D01*
X122500000Y-120800000D01*
G37*
%TD.AperFunction*%
%TD*%
%TA.AperFunction,Conductor*%
%TO.N,BATT-*%
G36*
X93006038Y-117601201D02*
G01*
X93064343Y-117612799D01*
X93086871Y-117622129D01*
X93131087Y-117651674D01*
X93148326Y-117668913D01*
X93177870Y-117713127D01*
X93187202Y-117735658D01*
X93198799Y-117793962D01*
X93200000Y-117806155D01*
X93200000Y-120425000D01*
X93300000Y-120525000D01*
X93693845Y-120525000D01*
X93706038Y-120526201D01*
X93764343Y-120537799D01*
X93786871Y-120547129D01*
X93831087Y-120576674D01*
X93848326Y-120593913D01*
X93877870Y-120638127D01*
X93887202Y-120660658D01*
X93898799Y-120718962D01*
X93900000Y-120731155D01*
X93900000Y-121668845D01*
X93898799Y-121681038D01*
X93887202Y-121739342D01*
X93877871Y-121761871D01*
X93848326Y-121806087D01*
X93831087Y-121823326D01*
X93786871Y-121852871D01*
X93764343Y-121862201D01*
X93706038Y-121873799D01*
X93693845Y-121875000D01*
X93484989Y-121875000D01*
X93473290Y-121873895D01*
X93417240Y-121863215D01*
X93395483Y-121854611D01*
X93347287Y-121824067D01*
X93337997Y-121816872D01*
X93193107Y-121681038D01*
X93057699Y-121554093D01*
X93057700Y-121554093D01*
X93000000Y-121500000D01*
X92388998Y-121500000D01*
X92376806Y-121498799D01*
X92352801Y-121494024D01*
X92318499Y-121487201D01*
X92295970Y-121477869D01*
X92246538Y-121444840D01*
X92237067Y-121437067D01*
X92100000Y-121300000D01*
X88306155Y-121300000D01*
X88293962Y-121298799D01*
X88235657Y-121287201D01*
X88213129Y-121277871D01*
X88168913Y-121248326D01*
X88151674Y-121231087D01*
X88122129Y-121186871D01*
X88112798Y-121164342D01*
X88101201Y-121106038D01*
X88100000Y-121093845D01*
X88100000Y-117806155D01*
X88101201Y-117793962D01*
X88112798Y-117735658D01*
X88122130Y-117713127D01*
X88151674Y-117668913D01*
X88168913Y-117651674D01*
X88213129Y-117622129D01*
X88235657Y-117612799D01*
X88293962Y-117601201D01*
X88306155Y-117600000D01*
X92993845Y-117600000D01*
X93006038Y-117601201D01*
G37*
%TD.AperFunction*%
%TD*%
%TA.AperFunction,Conductor*%
%TO.N,GND*%
G36*
X78975651Y-112002341D02*
G01*
X79028944Y-112024415D01*
X79045585Y-112041056D01*
X79067659Y-112094349D01*
X79070000Y-112106115D01*
X79070000Y-113693885D01*
X79067659Y-113705651D01*
X79045585Y-113758944D01*
X79028944Y-113775585D01*
X78975651Y-113797659D01*
X78963885Y-113800000D01*
X77976115Y-113800000D01*
X77964349Y-113797659D01*
X77911056Y-113775585D01*
X77894415Y-113758944D01*
X77872341Y-113705651D01*
X77870000Y-113693885D01*
X77870000Y-112106115D01*
X77872341Y-112094349D01*
X77894415Y-112041056D01*
X77911056Y-112024415D01*
X77964349Y-112002341D01*
X77976115Y-112000000D01*
X78963885Y-112000000D01*
X78975651Y-112002341D01*
G37*
%TD.AperFunction*%
%TD*%
%TA.AperFunction,Conductor*%
%TO.N,V_USB*%
G36*
X121411486Y-111604758D02*
G01*
X121446793Y-111619383D01*
X121480617Y-111653207D01*
X121495242Y-111688514D01*
X121500000Y-111712432D01*
X121500000Y-112300000D01*
X121548010Y-112338408D01*
X121956978Y-112665583D01*
X121966844Y-112675475D01*
X121981264Y-112693600D01*
X121993293Y-112718627D01*
X121998438Y-112741207D01*
X122000000Y-112755092D01*
X122000000Y-113487568D01*
X121995242Y-113511486D01*
X121980617Y-113546793D01*
X121946793Y-113580617D01*
X121911486Y-113595242D01*
X121887568Y-113600000D01*
X121112432Y-113600000D01*
X121088514Y-113595242D01*
X121053207Y-113580617D01*
X121019383Y-113546793D01*
X121004758Y-113511486D01*
X121000000Y-113487568D01*
X121000000Y-112300000D01*
X120933643Y-112233643D01*
X120925869Y-112224171D01*
X120914518Y-112207182D01*
X120905187Y-112184655D01*
X120901201Y-112164619D01*
X120900000Y-112152424D01*
X120900000Y-111712432D01*
X120904758Y-111688514D01*
X120919383Y-111653207D01*
X120953207Y-111619383D01*
X120988514Y-111604758D01*
X121012432Y-111600000D01*
X121387568Y-111600000D01*
X121411486Y-111604758D01*
G37*
%TD.AperFunction*%
%TD*%
%TA.AperFunction,Conductor*%
%TO.N,GND*%
G36*
X83005651Y-105402341D02*
G01*
X83058944Y-105424415D01*
X83075585Y-105441056D01*
X83097659Y-105494349D01*
X83100000Y-105506115D01*
X83100000Y-110043885D01*
X83097659Y-110055651D01*
X83075585Y-110108944D01*
X83058944Y-110125585D01*
X83005651Y-110147659D01*
X82993885Y-110150000D01*
X82006115Y-110150000D01*
X81994349Y-110147659D01*
X81941056Y-110125585D01*
X81924415Y-110108944D01*
X81902341Y-110055651D01*
X81900000Y-110043885D01*
X81900000Y-105506115D01*
X81902341Y-105494349D01*
X81924415Y-105441056D01*
X81941056Y-105424415D01*
X81994349Y-105402341D01*
X82006115Y-105400000D01*
X82993885Y-105400000D01*
X83005651Y-105402341D01*
G37*
%TD.AperFunction*%
%TD*%
%TA.AperFunction,Conductor*%
%TO.N,GND*%
G36*
X91259237Y-108796882D02*
G01*
X91289611Y-108809464D01*
X91337204Y-108844043D01*
X91358556Y-108869044D01*
X91385261Y-108921457D01*
X91396518Y-108968343D01*
X91400000Y-108997759D01*
X91400000Y-114987590D01*
X91397579Y-115012171D01*
X91389666Y-115051953D01*
X91370852Y-115097374D01*
X91355345Y-115120582D01*
X91320582Y-115155345D01*
X91297374Y-115170852D01*
X91251953Y-115189666D01*
X91212171Y-115197579D01*
X91187590Y-115200000D01*
X89700000Y-115200000D01*
X89500000Y-115400000D01*
X89500000Y-116287590D01*
X89497579Y-116312171D01*
X89489666Y-116351953D01*
X89470852Y-116397374D01*
X89455345Y-116420582D01*
X89420582Y-116455345D01*
X89397374Y-116470852D01*
X89351953Y-116489666D01*
X89312171Y-116497579D01*
X89287590Y-116500000D01*
X86800000Y-116500000D01*
X85267356Y-118032644D01*
X85248269Y-118048310D01*
X85214530Y-118070853D01*
X85169112Y-118089666D01*
X85152498Y-118092970D01*
X85129327Y-118097579D01*
X85104747Y-118100000D01*
X75495253Y-118100000D01*
X75470673Y-118097579D01*
X75447502Y-118092970D01*
X75430888Y-118089666D01*
X75385470Y-118070853D01*
X75351731Y-118048310D01*
X75332644Y-118032644D01*
X74467356Y-117167356D01*
X74451690Y-117148269D01*
X74429147Y-117114530D01*
X74410334Y-117069111D01*
X74402421Y-117029327D01*
X74400000Y-117004747D01*
X74400000Y-116412410D01*
X74402421Y-116387829D01*
X74410334Y-116348047D01*
X74429148Y-116302626D01*
X74444655Y-116279418D01*
X74479418Y-116244655D01*
X74502626Y-116229148D01*
X74548047Y-116210334D01*
X74587829Y-116202421D01*
X74612410Y-116200000D01*
X77600000Y-116200000D01*
X77800000Y-116000000D01*
X77800000Y-114512410D01*
X77802421Y-114487829D01*
X77810334Y-114448047D01*
X77829148Y-114402626D01*
X77844655Y-114379418D01*
X77879418Y-114344655D01*
X77902626Y-114329148D01*
X77948047Y-114310334D01*
X77987829Y-114302421D01*
X78012410Y-114300000D01*
X79287590Y-114300000D01*
X79312171Y-114302421D01*
X79351953Y-114310334D01*
X79397374Y-114329148D01*
X79420582Y-114344655D01*
X79455345Y-114379418D01*
X79470852Y-114402626D01*
X79489666Y-114448047D01*
X79497579Y-114487829D01*
X79500000Y-114512410D01*
X79500000Y-114900000D01*
X79900000Y-115300000D01*
X85600000Y-115300000D01*
X87700000Y-113200000D01*
X87700000Y-112295253D01*
X87702421Y-112270673D01*
X87710334Y-112230889D01*
X87729147Y-112185470D01*
X87751690Y-112151731D01*
X87767356Y-112132644D01*
X91048031Y-108851969D01*
X91071292Y-108833631D01*
X91112406Y-108808437D01*
X91168353Y-108790259D01*
X91201130Y-108787679D01*
X91259237Y-108796882D01*
G37*
%TD.AperFunction*%
%TD*%
%TA.AperFunction,Conductor*%
%TO.N,VCC*%
G36*
X103411486Y-119404758D02*
G01*
X103446793Y-119419383D01*
X103480617Y-119453207D01*
X103495242Y-119488514D01*
X103500000Y-119512432D01*
X103500000Y-120687568D01*
X103495242Y-120711486D01*
X103480617Y-120746793D01*
X103446793Y-120780617D01*
X103411486Y-120795242D01*
X103387568Y-120800000D01*
X100112432Y-120800000D01*
X100088514Y-120795242D01*
X100053207Y-120780617D01*
X100019383Y-120746793D01*
X100004758Y-120711486D01*
X100000000Y-120687568D01*
X100000000Y-120212432D01*
X100004758Y-120188514D01*
X100019383Y-120153207D01*
X100053207Y-120119383D01*
X100088514Y-120104758D01*
X100112432Y-120100000D01*
X101600000Y-120100000D01*
X102266357Y-119433643D01*
X102275829Y-119425869D01*
X102292818Y-119414518D01*
X102315345Y-119405187D01*
X102320399Y-119404182D01*
X102335385Y-119401201D01*
X102347576Y-119400000D01*
X103387568Y-119400000D01*
X103411486Y-119404758D01*
G37*
%TD.AperFunction*%
%TD*%
%TA.AperFunction,Conductor*%
%TO.N,GND*%
G36*
X97770723Y-120302416D02*
G01*
X97772238Y-120302717D01*
X97817689Y-120321538D01*
X97818976Y-120322398D01*
X97838066Y-120338066D01*
X97861934Y-120361934D01*
X97877602Y-120381024D01*
X97878462Y-120382311D01*
X97897283Y-120427762D01*
X97897584Y-120429277D01*
X97900000Y-120453831D01*
X97900000Y-120671169D01*
X97897584Y-120695723D01*
X97897283Y-120697238D01*
X97878462Y-120742689D01*
X97877602Y-120743976D01*
X97861934Y-120763066D01*
X97725000Y-120900000D01*
X97725000Y-121349000D01*
X97704998Y-121417121D01*
X97651342Y-121463614D01*
X97599000Y-121475000D01*
X97239556Y-121475000D01*
X97221114Y-121473643D01*
X97220591Y-121473566D01*
X97219768Y-121473444D01*
X97184387Y-121462726D01*
X97183153Y-121462143D01*
X97167091Y-121453061D01*
X96925192Y-121291795D01*
X96900000Y-121275000D01*
X96226000Y-121275000D01*
X96157879Y-121254998D01*
X96111386Y-121201342D01*
X96100000Y-121149000D01*
X96100000Y-120526000D01*
X96120002Y-120457879D01*
X96173658Y-120411386D01*
X96226000Y-120400000D01*
X96800000Y-120400000D01*
X96861934Y-120338066D01*
X96881024Y-120322398D01*
X96882311Y-120321538D01*
X96927762Y-120302717D01*
X96929277Y-120302416D01*
X96953831Y-120300000D01*
X97746169Y-120300000D01*
X97770723Y-120302416D01*
G37*
%TD.AperFunction*%
%TD*%
%TA.AperFunction,Conductor*%
%TO.N,+5V*%
G36*
X125411486Y-118304758D02*
G01*
X125446793Y-118319383D01*
X125480617Y-118353207D01*
X125495242Y-118388514D01*
X125500000Y-118412432D01*
X125500000Y-118887568D01*
X125495242Y-118911486D01*
X125480617Y-118946793D01*
X125446793Y-118980617D01*
X125411486Y-118995242D01*
X125387568Y-119000000D01*
X124500000Y-119000000D01*
X124470161Y-119042894D01*
X124468013Y-119045982D01*
X124468012Y-119045983D01*
X122934154Y-121250903D01*
X122924169Y-121262102D01*
X122905569Y-121278489D01*
X122879160Y-121292288D01*
X122855085Y-121298199D01*
X122840190Y-121300000D01*
X122400000Y-121300000D01*
X122400000Y-120700000D01*
X123502678Y-119045983D01*
X123966033Y-118350951D01*
X123976026Y-118339344D01*
X123976473Y-118338938D01*
X123994729Y-118322366D01*
X124021532Y-118308021D01*
X124046034Y-118301877D01*
X124061236Y-118300000D01*
X125387568Y-118300000D01*
X125411486Y-118304758D01*
G37*
%TD.AperFunction*%
%TD*%
%TA.AperFunction,Conductor*%
%TO.N,VCC*%
G36*
X92895723Y-121902416D02*
G01*
X92897238Y-121902717D01*
X92942689Y-121921538D01*
X92943976Y-121922398D01*
X92963066Y-121938066D01*
X93100000Y-122075000D01*
X93774000Y-122075000D01*
X93842121Y-122095002D01*
X93888614Y-122148658D01*
X93900000Y-122201000D01*
X93900000Y-122349000D01*
X93879998Y-122417121D01*
X93826342Y-122463614D01*
X93774000Y-122475000D01*
X92401000Y-122475000D01*
X92332879Y-122454998D01*
X92286386Y-122401342D01*
X92275000Y-122349000D01*
X92275000Y-122026000D01*
X92295002Y-121957879D01*
X92348658Y-121911386D01*
X92401000Y-121900000D01*
X92871169Y-121900000D01*
X92895723Y-121902416D01*
G37*
%TD.AperFunction*%
%TD*%
%TA.AperFunction,Conductor*%
%TO.N,VCC*%
G36*
X102555651Y-106802341D02*
G01*
X102573588Y-106809771D01*
X102590229Y-106826412D01*
X102597659Y-106844349D01*
X102600000Y-106856117D01*
X102600000Y-107676261D01*
X102599409Y-107682258D01*
X102597388Y-107692421D01*
X102592796Y-107703509D01*
X102587037Y-107712127D01*
X102583214Y-107716786D01*
X102400000Y-107900000D01*
X102400000Y-109143883D01*
X102397659Y-109155651D01*
X102390229Y-109173588D01*
X102373588Y-109190229D01*
X102355651Y-109197659D01*
X102343883Y-109200000D01*
X100856117Y-109200000D01*
X100844349Y-109197659D01*
X100826412Y-109190229D01*
X100809771Y-109173588D01*
X100802341Y-109155651D01*
X100800000Y-109143883D01*
X100800000Y-108721230D01*
X100800481Y-108715810D01*
X100802136Y-108706567D01*
X100805896Y-108696404D01*
X100810654Y-108688310D01*
X100813816Y-108683881D01*
X101387074Y-108015080D01*
X101387963Y-108014043D01*
X101400000Y-108000000D01*
X101400000Y-106856117D01*
X101402341Y-106844349D01*
X101409771Y-106826412D01*
X101426412Y-106809771D01*
X101444349Y-106802341D01*
X101456117Y-106800000D01*
X102543883Y-106800000D01*
X102555651Y-106802341D01*
G37*
%TD.AperFunction*%
%TD*%
%TA.AperFunction,Conductor*%
%TO.N,GND*%
G36*
X97706038Y-104901201D02*
G01*
X97764343Y-104912799D01*
X97786871Y-104922129D01*
X97831087Y-104951674D01*
X97848326Y-104968913D01*
X97877870Y-105013127D01*
X97887202Y-105035658D01*
X97898799Y-105093962D01*
X97900000Y-105106155D01*
X97900000Y-105293845D01*
X97898799Y-105306038D01*
X97887202Y-105364342D01*
X97877871Y-105386871D01*
X97848326Y-105431087D01*
X97831087Y-105448326D01*
X97786871Y-105477871D01*
X97764343Y-105487201D01*
X97706038Y-105498799D01*
X97693845Y-105500000D01*
X97400000Y-105500000D01*
X97300000Y-105600000D01*
X97300000Y-105786730D01*
X97281694Y-105830924D01*
X97265876Y-105842417D01*
X97174155Y-105889151D01*
X97089151Y-105974155D01*
X97075983Y-106000000D01*
X97042418Y-106065874D01*
X97006044Y-106096941D01*
X96986730Y-106100000D01*
X95600000Y-106100000D01*
X95500000Y-106200000D01*
X95500000Y-107223133D01*
X95498799Y-107235327D01*
X95489430Y-107282425D01*
X95480098Y-107304953D01*
X95456907Y-107339662D01*
X95439662Y-107356907D01*
X95404953Y-107380098D01*
X95382425Y-107389430D01*
X95335327Y-107398799D01*
X95323133Y-107400000D01*
X94976867Y-107400000D01*
X94964673Y-107398799D01*
X94917575Y-107389430D01*
X94895046Y-107380098D01*
X94850000Y-107350000D01*
X94800000Y-107300000D01*
X93906155Y-107300000D01*
X93893962Y-107298799D01*
X93835657Y-107287201D01*
X93813129Y-107277871D01*
X93768913Y-107248326D01*
X93751674Y-107231087D01*
X93722129Y-107186871D01*
X93712798Y-107164342D01*
X93701201Y-107106038D01*
X93700000Y-107093845D01*
X93700000Y-106788998D01*
X93701201Y-106776804D01*
X93712799Y-106718499D01*
X93722131Y-106695970D01*
X93755160Y-106646538D01*
X93762933Y-106637067D01*
X94251245Y-106148755D01*
X94258600Y-106142460D01*
X94296691Y-106114667D01*
X94313857Y-106105833D01*
X94358610Y-106090992D01*
X94368008Y-106088665D01*
X94391342Y-106084776D01*
X94900000Y-106000000D01*
X94900000Y-105706155D01*
X94901201Y-105693962D01*
X94912798Y-105635658D01*
X94922130Y-105613127D01*
X94930724Y-105600266D01*
X94951674Y-105568913D01*
X94968913Y-105551674D01*
X95013129Y-105522129D01*
X95035657Y-105512799D01*
X95093962Y-105501201D01*
X95106155Y-105500000D01*
X96600000Y-105500000D01*
X96700000Y-105400000D01*
X96700000Y-105106155D01*
X96701201Y-105093962D01*
X96712798Y-105035658D01*
X96722130Y-105013127D01*
X96751674Y-104968913D01*
X96768913Y-104951674D01*
X96813129Y-104922129D01*
X96835657Y-104912799D01*
X96893962Y-104901201D01*
X96906155Y-104900000D01*
X97693845Y-104900000D01*
X97706038Y-104901201D01*
G37*
%TD.AperFunction*%
%TD*%
%TA.AperFunction,Conductor*%
%TO.N,+5V*%
G36*
X103411486Y-122004758D02*
G01*
X103446793Y-122019383D01*
X103480617Y-122053207D01*
X103495242Y-122088514D01*
X103500000Y-122112432D01*
X103500000Y-124287568D01*
X103495242Y-124311486D01*
X103480617Y-124346793D01*
X103446793Y-124380617D01*
X103411486Y-124395242D01*
X103387568Y-124400000D01*
X102239284Y-124400000D01*
X102229061Y-124399158D01*
X102212058Y-124396336D01*
X102192697Y-124389727D01*
X102177522Y-124381566D01*
X102168910Y-124375976D01*
X100044525Y-122734406D01*
X100034326Y-122724477D01*
X100019419Y-122706218D01*
X100006954Y-122680834D01*
X100001621Y-122657876D01*
X100000000Y-122643734D01*
X100000000Y-122112432D01*
X100004758Y-122088514D01*
X100019383Y-122053207D01*
X100053207Y-122019383D01*
X100088514Y-122004758D01*
X100112432Y-122000000D01*
X103387568Y-122000000D01*
X103411486Y-122004758D01*
G37*
%TD.AperFunction*%
%TD*%
%TA.AperFunction,Conductor*%
%TO.N,+3V3*%
G36*
X79808583Y-118502346D02*
G01*
X79861924Y-118524471D01*
X79878570Y-118541149D01*
X79900591Y-118594534D01*
X79902914Y-118606320D01*
X79900093Y-120052206D01*
X79899408Y-120058602D01*
X79892723Y-120089731D01*
X79887493Y-120101408D01*
X79868716Y-120127124D01*
X79864408Y-120131885D01*
X79300000Y-120637500D01*
X79300000Y-121831385D01*
X79297659Y-121843151D01*
X79275585Y-121896444D01*
X79258944Y-121913085D01*
X79205651Y-121935159D01*
X79193885Y-121937500D01*
X78806115Y-121937500D01*
X78794349Y-121935159D01*
X78741056Y-121913085D01*
X78724415Y-121896444D01*
X78702341Y-121843151D01*
X78700000Y-121831385D01*
X78700000Y-120437419D01*
X78700500Y-120127118D01*
X78702952Y-118605945D01*
X78705306Y-118594197D01*
X78727424Y-118540980D01*
X78744063Y-118524368D01*
X78797315Y-118502336D01*
X78809071Y-118500000D01*
X79796802Y-118500000D01*
X79808583Y-118502346D01*
G37*
%TD.AperFunction*%
%TD*%
%TA.AperFunction,Conductor*%
%TO.N,GND*%
G36*
X121018306Y-118218306D02*
G01*
X121081694Y-118281694D01*
X121100000Y-118325888D01*
X121100000Y-119100000D01*
X121180000Y-119200000D01*
X122274112Y-119200000D01*
X122318306Y-119218306D01*
X122381694Y-119281694D01*
X122400000Y-119325888D01*
X122400000Y-120174112D01*
X122381694Y-120218306D01*
X122318306Y-120281694D01*
X122274112Y-120300000D01*
X119925888Y-120300000D01*
X119881694Y-120281694D01*
X119818306Y-120218306D01*
X119800000Y-120174112D01*
X119800000Y-119300000D01*
X119700000Y-119200000D01*
X117125888Y-119200000D01*
X117081694Y-119181694D01*
X117018306Y-119118306D01*
X117000000Y-119074112D01*
X117000000Y-118525888D01*
X117018306Y-118481694D01*
X117081694Y-118418306D01*
X117125888Y-118400000D01*
X120200000Y-118400000D01*
X120282726Y-118234549D01*
X120318864Y-118203207D01*
X120338628Y-118200000D01*
X120974112Y-118200000D01*
X121018306Y-118218306D01*
G37*
%TD.AperFunction*%
%TD*%
%TA.AperFunction,Conductor*%
%TO.N,GND*%
G36*
X117989862Y-96900046D02*
G01*
X117992660Y-96900199D01*
X117998250Y-96900505D01*
X118001587Y-96900871D01*
X118009888Y-96902244D01*
X118011518Y-96902559D01*
X118450000Y-97000000D01*
X118889284Y-97097619D01*
X118889290Y-97097620D01*
X118900000Y-97100000D01*
X119493885Y-97100000D01*
X119505651Y-97102341D01*
X119558944Y-97124415D01*
X119575585Y-97141056D01*
X119597659Y-97194349D01*
X119600000Y-97206115D01*
X119600000Y-102593885D01*
X119597659Y-102605651D01*
X119575585Y-102658944D01*
X119558944Y-102675585D01*
X119505651Y-102697659D01*
X119493885Y-102700000D01*
X118906115Y-102700000D01*
X118894349Y-102697659D01*
X118841056Y-102675585D01*
X118824415Y-102658944D01*
X118802341Y-102605651D01*
X118800000Y-102593885D01*
X118800000Y-101700000D01*
X118700000Y-101600000D01*
X115606115Y-101600000D01*
X115594349Y-101597659D01*
X115541056Y-101575585D01*
X115524415Y-101558944D01*
X115502341Y-101505651D01*
X115500000Y-101493885D01*
X115500000Y-99606115D01*
X115502341Y-99594349D01*
X115524415Y-99541056D01*
X115541056Y-99524415D01*
X115594349Y-99502341D01*
X115606115Y-99500000D01*
X118600000Y-99500000D01*
X118700000Y-99400000D01*
X118700000Y-97900000D01*
X118600000Y-97800000D01*
X115606115Y-97800000D01*
X115594349Y-97797659D01*
X115541056Y-97775585D01*
X115524415Y-97758944D01*
X115502341Y-97705651D01*
X115500000Y-97693885D01*
X115500000Y-97006115D01*
X115502341Y-96994349D01*
X115524415Y-96941056D01*
X115541056Y-96924415D01*
X115594349Y-96902341D01*
X115606115Y-96900000D01*
X117988184Y-96900000D01*
X117989862Y-96900046D01*
G37*
%TD.AperFunction*%
%TD*%
%TA.AperFunction,Conductor*%
%TO.N,V_USB_FILT*%
G36*
X121918306Y-114218306D02*
G01*
X121981694Y-114281694D01*
X122000000Y-114325888D01*
X122000000Y-115069962D01*
X121981694Y-115114156D01*
X121976547Y-115118762D01*
X121500000Y-115500000D01*
X121500000Y-116174112D01*
X121481694Y-116218306D01*
X121418306Y-116281694D01*
X121374112Y-116300000D01*
X121025888Y-116300000D01*
X120981694Y-116281694D01*
X120918306Y-116218306D01*
X120900000Y-116174112D01*
X120900000Y-115800000D01*
X120800000Y-115700000D01*
X119925888Y-115700000D01*
X119881694Y-115681694D01*
X119818306Y-115618306D01*
X119800000Y-115574112D01*
X119800000Y-115225888D01*
X119818306Y-115181694D01*
X119881694Y-115118306D01*
X119925888Y-115100000D01*
X120900000Y-115100000D01*
X121000000Y-115000000D01*
X121000000Y-114325888D01*
X121018306Y-114281694D01*
X121081694Y-114218306D01*
X121125888Y-114200000D01*
X121874112Y-114200000D01*
X121918306Y-114218306D01*
G37*
%TD.AperFunction*%
%TD*%
%TA.AperFunction,Conductor*%
%TO.N,VCC*%
G36*
X100355651Y-109602341D02*
G01*
X100373588Y-109609771D01*
X100390229Y-109626412D01*
X100397659Y-109644349D01*
X100400000Y-109656117D01*
X100400000Y-111389109D01*
X100397857Y-111400386D01*
X100390995Y-111417793D01*
X100375605Y-111434280D01*
X100364377Y-111439624D01*
X100341878Y-111441172D01*
X100324042Y-111435522D01*
X100313937Y-111430074D01*
X98821129Y-110217167D01*
X98816349Y-110212310D01*
X98809146Y-110203149D01*
X98803323Y-110190916D01*
X98800755Y-110179543D01*
X98800000Y-110172770D01*
X98800000Y-109656117D01*
X98802341Y-109644349D01*
X98809771Y-109626412D01*
X98826412Y-109609771D01*
X98844349Y-109602341D01*
X98856117Y-109600000D01*
X100343883Y-109600000D01*
X100355651Y-109602341D01*
G37*
%TD.AperFunction*%
%TD*%
%TA.AperFunction,Conductor*%
%TO.N,GND*%
G36*
X97565931Y-124320002D02*
G01*
X97586905Y-124336905D01*
X97650000Y-124400000D01*
X98160310Y-124400000D01*
X98228431Y-124420002D01*
X98249405Y-124436905D01*
X98275595Y-124463095D01*
X98309621Y-124525407D01*
X98312500Y-124552190D01*
X98312500Y-125547810D01*
X98292498Y-125615931D01*
X98275595Y-125636905D01*
X98249405Y-125663095D01*
X98187093Y-125697121D01*
X98160310Y-125700000D01*
X97650000Y-125700000D01*
X97586905Y-125763095D01*
X97524593Y-125797121D01*
X97497810Y-125800000D01*
X97164690Y-125800000D01*
X97096569Y-125779998D01*
X97075595Y-125763095D01*
X97049405Y-125736905D01*
X97015379Y-125674593D01*
X97012500Y-125647810D01*
X97012500Y-124452190D01*
X97032502Y-124384069D01*
X97049405Y-124363095D01*
X97075595Y-124336905D01*
X97137907Y-124302879D01*
X97164690Y-124300000D01*
X97497810Y-124300000D01*
X97565931Y-124320002D01*
G37*
%TD.AperFunction*%
%TD*%
%TA.AperFunction,Conductor*%
%TO.N,GND*%
G36*
X111206038Y-111601201D02*
G01*
X111264343Y-111612799D01*
X111286871Y-111622129D01*
X111331087Y-111651674D01*
X111348326Y-111668913D01*
X111377870Y-111713127D01*
X111387202Y-111735658D01*
X111398799Y-111793962D01*
X111400000Y-111806155D01*
X111400000Y-112823133D01*
X111398799Y-112835327D01*
X111389430Y-112882425D01*
X111380098Y-112904954D01*
X111350000Y-112950000D01*
X111300000Y-113000000D01*
X111300000Y-117023133D01*
X111298799Y-117035327D01*
X111289430Y-117082425D01*
X111280098Y-117104953D01*
X111256907Y-117139662D01*
X111239662Y-117156907D01*
X111204953Y-117180098D01*
X111182425Y-117189430D01*
X111135327Y-117198799D01*
X111123133Y-117200000D01*
X109476867Y-117200000D01*
X109464673Y-117198799D01*
X109417575Y-117189430D01*
X109395047Y-117180098D01*
X109360338Y-117156907D01*
X109343093Y-117139662D01*
X109319902Y-117104953D01*
X109310570Y-117082425D01*
X109301201Y-117035327D01*
X109300000Y-117023133D01*
X109300000Y-113088998D01*
X109301201Y-113076804D01*
X109301803Y-113073781D01*
X109312799Y-113018499D01*
X109322131Y-112995970D01*
X109355160Y-112946538D01*
X109362933Y-112937067D01*
X109900000Y-112400000D01*
X109900000Y-111806155D01*
X109901201Y-111793962D01*
X109912798Y-111735658D01*
X109922130Y-111713127D01*
X109951674Y-111668913D01*
X109968913Y-111651674D01*
X110013129Y-111622129D01*
X110035657Y-111612799D01*
X110093962Y-111601201D01*
X110106155Y-111600000D01*
X111193845Y-111600000D01*
X111206038Y-111601201D01*
G37*
%TD.AperFunction*%
%TD*%
%TA.AperFunction,Conductor*%
%TO.N,/SW*%
G36*
X116442121Y-119420002D02*
G01*
X116488614Y-119473658D01*
X116500000Y-119526000D01*
X116500000Y-119974000D01*
X116479998Y-120042121D01*
X116426342Y-120088614D01*
X116374000Y-120100000D01*
X116000000Y-120100000D01*
X116000000Y-120341636D01*
X115979998Y-120409757D01*
X115973557Y-120418866D01*
X115959874Y-120436505D01*
X115884604Y-120563780D01*
X115878357Y-120578216D01*
X115836688Y-120721641D01*
X115835232Y-120729609D01*
X115838052Y-120743031D01*
X115849513Y-120746000D01*
X116748000Y-120746000D01*
X116816121Y-120766002D01*
X116862614Y-120819658D01*
X116874000Y-120872000D01*
X116874000Y-121128000D01*
X116853998Y-121196121D01*
X116800342Y-121242614D01*
X116748000Y-121254000D01*
X115851576Y-121254000D01*
X115836781Y-121258344D01*
X115834937Y-121268775D01*
X115836688Y-121278359D01*
X115878357Y-121421784D01*
X115884604Y-121436220D01*
X115959874Y-121563495D01*
X115973557Y-121581134D01*
X115999506Y-121647219D01*
X116000000Y-121658364D01*
X116000000Y-126247810D01*
X115979998Y-126315931D01*
X115963095Y-126336905D01*
X115936905Y-126363095D01*
X115874593Y-126397121D01*
X115847810Y-126400000D01*
X114626000Y-126400000D01*
X114557879Y-126379998D01*
X114511386Y-126326342D01*
X114500000Y-126274000D01*
X114500000Y-122352190D01*
X114520002Y-122284069D01*
X114536905Y-122263095D01*
X114563095Y-122236905D01*
X114625407Y-122202879D01*
X114652190Y-122200000D01*
X114750000Y-122200000D01*
X114765521Y-122189653D01*
X114765523Y-122189652D01*
X114845125Y-122136583D01*
X114900000Y-122100000D01*
X114900000Y-119526000D01*
X114920002Y-119457879D01*
X114973658Y-119411386D01*
X115026000Y-119400000D01*
X116374000Y-119400000D01*
X116442121Y-119420002D01*
G37*
%TD.AperFunction*%
%TD*%
%TA.AperFunction,Conductor*%
%TO.N,GND*%
G36*
X97718306Y-116918306D02*
G01*
X97800000Y-117000000D01*
X98537500Y-117000000D01*
X98581694Y-117018306D01*
X98600000Y-117062500D01*
X98600000Y-117137500D01*
X98581694Y-117181694D01*
X98537500Y-117200000D01*
X97810143Y-117200000D01*
X97790379Y-117196793D01*
X97542736Y-117114245D01*
X97506598Y-117082903D01*
X97500000Y-117054952D01*
X97500000Y-116962500D01*
X97518306Y-116918306D01*
X97562500Y-116900000D01*
X97674112Y-116900000D01*
X97718306Y-116918306D01*
G37*
%TD.AperFunction*%
%TD*%
%TA.AperFunction,Conductor*%
%TO.N,GND*%
G36*
X126461549Y-106000591D02*
G01*
X126470348Y-106002341D01*
X126490848Y-106006419D01*
X126501932Y-106011010D01*
X126526770Y-106027607D01*
X126531430Y-106031430D01*
X126568570Y-106068570D01*
X126572393Y-106073230D01*
X126588990Y-106098068D01*
X126593582Y-106109154D01*
X126599409Y-106138451D01*
X126600000Y-106144449D01*
X126600000Y-106400000D01*
X126768570Y-106568570D01*
X126772393Y-106573230D01*
X126788990Y-106598068D01*
X126793582Y-106609154D01*
X126799409Y-106638451D01*
X126800000Y-106644449D01*
X126800000Y-106793885D01*
X126797659Y-106805651D01*
X126775585Y-106858944D01*
X126758944Y-106875585D01*
X126705651Y-106897659D01*
X126693885Y-106900000D01*
X125644449Y-106900000D01*
X125638451Y-106899409D01*
X125626321Y-106896996D01*
X125609152Y-106893581D01*
X125598068Y-106888990D01*
X125573230Y-106872393D01*
X125568570Y-106868570D01*
X125500000Y-106800000D01*
X124706115Y-106800000D01*
X124694349Y-106797659D01*
X124641056Y-106775585D01*
X124624415Y-106758944D01*
X124602341Y-106705651D01*
X124600000Y-106693885D01*
X124600000Y-106106115D01*
X124602341Y-106094349D01*
X124624415Y-106041056D01*
X124641056Y-106024415D01*
X124694349Y-106002341D01*
X124706115Y-106000000D01*
X126455551Y-106000000D01*
X126461549Y-106000591D01*
G37*
%TD.AperFunction*%
%TD*%
%TA.AperFunction,Conductor*%
%TO.N,GND*%
G36*
X80255651Y-122139841D02*
G01*
X80308944Y-122161915D01*
X80325585Y-122178556D01*
X80347659Y-122231849D01*
X80350000Y-122243615D01*
X80350000Y-124437500D01*
X80450000Y-124537500D01*
X81243885Y-124537500D01*
X81255651Y-124539841D01*
X81308944Y-124561915D01*
X81325585Y-124578556D01*
X81347659Y-124631849D01*
X81350000Y-124643615D01*
X81350000Y-125231385D01*
X81347659Y-125243151D01*
X81325585Y-125296444D01*
X81308944Y-125313085D01*
X81255651Y-125335159D01*
X81243885Y-125337500D01*
X80256115Y-125337500D01*
X80244349Y-125335159D01*
X80191056Y-125313085D01*
X80174415Y-125296444D01*
X80152341Y-125243151D01*
X80150000Y-125231385D01*
X80150000Y-124737500D01*
X79681430Y-124268930D01*
X79677607Y-124264270D01*
X79661010Y-124239432D01*
X79656418Y-124228346D01*
X79650591Y-124199049D01*
X79650000Y-124193051D01*
X79650000Y-122243615D01*
X79652341Y-122231849D01*
X79674415Y-122178556D01*
X79691056Y-122161915D01*
X79744349Y-122139841D01*
X79756115Y-122137500D01*
X80243885Y-122137500D01*
X80255651Y-122139841D01*
G37*
%TD.AperFunction*%
%TD*%
%TA.AperFunction,Conductor*%
%TO.N,GND*%
G36*
X96059006Y-109209006D02*
G01*
X96140994Y-109290994D01*
X96150000Y-109312738D01*
X96150000Y-109700000D01*
X96241889Y-109791889D01*
X96250817Y-109811442D01*
X96299000Y-110485994D01*
X96290072Y-110509928D01*
X96209006Y-110590994D01*
X96187262Y-110600000D01*
X94812738Y-110600000D01*
X94790994Y-110590994D01*
X94709006Y-110509006D01*
X94700000Y-110487262D01*
X94700000Y-109816457D01*
X94709006Y-109794713D01*
X94713691Y-109790873D01*
X94850000Y-109700000D01*
X94850000Y-109312738D01*
X94859006Y-109290994D01*
X94940994Y-109209006D01*
X94962738Y-109200000D01*
X96037262Y-109200000D01*
X96059006Y-109209006D01*
G37*
%TD.AperFunction*%
%TD*%
%TA.AperFunction,Conductor*%
%TO.N,GND*%
G36*
X96706038Y-96001201D02*
G01*
X96764343Y-96012799D01*
X96786871Y-96022129D01*
X96831087Y-96051674D01*
X96848326Y-96068913D01*
X96877870Y-96113127D01*
X96887202Y-96135658D01*
X96898799Y-96193962D01*
X96900000Y-96206155D01*
X96900000Y-97393845D01*
X96898799Y-97406038D01*
X96887202Y-97464342D01*
X96877871Y-97486871D01*
X96848326Y-97531087D01*
X96831087Y-97548326D01*
X96786871Y-97577871D01*
X96764343Y-97587201D01*
X96706038Y-97598799D01*
X96693845Y-97600000D01*
X94006155Y-97600000D01*
X93993962Y-97598799D01*
X93935657Y-97587201D01*
X93913129Y-97577871D01*
X93868913Y-97548326D01*
X93851674Y-97531087D01*
X93822129Y-97486871D01*
X93812798Y-97464342D01*
X93801201Y-97406038D01*
X93800000Y-97393845D01*
X93800000Y-96206155D01*
X93801201Y-96193962D01*
X93812798Y-96135658D01*
X93822130Y-96113127D01*
X93851674Y-96068913D01*
X93868913Y-96051674D01*
X93913129Y-96022129D01*
X93935657Y-96012799D01*
X93993962Y-96001201D01*
X94006155Y-96000000D01*
X96693845Y-96000000D01*
X96706038Y-96001201D01*
G37*
%TD.AperFunction*%
%TD*%
%TA.AperFunction,Conductor*%
%TO.N,GND*%
G36*
X75475651Y-111502341D02*
G01*
X75528944Y-111524415D01*
X75545585Y-111541056D01*
X75567659Y-111594349D01*
X75570000Y-111606115D01*
X75570000Y-114193885D01*
X75567659Y-114205651D01*
X75545585Y-114258944D01*
X75528944Y-114275585D01*
X75475651Y-114297659D01*
X75463885Y-114300000D01*
X74376115Y-114300000D01*
X74364349Y-114297659D01*
X74311056Y-114275585D01*
X74294415Y-114258944D01*
X74272341Y-114205651D01*
X74270000Y-114193885D01*
X74270000Y-111606115D01*
X74272341Y-111594349D01*
X74294415Y-111541056D01*
X74311056Y-111524415D01*
X74364349Y-111502341D01*
X74376115Y-111500000D01*
X75463885Y-111500000D01*
X75475651Y-111502341D01*
G37*
%TD.AperFunction*%
%TD*%
%TA.AperFunction,Conductor*%
%TO.N,GND*%
G36*
X111145054Y-120303106D02*
G01*
X111226484Y-120357516D01*
X111280894Y-120438946D01*
X111300000Y-120535000D01*
X111300000Y-126733000D01*
X111280894Y-126829054D01*
X111226484Y-126910484D01*
X111145054Y-126964894D01*
X111049000Y-126984000D01*
X109551000Y-126984000D01*
X109454946Y-126964894D01*
X109373516Y-126910484D01*
X109319106Y-126829054D01*
X109300000Y-126733000D01*
X109300000Y-120535000D01*
X109319106Y-120438946D01*
X109373516Y-120357516D01*
X109454946Y-120303106D01*
X109551000Y-120284000D01*
X111049000Y-120284000D01*
X111145054Y-120303106D01*
G37*
%TD.AperFunction*%
%TD*%
%TA.AperFunction,Conductor*%
%TO.N,BATT_POWER*%
G36*
X98723194Y-118001201D02*
G01*
X98747199Y-118005976D01*
X98781501Y-118012799D01*
X98804030Y-118022131D01*
X98853462Y-118055160D01*
X98862933Y-118062933D01*
X99537067Y-118737067D01*
X99544840Y-118746538D01*
X99577869Y-118795970D01*
X99587201Y-118818499D01*
X99598799Y-118876804D01*
X99600000Y-118888998D01*
X99600000Y-121493845D01*
X99598799Y-121506038D01*
X99587202Y-121564342D01*
X99577871Y-121586871D01*
X99548326Y-121631087D01*
X99531087Y-121648326D01*
X99486871Y-121677871D01*
X99464343Y-121687201D01*
X99406038Y-121698799D01*
X99393845Y-121700000D01*
X98306155Y-121700000D01*
X98293962Y-121698799D01*
X98235657Y-121687201D01*
X98213129Y-121677871D01*
X98168913Y-121648326D01*
X98151674Y-121631087D01*
X98122129Y-121586871D01*
X98112798Y-121564342D01*
X98101201Y-121506038D01*
X98100000Y-121493845D01*
X98100000Y-119500000D01*
X98000000Y-119400000D01*
X97306155Y-119400000D01*
X97293962Y-119398799D01*
X97235657Y-119387201D01*
X97213129Y-119377871D01*
X97168913Y-119348326D01*
X97151674Y-119331087D01*
X97122129Y-119286871D01*
X97112798Y-119264342D01*
X97101201Y-119206038D01*
X97100000Y-119193845D01*
X97100000Y-118206155D01*
X97101201Y-118193962D01*
X97112798Y-118135658D01*
X97122130Y-118113127D01*
X97151674Y-118068913D01*
X97168913Y-118051674D01*
X97213129Y-118022129D01*
X97235657Y-118012799D01*
X97293962Y-118001201D01*
X97306155Y-118000000D01*
X98711002Y-118000000D01*
X98723194Y-118001201D01*
G37*
%TD.AperFunction*%
%TD*%
%TA.AperFunction,Conductor*%
%TO.N,BATT+*%
G36*
X93106038Y-115701201D02*
G01*
X93164343Y-115712799D01*
X93186871Y-115722129D01*
X93231087Y-115751674D01*
X93248326Y-115768913D01*
X93277870Y-115813127D01*
X93287202Y-115835658D01*
X93298799Y-115893962D01*
X93300000Y-115906155D01*
X93300000Y-116600000D01*
X93400000Y-116700000D01*
X94400000Y-116700000D01*
X94450000Y-116650000D01*
X94495045Y-116619902D01*
X94517575Y-116610570D01*
X94564673Y-116601201D01*
X94576867Y-116600000D01*
X95487568Y-116600000D01*
X95511486Y-116604758D01*
X95546793Y-116619383D01*
X95580618Y-116653208D01*
X95590093Y-116676083D01*
X95590093Y-116723917D01*
X95580618Y-116746792D01*
X95546793Y-116780617D01*
X95511486Y-116795242D01*
X95487568Y-116800000D01*
X94600000Y-116800000D01*
X94500000Y-116900000D01*
X94500000Y-117900000D01*
X94600000Y-118000000D01*
X96093845Y-118000000D01*
X96106038Y-118001201D01*
X96164343Y-118012799D01*
X96186871Y-118022129D01*
X96231087Y-118051674D01*
X96248326Y-118068913D01*
X96277870Y-118113127D01*
X96287202Y-118135658D01*
X96298799Y-118193962D01*
X96300000Y-118206155D01*
X96300000Y-119193845D01*
X96298799Y-119206038D01*
X96287202Y-119264342D01*
X96277871Y-119286871D01*
X96248326Y-119331087D01*
X96231087Y-119348326D01*
X96186871Y-119377871D01*
X96164343Y-119387201D01*
X96106038Y-119398799D01*
X96093845Y-119400000D01*
X95365158Y-119400000D01*
X95356003Y-119399326D01*
X95311751Y-119392773D01*
X95294229Y-119387468D01*
X95253773Y-119368372D01*
X95245787Y-119363858D01*
X93895480Y-118463653D01*
X93883873Y-118453659D01*
X93834200Y-118398940D01*
X93819853Y-118372133D01*
X93801877Y-118300448D01*
X93800000Y-118285246D01*
X93800000Y-117900000D01*
X92437043Y-116970711D01*
X91693637Y-116463843D01*
X91682247Y-116453854D01*
X91633503Y-116399307D01*
X91619445Y-116372706D01*
X91601838Y-116301711D01*
X91600000Y-116286667D01*
X91600000Y-115906155D01*
X91601201Y-115893962D01*
X91612798Y-115835658D01*
X91622130Y-115813127D01*
X91651674Y-115768913D01*
X91668913Y-115751674D01*
X91713129Y-115722129D01*
X91735657Y-115712799D01*
X91793962Y-115701201D01*
X91806155Y-115700000D01*
X93093845Y-115700000D01*
X93106038Y-115701201D01*
G37*
%TD.AperFunction*%
%TD*%
M02*
