%TF.GenerationSoftware,KiCad,Pcbnew,(6.0.9)*%
%TF.CreationDate,2022-12-01T07:32:15+10:00*%
%TF.ProjectId,NRF52Motherboard,4e524635-324d-46f7-9468-6572626f6172,rev?*%
%TF.SameCoordinates,Original*%
%TF.FileFunction,Legend,Top*%
%TF.FilePolarity,Positive*%
%FSLAX46Y46*%
G04 Gerber Fmt 4.6, Leading zero omitted, Abs format (unit mm)*
G04 Created by KiCad (PCBNEW (6.0.9)) date 2022-12-01 07:32:15*
%MOMM*%
%LPD*%
G01*
G04 APERTURE LIST*
%ADD10C,0.150000*%
%ADD11C,0.070000*%
%ADD12C,0.300000*%
%ADD13C,0.187500*%
%ADD14C,0.100000*%
%ADD15C,0.250000*%
%ADD16C,0.120000*%
%ADD17C,0.127000*%
%ADD18C,0.200000*%
G04 APERTURE END LIST*
D10*
X111519047Y-113071428D02*
X112280952Y-113071428D01*
X88319047Y-116771428D02*
X89080952Y-116771428D01*
X86319047Y-116771428D02*
X87080952Y-116771428D01*
X86700000Y-117152380D02*
X86700000Y-116390476D01*
X104319047Y-113071428D02*
X105080952Y-113071428D01*
X104700000Y-113452380D02*
X104700000Y-112690476D01*
D11*
X118000000Y-117000000D02*
G75*
G03*
X118500000Y-116500000I0J500000D01*
G01*
X115700000Y-116500000D02*
X115700000Y-115000000D01*
X116200000Y-114500000D02*
G75*
G03*
X115700000Y-115000000I0J-500000D01*
G01*
D10*
X116200000Y-116000000D02*
X118000000Y-116000000D01*
X118000000Y-116000000D02*
X118000000Y-116800000D01*
X118000000Y-116800000D02*
X116200000Y-116800000D01*
X116200000Y-116800000D02*
X116200000Y-116000000D01*
D11*
X116200000Y-117000000D02*
X118000000Y-117000000D01*
X118500000Y-115000000D02*
G75*
G03*
X118000000Y-114500000I-500000J0D01*
G01*
X118500000Y-115000000D02*
X118500000Y-116500000D01*
X115700000Y-116500000D02*
G75*
G03*
X116200000Y-117000000I500000J0D01*
G01*
X116200000Y-114500000D02*
X118000000Y-114500000D01*
D12*
X78470000Y-96457142D02*
X78845000Y-93457142D01*
X79327142Y-96457142D01*
X79702142Y-93457142D01*
X80898571Y-96457142D02*
X80577142Y-95028571D01*
X80041428Y-96457142D02*
X80416428Y-93457142D01*
X80987857Y-93457142D01*
X81112857Y-93600000D01*
X81166428Y-93742857D01*
X81202142Y-94028571D01*
X81148571Y-94457142D01*
X81041428Y-94742857D01*
X80952142Y-94885714D01*
X80791428Y-95028571D01*
X80220000Y-95028571D01*
X82237857Y-94885714D02*
X81737857Y-94885714D01*
X81541428Y-96457142D02*
X81916428Y-93457142D01*
X82630714Y-93457142D01*
X83916428Y-93457142D02*
X83202142Y-93457142D01*
X82952142Y-94885714D01*
X83041428Y-94742857D01*
X83202142Y-94600000D01*
X83559285Y-94600000D01*
X83684285Y-94742857D01*
X83737857Y-94885714D01*
X83773571Y-95171428D01*
X83684285Y-95885714D01*
X83577142Y-96171428D01*
X83487857Y-96314285D01*
X83327142Y-96457142D01*
X82970000Y-96457142D01*
X82845000Y-96314285D01*
X82791428Y-96171428D01*
X84523571Y-93742857D02*
X84612857Y-93600000D01*
X84773571Y-93457142D01*
X85130714Y-93457142D01*
X85255714Y-93600000D01*
X85309285Y-93742857D01*
X85345000Y-94028571D01*
X85309285Y-94314285D01*
X85184285Y-94742857D01*
X84112857Y-96457142D01*
X85041428Y-96457142D01*
X87523571Y-94885714D02*
X87720000Y-95028571D01*
X87773571Y-95171428D01*
X87809285Y-95457142D01*
X87755714Y-95885714D01*
X87648571Y-96171428D01*
X87559285Y-96314285D01*
X87398571Y-96457142D01*
X86827142Y-96457142D01*
X87202142Y-93457142D01*
X87702142Y-93457142D01*
X87827142Y-93600000D01*
X87880714Y-93742857D01*
X87916428Y-94028571D01*
X87880714Y-94314285D01*
X87773571Y-94600000D01*
X87684285Y-94742857D01*
X87523571Y-94885714D01*
X87023571Y-94885714D01*
X89220000Y-94457142D02*
X88970000Y-96457142D01*
X88577142Y-94457142D02*
X88380714Y-96028571D01*
X88416428Y-96314285D01*
X88541428Y-96457142D01*
X88755714Y-96457142D01*
X88916428Y-96314285D01*
X89005714Y-96171428D01*
X90327142Y-96457142D02*
X90702142Y-93457142D01*
X90345000Y-96314285D02*
X90184285Y-96457142D01*
X89898571Y-96457142D01*
X89773571Y-96314285D01*
X89720000Y-96171428D01*
X89684285Y-95885714D01*
X89791428Y-95028571D01*
X89898571Y-94742857D01*
X89987857Y-94600000D01*
X90148571Y-94457142D01*
X90434285Y-94457142D01*
X90559285Y-94600000D01*
X91684285Y-96457142D02*
X92059285Y-93457142D01*
X91702142Y-96314285D02*
X91541428Y-96457142D01*
X91255714Y-96457142D01*
X91130714Y-96314285D01*
X91077142Y-96171428D01*
X91041428Y-95885714D01*
X91148571Y-95028571D01*
X91255714Y-94742857D01*
X91345000Y-94600000D01*
X91505714Y-94457142D01*
X91791428Y-94457142D01*
X91916428Y-94600000D01*
X92505714Y-94457142D02*
X92612857Y-96457142D01*
X93220000Y-94457142D02*
X92612857Y-96457142D01*
X92380714Y-97171428D01*
X92291428Y-97314285D01*
X92130714Y-97457142D01*
D13*
X77763541Y-103652380D02*
X77406398Y-103652380D01*
X77531398Y-102652380D01*
X78079017Y-103128571D02*
X78329017Y-103128571D01*
X78370684Y-103652380D02*
X78013541Y-103652380D01*
X78138541Y-102652380D01*
X78495684Y-102652380D01*
X78692113Y-103652380D02*
X78817113Y-102652380D01*
X78995684Y-102652380D01*
X79096875Y-102700000D01*
X79156398Y-102795238D01*
X79180208Y-102890476D01*
X79192113Y-103080952D01*
X79174255Y-103223809D01*
X79114732Y-103414285D01*
X79067113Y-103509523D01*
X78983779Y-103604761D01*
X78870684Y-103652380D01*
X78692113Y-103652380D01*
X80090922Y-102747619D02*
X80132589Y-102700000D01*
X80209970Y-102652380D01*
X80388541Y-102652380D01*
X80454017Y-102700000D01*
X80483779Y-102747619D01*
X80507589Y-102842857D01*
X80495684Y-102938095D01*
X80442113Y-103080952D01*
X79942113Y-103652380D01*
X80406398Y-103652380D01*
X100239285Y-124557142D02*
X100203571Y-124604761D01*
X100096428Y-124652380D01*
X100025000Y-124652380D01*
X99917857Y-124604761D01*
X99846428Y-124509523D01*
X99810714Y-124414285D01*
X99775000Y-124223809D01*
X99775000Y-124080952D01*
X99810714Y-123890476D01*
X99846428Y-123795238D01*
X99917857Y-123700000D01*
X100025000Y-123652380D01*
X100096428Y-123652380D01*
X100203571Y-123700000D01*
X100239285Y-123747619D01*
X100560714Y-124652380D02*
X100560714Y-123652380D01*
X100560714Y-124128571D02*
X100989285Y-124128571D01*
X100989285Y-124652380D02*
X100989285Y-123652380D01*
X101775000Y-124652380D02*
X101525000Y-124176190D01*
X101346428Y-124652380D02*
X101346428Y-123652380D01*
X101632142Y-123652380D01*
X101703571Y-123700000D01*
X101739285Y-123747619D01*
X101775000Y-123842857D01*
X101775000Y-123985714D01*
X101739285Y-124080952D01*
X101703571Y-124128571D01*
X101632142Y-124176190D01*
X101346428Y-124176190D01*
X102489285Y-123700000D02*
X102417857Y-123652380D01*
X102310714Y-123652380D01*
X102203571Y-123700000D01*
X102132142Y-123795238D01*
X102096428Y-123890476D01*
X102060714Y-124080952D01*
X102060714Y-124223809D01*
X102096428Y-124414285D01*
X102132142Y-124509523D01*
X102203571Y-124604761D01*
X102310714Y-124652380D01*
X102382142Y-124652380D01*
X102489285Y-124604761D01*
X102525000Y-124557142D01*
X102525000Y-124223809D01*
X102382142Y-124223809D01*
X113693422Y-95904761D02*
X113794613Y-95952380D01*
X113973184Y-95952380D01*
X114050565Y-95904761D01*
X114092232Y-95857142D01*
X114139851Y-95761904D01*
X114151755Y-95666666D01*
X114127946Y-95571428D01*
X114098184Y-95523809D01*
X114032708Y-95476190D01*
X113895803Y-95428571D01*
X113830327Y-95380952D01*
X113800565Y-95333333D01*
X113776755Y-95238095D01*
X113788660Y-95142857D01*
X113836279Y-95047619D01*
X113877946Y-95000000D01*
X113955327Y-94952380D01*
X114133898Y-94952380D01*
X114235089Y-95000000D01*
X114491041Y-94952380D02*
X114544613Y-95952380D01*
X114776755Y-95238095D01*
X114830327Y-95952380D01*
X115133898Y-94952380D01*
X115294613Y-95952380D02*
X115419613Y-94952380D01*
X115598184Y-94952380D01*
X115699375Y-95000000D01*
X115758898Y-95095238D01*
X115782708Y-95190476D01*
X115794613Y-95380952D01*
X115776755Y-95523809D01*
X115717232Y-95714285D01*
X115669613Y-95809523D01*
X115586279Y-95904761D01*
X115473184Y-95952380D01*
X115294613Y-95952380D01*
X107752380Y-123464285D02*
X108466666Y-123464285D01*
X108609523Y-123500000D01*
X108704761Y-123571428D01*
X108752380Y-123678571D01*
X108752380Y-123750000D01*
X108752380Y-122750000D02*
X108752380Y-123107142D01*
X107752380Y-123107142D01*
X108657142Y-122071428D02*
X108704761Y-122107142D01*
X108752380Y-122214285D01*
X108752380Y-122285714D01*
X108704761Y-122392857D01*
X108609523Y-122464285D01*
X108514285Y-122500000D01*
X108323809Y-122535714D01*
X108180952Y-122535714D01*
X107990476Y-122500000D01*
X107895238Y-122464285D01*
X107800000Y-122392857D01*
X107752380Y-122285714D01*
X107752380Y-122214285D01*
X107800000Y-122107142D01*
X107847619Y-122071428D01*
X107752380Y-121535714D02*
X108466666Y-121535714D01*
X108609523Y-121571428D01*
X108704761Y-121642857D01*
X108752380Y-121750000D01*
X108752380Y-121821428D01*
X108752380Y-120821428D02*
X108752380Y-121178571D01*
X107752380Y-121178571D01*
X108657142Y-120142857D02*
X108704761Y-120178571D01*
X108752380Y-120285714D01*
X108752380Y-120357142D01*
X108704761Y-120464285D01*
X108609523Y-120535714D01*
X108514285Y-120571428D01*
X108323809Y-120607142D01*
X108180952Y-120607142D01*
X107990476Y-120571428D01*
X107895238Y-120535714D01*
X107800000Y-120464285D01*
X107752380Y-120357142D01*
X107752380Y-120285714D01*
X107800000Y-120178571D01*
X107847619Y-120142857D01*
X107752380Y-119607142D02*
X108466666Y-119607142D01*
X108609523Y-119642857D01*
X108704761Y-119714285D01*
X108752380Y-119821428D01*
X108752380Y-119892857D01*
X108752380Y-118892857D02*
X108752380Y-119250000D01*
X107752380Y-119250000D01*
X108657142Y-118214285D02*
X108704761Y-118250000D01*
X108752380Y-118357142D01*
X108752380Y-118428571D01*
X108704761Y-118535714D01*
X108609523Y-118607142D01*
X108514285Y-118642857D01*
X108323809Y-118678571D01*
X108180952Y-118678571D01*
X107990476Y-118642857D01*
X107895238Y-118607142D01*
X107800000Y-118535714D01*
X107752380Y-118428571D01*
X107752380Y-118357142D01*
X107800000Y-118250000D01*
X107847619Y-118214285D01*
X107752380Y-117678571D02*
X108466666Y-117678571D01*
X108609523Y-117714285D01*
X108704761Y-117785714D01*
X108752380Y-117892857D01*
X108752380Y-117964285D01*
X108752380Y-116964285D02*
X108752380Y-117321428D01*
X107752380Y-117321428D01*
X108657142Y-116285714D02*
X108704761Y-116321428D01*
X108752380Y-116428571D01*
X108752380Y-116500000D01*
X108704761Y-116607142D01*
X108609523Y-116678571D01*
X108514285Y-116714285D01*
X108323809Y-116750000D01*
X108180952Y-116750000D01*
X107990476Y-116714285D01*
X107895238Y-116678571D01*
X107800000Y-116607142D01*
X107752380Y-116500000D01*
X107752380Y-116428571D01*
X107800000Y-116321428D01*
X107847619Y-116285714D01*
D14*
X116207857Y-115752380D02*
X115950714Y-115752380D01*
X116079285Y-115752380D02*
X116079285Y-114752380D01*
X116036428Y-114895238D01*
X115993571Y-114990476D01*
X115950714Y-115038095D01*
X116379285Y-114847619D02*
X116400714Y-114800000D01*
X116443571Y-114752380D01*
X116550714Y-114752380D01*
X116593571Y-114800000D01*
X116615000Y-114847619D01*
X116636428Y-114942857D01*
X116636428Y-115038095D01*
X116615000Y-115180952D01*
X116357857Y-115752380D01*
X116636428Y-115752380D01*
X116765000Y-114752380D02*
X116915000Y-115752380D01*
X117065000Y-114752380D01*
X117557857Y-115228571D02*
X117707857Y-115228571D01*
X117772142Y-115752380D02*
X117557857Y-115752380D01*
X117557857Y-114752380D01*
X117772142Y-114752380D01*
X117965000Y-115752380D02*
X117965000Y-114752380D01*
X118222142Y-115752380D01*
X118222142Y-114752380D01*
D13*
X119694613Y-96052380D02*
X119504136Y-95576190D01*
X119266041Y-96052380D02*
X119391041Y-95052380D01*
X119676755Y-95052380D01*
X119742232Y-95100000D01*
X119771994Y-95147619D01*
X119795803Y-95242857D01*
X119777946Y-95385714D01*
X119730327Y-95480952D01*
X119688660Y-95528571D01*
X119611279Y-95576190D01*
X119325565Y-95576190D01*
X119986279Y-96004761D02*
X120087470Y-96052380D01*
X120266041Y-96052380D01*
X120343422Y-96004761D01*
X120385089Y-95957142D01*
X120432708Y-95861904D01*
X120444613Y-95766666D01*
X120420803Y-95671428D01*
X120391041Y-95623809D01*
X120325565Y-95576190D01*
X120188660Y-95528571D01*
X120123184Y-95480952D01*
X120093422Y-95433333D01*
X120069613Y-95338095D01*
X120081517Y-95242857D01*
X120129136Y-95147619D01*
X120170803Y-95100000D01*
X120248184Y-95052380D01*
X120426755Y-95052380D01*
X120527946Y-95100000D01*
X120748184Y-95052380D02*
X121176755Y-95052380D01*
X120837470Y-96052380D02*
X120962470Y-95052380D01*
X77763541Y-101552380D02*
X77406398Y-101552380D01*
X77531398Y-100552380D01*
X78079017Y-101028571D02*
X78329017Y-101028571D01*
X78370684Y-101552380D02*
X78013541Y-101552380D01*
X78138541Y-100552380D01*
X78495684Y-100552380D01*
X78692113Y-101552380D02*
X78817113Y-100552380D01*
X78995684Y-100552380D01*
X79096875Y-100600000D01*
X79156398Y-100695238D01*
X79180208Y-100790476D01*
X79192113Y-100980952D01*
X79174255Y-101123809D01*
X79114732Y-101314285D01*
X79067113Y-101409523D01*
X78983779Y-101504761D01*
X78870684Y-101552380D01*
X78692113Y-101552380D01*
X80406398Y-101552380D02*
X79977827Y-101552380D01*
X80192113Y-101552380D02*
X80317113Y-100552380D01*
X80227827Y-100695238D01*
X80144494Y-100790476D01*
X80067113Y-100838095D01*
D15*
X72467232Y-117747380D02*
X72592232Y-116747380D01*
X73038660Y-117747380D02*
X72681517Y-117175952D01*
X73163660Y-116747380D02*
X72520803Y-117318809D01*
X73425565Y-117699761D02*
X73562470Y-117747380D01*
X73800565Y-117747380D01*
X73901755Y-117699761D01*
X73955327Y-117652142D01*
X74014851Y-117556904D01*
X74026755Y-117461666D01*
X73991041Y-117366428D01*
X73949375Y-117318809D01*
X73860089Y-117271190D01*
X73675565Y-117223571D01*
X73586279Y-117175952D01*
X73544613Y-117128333D01*
X73508898Y-117033095D01*
X73520803Y-116937857D01*
X73580327Y-116842619D01*
X73633898Y-116795000D01*
X73735089Y-116747380D01*
X73973184Y-116747380D01*
X74110089Y-116795000D01*
X71538660Y-119357380D02*
X70967232Y-119357380D01*
X71252946Y-119357380D02*
X71377946Y-118357380D01*
X71264851Y-118500238D01*
X71157708Y-118595476D01*
X71056517Y-118643095D01*
X72491041Y-119357380D02*
X71919613Y-119357380D01*
X72205327Y-119357380D02*
X72330327Y-118357380D01*
X72217232Y-118500238D01*
X72110089Y-118595476D01*
X72008898Y-118643095D01*
X73764851Y-118309761D02*
X72746994Y-119595476D01*
X74032708Y-118452619D02*
X74086279Y-118405000D01*
X74187470Y-118357380D01*
X74425565Y-118357380D01*
X74514851Y-118405000D01*
X74556517Y-118452619D01*
X74592232Y-118547857D01*
X74580327Y-118643095D01*
X74514851Y-118785952D01*
X73871994Y-119357380D01*
X74491041Y-119357380D01*
X74985089Y-118452619D02*
X75038660Y-118405000D01*
X75139851Y-118357380D01*
X75377946Y-118357380D01*
X75467232Y-118405000D01*
X75508898Y-118452619D01*
X75544613Y-118547857D01*
X75532708Y-118643095D01*
X75467232Y-118785952D01*
X74824375Y-119357380D01*
X75443422Y-119357380D01*
D13*
X112076755Y-110952380D02*
X111648184Y-110952380D01*
X111862470Y-110952380D02*
X111987470Y-109952380D01*
X111898184Y-110095238D01*
X111814851Y-110190476D01*
X111737470Y-110238095D01*
X112475565Y-110047619D02*
X112517232Y-110000000D01*
X112594613Y-109952380D01*
X112773184Y-109952380D01*
X112838660Y-110000000D01*
X112868422Y-110047619D01*
X112892232Y-110142857D01*
X112880327Y-110238095D01*
X112826755Y-110380952D01*
X112326755Y-110952380D01*
X112791041Y-110952380D01*
X113130327Y-109952380D02*
X113255327Y-110952380D01*
X113630327Y-109952380D01*
X114326755Y-110952380D02*
X114451755Y-109952380D01*
X114737470Y-109952380D01*
X114802946Y-110000000D01*
X114832708Y-110047619D01*
X114856517Y-110142857D01*
X114838660Y-110285714D01*
X114791041Y-110380952D01*
X114749375Y-110428571D01*
X114671994Y-110476190D01*
X114386279Y-110476190D01*
X115130327Y-109952380D02*
X115183898Y-110952380D01*
X115416041Y-110238095D01*
X115469613Y-110952380D01*
X115773184Y-109952380D01*
X116362470Y-110952380D02*
X116171994Y-110476190D01*
X115933898Y-110952380D02*
X116058898Y-109952380D01*
X116344613Y-109952380D01*
X116410089Y-110000000D01*
X116439851Y-110047619D01*
X116463660Y-110142857D01*
X116445803Y-110285714D01*
X116398184Y-110380952D01*
X116356517Y-110428571D01*
X116279136Y-110476190D01*
X115993422Y-110476190D01*
X77763541Y-105752380D02*
X77406398Y-105752380D01*
X77531398Y-104752380D01*
X78079017Y-105228571D02*
X78329017Y-105228571D01*
X78370684Y-105752380D02*
X78013541Y-105752380D01*
X78138541Y-104752380D01*
X78495684Y-104752380D01*
X78692113Y-105752380D02*
X78817113Y-104752380D01*
X78995684Y-104752380D01*
X79096875Y-104800000D01*
X79156398Y-104895238D01*
X79180208Y-104990476D01*
X79192113Y-105180952D01*
X79174255Y-105323809D01*
X79114732Y-105514285D01*
X79067113Y-105609523D01*
X78983779Y-105704761D01*
X78870684Y-105752380D01*
X78692113Y-105752380D01*
X80067113Y-104752380D02*
X80531398Y-104752380D01*
X80233779Y-105133333D01*
X80340922Y-105133333D01*
X80406398Y-105180952D01*
X80436160Y-105228571D01*
X80459970Y-105323809D01*
X80430208Y-105561904D01*
X80382589Y-105657142D01*
X80340922Y-105704761D01*
X80263541Y-105752380D01*
X80049255Y-105752380D01*
X79983779Y-105704761D01*
X79954017Y-105657142D01*
X77763541Y-107852380D02*
X77406398Y-107852380D01*
X77531398Y-106852380D01*
X78079017Y-107328571D02*
X78329017Y-107328571D01*
X78370684Y-107852380D02*
X78013541Y-107852380D01*
X78138541Y-106852380D01*
X78495684Y-106852380D01*
X78692113Y-107852380D02*
X78817113Y-106852380D01*
X78995684Y-106852380D01*
X79096875Y-106900000D01*
X79156398Y-106995238D01*
X79180208Y-107090476D01*
X79192113Y-107280952D01*
X79174255Y-107423809D01*
X79114732Y-107614285D01*
X79067113Y-107709523D01*
X78983779Y-107804761D01*
X78870684Y-107852380D01*
X78692113Y-107852380D01*
X80418303Y-107185714D02*
X80334970Y-107852380D01*
X80287351Y-106804761D02*
X80019494Y-107519047D01*
X80483779Y-107519047D01*
X123919613Y-102952380D02*
X123818422Y-103761904D01*
X123842232Y-103857142D01*
X123871994Y-103904761D01*
X123937470Y-103952380D01*
X124080327Y-103952380D01*
X124157708Y-103904761D01*
X124199375Y-103857142D01*
X124246994Y-103761904D01*
X124348184Y-102952380D01*
X124550565Y-103904761D02*
X124651755Y-103952380D01*
X124830327Y-103952380D01*
X124907708Y-103904761D01*
X124949375Y-103857142D01*
X124996994Y-103761904D01*
X125008898Y-103666666D01*
X124985089Y-103571428D01*
X124955327Y-103523809D01*
X124889851Y-103476190D01*
X124752946Y-103428571D01*
X124687470Y-103380952D01*
X124657708Y-103333333D01*
X124633898Y-103238095D01*
X124645803Y-103142857D01*
X124693422Y-103047619D01*
X124735089Y-103000000D01*
X124812470Y-102952380D01*
X124991041Y-102952380D01*
X125092232Y-103000000D01*
X125610089Y-103428571D02*
X125711279Y-103476190D01*
X125741041Y-103523809D01*
X125764851Y-103619047D01*
X125746994Y-103761904D01*
X125699375Y-103857142D01*
X125657708Y-103904761D01*
X125580327Y-103952380D01*
X125294613Y-103952380D01*
X125419613Y-102952380D01*
X125669613Y-102952380D01*
X125735089Y-103000000D01*
X125764851Y-103047619D01*
X125788660Y-103142857D01*
X125776755Y-103238095D01*
X125729136Y-103333333D01*
X125687470Y-103380952D01*
X125610089Y-103428571D01*
X125360089Y-103428571D01*
X126616041Y-103952380D02*
X126741041Y-102952380D01*
X127026755Y-102952380D01*
X127092232Y-103000000D01*
X127121994Y-103047619D01*
X127145803Y-103142857D01*
X127127946Y-103285714D01*
X127080327Y-103380952D01*
X127038660Y-103428571D01*
X126961279Y-103476190D01*
X126675565Y-103476190D01*
X127419613Y-102952380D02*
X127473184Y-103952380D01*
X127705327Y-103238095D01*
X127758898Y-103952380D01*
X128062470Y-102952380D01*
X128651755Y-103952380D02*
X128461279Y-103476190D01*
X128223184Y-103952380D02*
X128348184Y-102952380D01*
X128633898Y-102952380D01*
X128699375Y-103000000D01*
X128729136Y-103047619D01*
X128752946Y-103142857D01*
X128735089Y-103285714D01*
X128687470Y-103380952D01*
X128645803Y-103428571D01*
X128568422Y-103476190D01*
X128282708Y-103476190D01*
D16*
%TO.C,C26*%
X96952500Y-126107836D02*
X96952500Y-125892164D01*
X97672500Y-126107836D02*
X97672500Y-125892164D01*
%TO.C,R32*%
X103830000Y-126253641D02*
X103830000Y-125946359D01*
X103070000Y-126253641D02*
X103070000Y-125946359D01*
%TO.C,R24*%
X114720000Y-116053641D02*
X114720000Y-115746359D01*
X115480000Y-116053641D02*
X115480000Y-115746359D01*
%TO.C,D5*%
X111100000Y-101750000D02*
X108550000Y-101750000D01*
X111100000Y-100050000D02*
X108550000Y-100050000D01*
X111100000Y-101750000D02*
X111100000Y-100050000D01*
%TO.C,R7*%
X75927064Y-116085000D02*
X75472936Y-116085000D01*
X75927064Y-114615000D02*
X75472936Y-114615000D01*
%TO.C,R12*%
X76020000Y-107146359D02*
X76020000Y-107453641D01*
X76780000Y-107146359D02*
X76780000Y-107453641D01*
%TO.C,C15*%
X75877836Y-113540000D02*
X75662164Y-113540000D01*
X75877836Y-114260000D02*
X75662164Y-114260000D01*
%TO.C,U2*%
X96700000Y-114290000D02*
X98200000Y-114290000D01*
X95200000Y-117510000D02*
X98200000Y-117510000D01*
%TO.C,D11*%
X101900000Y-119200000D02*
X101900000Y-123050000D01*
X103900000Y-119200000D02*
X101900000Y-119200000D01*
X103900000Y-119200000D02*
X103900000Y-123050000D01*
%TO.C,C23*%
X75662164Y-113260000D02*
X75877836Y-113260000D01*
X75662164Y-112540000D02*
X75877836Y-112540000D01*
%TO.C,D9*%
X72415000Y-102140000D02*
X72415000Y-104060000D01*
X75100000Y-102140000D02*
X72415000Y-102140000D01*
X72415000Y-104060000D02*
X75100000Y-104060000D01*
%TO.C,C14*%
X79842164Y-125297500D02*
X80057836Y-125297500D01*
X79842164Y-124577500D02*
X80057836Y-124577500D01*
%TO.C,U4*%
X117980000Y-117190000D02*
X116180000Y-117190000D01*
X116180000Y-120410000D02*
X119130000Y-120410000D01*
%TO.C,C3*%
X93540000Y-116807836D02*
X93540000Y-116592164D01*
X94260000Y-116807836D02*
X94260000Y-116592164D01*
%TO.C,C25*%
X75867836Y-112260000D02*
X75652164Y-112260000D01*
X75867836Y-111540000D02*
X75652164Y-111540000D01*
%TO.C,D13*%
X112415000Y-113460000D02*
X115100000Y-113460000D01*
X115100000Y-111540000D02*
X112415000Y-111540000D01*
X112415000Y-111540000D02*
X112415000Y-113460000D01*
%TO.C,D8*%
X72415000Y-106340000D02*
X72415000Y-108260000D01*
X75100000Y-106340000D02*
X72415000Y-106340000D01*
X72415000Y-108260000D02*
X75100000Y-108260000D01*
%TO.C,C12*%
X79942164Y-119097500D02*
X80157836Y-119097500D01*
X79942164Y-118377500D02*
X80157836Y-118377500D01*
%TO.C,L1*%
X122010000Y-113737221D02*
X122010000Y-114062779D01*
X120990000Y-113737221D02*
X120990000Y-114062779D01*
%TO.C,U5*%
X81510000Y-122337500D02*
X81510000Y-121537500D01*
X78390000Y-122337500D02*
X78390000Y-121537500D01*
X81510000Y-122337500D02*
X81510000Y-123137500D01*
X78390000Y-122337500D02*
X78390000Y-124137500D01*
%TO.C,SW1*%
X122200000Y-103150000D02*
X118400000Y-103150000D01*
X118400000Y-103150000D02*
X118400000Y-96650000D01*
X122200000Y-96650000D02*
X122200000Y-103150000D01*
X118400000Y-96650000D02*
X122200000Y-96650000D01*
%TO.C,R6*%
X121320000Y-117846359D02*
X121320000Y-118153641D01*
X122080000Y-117846359D02*
X122080000Y-118153641D01*
%TO.C,U7*%
X121700000Y-111260000D02*
X120900000Y-111260000D01*
X121700000Y-108140000D02*
X122500000Y-108140000D01*
X121700000Y-111260000D02*
X122500000Y-111260000D01*
X121700000Y-108140000D02*
X119900000Y-108140000D01*
%TO.C,R11*%
X76780000Y-100846359D02*
X76780000Y-101153641D01*
X76020000Y-100846359D02*
X76020000Y-101153641D01*
%TO.C,C10*%
X120460000Y-120607836D02*
X120460000Y-120392164D01*
X119740000Y-120607836D02*
X119740000Y-120392164D01*
%TO.C,L3*%
X102890000Y-109737221D02*
X102890000Y-110062779D01*
X103910000Y-109737221D02*
X103910000Y-110062779D01*
%TO.C,C16*%
X77592164Y-113040000D02*
X77807836Y-113040000D01*
X77592164Y-113760000D02*
X77807836Y-113760000D01*
%TO.C,U6*%
X105350000Y-92550000D02*
X105350000Y-93200000D01*
X94650000Y-106700000D02*
X94650000Y-107800000D01*
X105350000Y-106700000D02*
X105350000Y-107800000D01*
X94650000Y-92550000D02*
X94650000Y-96750000D01*
X105350000Y-107800000D02*
X104250000Y-107800000D01*
X94400000Y-95650000D02*
X94400000Y-96750000D01*
X94650000Y-107800000D02*
X95750000Y-107800000D01*
%TO.C,D2*%
X116400000Y-103550000D02*
X113850000Y-103550000D01*
X116400000Y-105250000D02*
X113850000Y-105250000D01*
X116400000Y-105250000D02*
X116400000Y-103550000D01*
%TO.C,D6*%
X111100000Y-96050000D02*
X108550000Y-96050000D01*
X111100000Y-97750000D02*
X108550000Y-97750000D01*
X111100000Y-97750000D02*
X111100000Y-96050000D01*
%TO.C,R1*%
X97020000Y-121853641D02*
X97020000Y-121546359D01*
X97780000Y-121853641D02*
X97780000Y-121546359D01*
%TO.C,R25*%
X82630000Y-123183859D02*
X82630000Y-123491141D01*
X81870000Y-123183859D02*
X81870000Y-123491141D01*
%TO.C,C11*%
X79942164Y-120097500D02*
X80157836Y-120097500D01*
X79942164Y-119377500D02*
X80157836Y-119377500D01*
%TO.C,D10*%
X72415000Y-104240000D02*
X72415000Y-106160000D01*
X72415000Y-106160000D02*
X75100000Y-106160000D01*
X75100000Y-104240000D02*
X72415000Y-104240000D01*
%TO.C,C19*%
X101460000Y-109507836D02*
X101460000Y-109292164D01*
X100740000Y-109507836D02*
X100740000Y-109292164D01*
%TO.C,D4*%
X111100000Y-99750000D02*
X108550000Y-99750000D01*
X111100000Y-99750000D02*
X111100000Y-98050000D01*
X111100000Y-98050000D02*
X108550000Y-98050000D01*
%TO.C,R13*%
X119820000Y-114746359D02*
X119820000Y-115053641D01*
X120580000Y-114746359D02*
X120580000Y-115053641D01*
%TO.C,C18*%
X104992164Y-109272500D02*
X105207836Y-109272500D01*
X104992164Y-108552500D02*
X105207836Y-108552500D01*
%TO.C,R16*%
X106853641Y-104820000D02*
X106546359Y-104820000D01*
X106853641Y-105580000D02*
X106546359Y-105580000D01*
%TO.C,R10*%
X122920000Y-105446359D02*
X122920000Y-105753641D01*
X123680000Y-105446359D02*
X123680000Y-105753641D01*
%TO.C,R17*%
X120580000Y-112746359D02*
X120580000Y-113053641D01*
X119820000Y-112746359D02*
X119820000Y-113053641D01*
%TO.C,C13*%
X81890000Y-121345336D02*
X81890000Y-121129664D01*
X82610000Y-121345336D02*
X82610000Y-121129664D01*
%TO.C,C6*%
X113840000Y-118407836D02*
X113840000Y-118192164D01*
X114560000Y-118407836D02*
X114560000Y-118192164D01*
%TO.C,Q1*%
X109700000Y-112560000D02*
X109050000Y-112560000D01*
X109700000Y-109440000D02*
X110350000Y-109440000D01*
X109700000Y-112560000D02*
X111375000Y-112560000D01*
X109700000Y-109440000D02*
X109050000Y-109440000D01*
%TO.C,Q4*%
X91500000Y-115440000D02*
X92150000Y-115440000D01*
X91500000Y-118560000D02*
X93175000Y-118560000D01*
X91500000Y-118560000D02*
X90850000Y-118560000D01*
X91500000Y-115440000D02*
X90850000Y-115440000D01*
%TO.C,R8*%
X121080000Y-118153641D02*
X121080000Y-117846359D01*
X120320000Y-118153641D02*
X120320000Y-117846359D01*
%TO.C,L2*%
X114380000Y-121600000D02*
X119780000Y-121600000D01*
X119780000Y-121600000D02*
X119780000Y-127000000D01*
X119780000Y-127000000D02*
X114380000Y-127000000D01*
X114380000Y-127000000D02*
X114380000Y-121600000D01*
%TO.C,D1*%
X107550000Y-112650000D02*
X105000000Y-112650000D01*
X107550000Y-112650000D02*
X107550000Y-110950000D01*
X107550000Y-110950000D02*
X105000000Y-110950000D01*
%TO.C,R4*%
X96932500Y-124253641D02*
X96932500Y-123946359D01*
X97692500Y-124253641D02*
X97692500Y-123946359D01*
%TO.C,R2*%
X96927064Y-117955000D02*
X96472936Y-117955000D01*
X96927064Y-119425000D02*
X96472936Y-119425000D01*
%TO.C,U3*%
X94750000Y-126560000D02*
X95550000Y-126560000D01*
X94750000Y-126560000D02*
X93950000Y-126560000D01*
X94750000Y-123440000D02*
X95550000Y-123440000D01*
X94750000Y-123440000D02*
X92950000Y-123440000D01*
%TO.C,R5*%
X113853641Y-116780000D02*
X113546359Y-116780000D01*
X113853641Y-116020000D02*
X113546359Y-116020000D01*
%TO.C,C24*%
X77592164Y-112040000D02*
X77807836Y-112040000D01*
X77592164Y-112760000D02*
X77807836Y-112760000D01*
%TO.C,R29*%
X107020000Y-96746359D02*
X107020000Y-97053641D01*
X107780000Y-96746359D02*
X107780000Y-97053641D01*
%TO.C,C2*%
X121592164Y-115540000D02*
X121807836Y-115540000D01*
X121592164Y-116260000D02*
X121807836Y-116260000D01*
%TO.C,R20*%
X98720000Y-109246359D02*
X98720000Y-109553641D01*
X99480000Y-109246359D02*
X99480000Y-109553641D01*
%TO.C,R9*%
X123680000Y-113646359D02*
X123680000Y-113953641D01*
X122920000Y-113646359D02*
X122920000Y-113953641D01*
%TO.C,D16*%
X102250000Y-125140000D02*
X99565000Y-125140000D01*
X99565000Y-125140000D02*
X99565000Y-127060000D01*
X99565000Y-127060000D02*
X102250000Y-127060000D01*
%TO.C,R26*%
X107020000Y-102746359D02*
X107020000Y-103053641D01*
X107780000Y-102746359D02*
X107780000Y-103053641D01*
%TO.C,C7*%
X113560000Y-118407836D02*
X113560000Y-118192164D01*
X112840000Y-118407836D02*
X112840000Y-118192164D01*
D17*
%TO.C,J6*%
X83750000Y-119100000D02*
X83750000Y-123100000D01*
X91650000Y-119100000D02*
X89600000Y-119100000D01*
X91650000Y-123100000D02*
X91650000Y-119100000D01*
X85500000Y-126700000D02*
X89900000Y-126700000D01*
X85800000Y-119100000D02*
X83750000Y-119100000D01*
D16*
%TO.C,C21*%
X94442164Y-110460000D02*
X94657836Y-110460000D01*
X94442164Y-109740000D02*
X94657836Y-109740000D01*
D17*
%TO.C,U1*%
X94000000Y-122500000D02*
X96000000Y-122500000D01*
X94000000Y-120500000D02*
X96000000Y-120500000D01*
D18*
X93800000Y-120200000D02*
G75*
G03*
X93800000Y-120200000I-100000J0D01*
G01*
D16*
%TO.C,R27*%
X107780000Y-100746359D02*
X107780000Y-101053641D01*
X107020000Y-100746359D02*
X107020000Y-101053641D01*
%TO.C,D3*%
X111100000Y-102050000D02*
X108550000Y-102050000D01*
X111100000Y-103750000D02*
X108550000Y-103750000D01*
X111100000Y-103750000D02*
X111100000Y-102050000D01*
%TO.C,R30*%
X98670000Y-126253641D02*
X98670000Y-125946359D01*
X99430000Y-126253641D02*
X99430000Y-125946359D01*
%TO.C,R28*%
X107020000Y-98746359D02*
X107020000Y-99053641D01*
X107780000Y-98746359D02*
X107780000Y-99053641D01*
%TO.C,C8*%
X117207836Y-120640000D02*
X116992164Y-120640000D01*
X117207836Y-121360000D02*
X116992164Y-121360000D01*
D17*
%TO.C,J1*%
X104350000Y-113650000D02*
X104350000Y-126350000D01*
X112250000Y-113650000D02*
X111620000Y-113650000D01*
X112250000Y-126350000D02*
X111620000Y-126350000D01*
X104980000Y-113650000D02*
X104350000Y-113650000D01*
X112250000Y-126350000D02*
X112250000Y-113650000D01*
X104350000Y-126350000D02*
X104980000Y-126350000D01*
D18*
X106400000Y-127600000D02*
G75*
G03*
X106400000Y-127600000I-100000J0D01*
G01*
D16*
%TO.C,C4*%
X92240000Y-121807836D02*
X92240000Y-121592164D01*
X92960000Y-121807836D02*
X92960000Y-121592164D01*
%TO.C,R21*%
X124480000Y-101653641D02*
X124480000Y-101346359D01*
X123720000Y-101653641D02*
X123720000Y-101346359D01*
%TO.C,R3*%
X113853641Y-115020000D02*
X113546359Y-115020000D01*
X113853641Y-115780000D02*
X113546359Y-115780000D01*
D17*
%TO.C,J3*%
X129900000Y-114625000D02*
X129731250Y-114625000D01*
X129900000Y-104775000D02*
X129731250Y-104775000D01*
X129900000Y-104775000D02*
X129900000Y-114625000D01*
X124190620Y-104775000D02*
X124050000Y-104775000D01*
X124190620Y-114625000D02*
X124050000Y-114625000D01*
X127268750Y-104775000D02*
X126345310Y-104775000D01*
X124050000Y-114625000D02*
X124050000Y-104775000D01*
X127268750Y-114625000D02*
X126345310Y-114625000D01*
D16*
%TO.C,C9*%
X121460000Y-120607836D02*
X121460000Y-120392164D01*
X120740000Y-120607836D02*
X120740000Y-120392164D01*
%TO.C,R14*%
X76020000Y-102946359D02*
X76020000Y-103253641D01*
X76780000Y-102946359D02*
X76780000Y-103253641D01*
%TO.C,D12*%
X125300000Y-102460000D02*
X127985000Y-102460000D01*
X127985000Y-100540000D02*
X125300000Y-100540000D01*
X127985000Y-102460000D02*
X127985000Y-100540000D01*
%TO.C,J2*%
X113035000Y-96730000D02*
X113035000Y-96665000D01*
X116565000Y-103135000D02*
X113035000Y-103135000D01*
X116565000Y-96730000D02*
X116565000Y-96665000D01*
X113035000Y-103135000D02*
X113035000Y-103070000D01*
X116565000Y-103135000D02*
X116565000Y-103070000D01*
X117890000Y-103070000D02*
X116565000Y-103070000D01*
X116565000Y-96665000D02*
X113035000Y-96665000D01*
%TO.C,C22*%
X96557836Y-110460000D02*
X96342164Y-110460000D01*
X96557836Y-109740000D02*
X96342164Y-109740000D01*
%TO.C,C1*%
X121592164Y-112260000D02*
X121807836Y-112260000D01*
X121592164Y-111540000D02*
X121807836Y-111540000D01*
%TO.C,R22*%
X113946359Y-113720000D02*
X114253641Y-113720000D01*
X113946359Y-114480000D02*
X114253641Y-114480000D01*
%TO.C,C27*%
X121740000Y-120607836D02*
X121740000Y-120392164D01*
X122460000Y-120607836D02*
X122460000Y-120392164D01*
%TO.C,R23*%
X116946359Y-116020000D02*
X117253641Y-116020000D01*
X116946359Y-116780000D02*
X117253641Y-116780000D01*
%TO.C,Y1*%
X96175000Y-112650000D02*
X94825000Y-112650000D01*
X96175000Y-110900000D02*
X94825000Y-110900000D01*
%TO.C,R15*%
X106853641Y-106680000D02*
X106546359Y-106680000D01*
X106853641Y-105920000D02*
X106546359Y-105920000D01*
%TO.C,Q2*%
X125700000Y-116140000D02*
X126350000Y-116140000D01*
X125700000Y-119260000D02*
X125050000Y-119260000D01*
X125700000Y-119260000D02*
X126350000Y-119260000D01*
X125700000Y-116140000D02*
X124025000Y-116140000D01*
%TO.C,C5*%
X99140000Y-116612164D02*
X99140000Y-116827836D01*
X99860000Y-116612164D02*
X99860000Y-116827836D01*
%TO.C,R18*%
X76780000Y-105046359D02*
X76780000Y-105353641D01*
X76020000Y-105046359D02*
X76020000Y-105353641D01*
%TO.C,C20*%
X102460000Y-109507836D02*
X102460000Y-109292164D01*
X101740000Y-109507836D02*
X101740000Y-109292164D01*
%TO.C,D7*%
X72415000Y-100040000D02*
X72415000Y-101960000D01*
X75100000Y-100040000D02*
X72415000Y-100040000D01*
X72415000Y-101960000D02*
X75100000Y-101960000D01*
%TO.C,Q3*%
X99800000Y-122960000D02*
X101475000Y-122960000D01*
X99800000Y-119840000D02*
X99150000Y-119840000D01*
X99800000Y-119840000D02*
X100450000Y-119840000D01*
X99800000Y-122960000D02*
X99150000Y-122960000D01*
%TO.C,R19*%
X100480000Y-109246359D02*
X100480000Y-109553641D01*
X99720000Y-109246359D02*
X99720000Y-109553641D01*
%TD*%
M02*
